<?xml version="1.0" standalone="no"?>
<!DOCTYPE svg PUBLIC "-//W3C//DTD SVG 20010904//EN"
 "http://www.w3.org/TR/2001/REC-SVG-20010904/DTD/svg10.dtd">
<svg version="1.0" xmlns="http://www.w3.org/2000/svg"
 width="1080.000000pt" height="1080.000000pt" viewBox="0 0 1080.000000 1080.000000"
 preserveAspectRatio="xMidYMid meet">
<metadata>
Created by potrace 1.16, written by Peter Selinger 2001-2019
</metadata>
<g transform="translate(0.000000,1080.000000) scale(0.100000,-0.100000)"
fill="#000000" stroke="none">
<path d="M5511 10773 c-12 -16 -26 -34 -33 -42 -9 -11 -9 -16 0 -19 16 -5 18
-2062 2 -2062 -5 0 -10 -9 -10 -21 0 -11 4 -18 9 -15 5 3 14 -7 21 -23 8 -21
22 -32 51 -39 21 -5 36 -6 33 -1 -3 5 2 9 11 9 9 0 22 13 28 30 6 17 17 30 24
30 7 0 13 4 13 10 0 5 -7 7 -15 4 -13 -5 -15 116 -15 1058 l0 1065 -23 21
c-32 31 -71 28 -96 -5z"/>
<path d="M3466 10085 c-26 -24 -28 -30 -21 -73 4 -26 11 -54 15 -62 5 -8 6
-28 3 -43 -3 -15 -1 -27 5 -27 13 0 65 -217 58 -237 -4 -9 0 -21 8 -27 15 -13
59 -175 59 -223 0 -18 4 -33 7 -33 4 0 15 -30 24 -67 9 -38 21 -85 27 -106 6
-21 7 -46 4 -56 -3 -12 0 -21 10 -25 8 -3 15 -16 15 -28 0 -13 9 -57 20 -98
12 -42 18 -87 14 -103 -4 -19 -2 -27 6 -25 8 2 23 -41 42 -116 25 -97 28 -120
17 -127 -11 -7 -10 -9 4 -9 10 0 20 -7 24 -16 8 -21 49 -35 79 -28 14 4 32 20
40 36 14 26 13 35 -5 102 -11 40 -17 83 -14 95 4 14 1 26 -8 31 -15 10 -70
220 -57 220 4 0 8 7 8 15 0 8 -6 15 -13 15 -14 0 -63 187 -60 228 1 12 -2 22
-7 22 -11 0 -64 226 -57 245 3 7 1 15 -5 17 -14 5 -69 222 -57 226 14 6 10 32
-4 32 -9 0 -23 38 -41 110 -15 61 -33 120 -39 133 -18 33 -66 34 -101 2z"/>
<path d="M7585 10100 c-3 -5 -17 -10 -31 -10 -13 0 -24 -5 -24 -11 0 -5 4 -8
9 -5 5 4 3 -20 -4 -51 -8 -32 -19 -83 -26 -113 -7 -30 -19 -60 -26 -67 -10 -7
-12 -19 -8 -33 4 -12 2 -34 -3 -48 -6 -15 -18 -62 -27 -104 -10 -43 -22 -78
-27 -78 -5 0 -6 -5 -3 -10 8 -13 -114 -493 -127 -501 -6 -4 -7 -12 -3 -18 6
-11 -35 -192 -55 -236 -4 -11 -11 -40 -14 -65 -4 -25 -12 -66 -18 -92 -15 -60
1 -98 42 -98 14 0 31 -5 38 -10 6 -6 10 -8 8 -4 -2 3 9 18 25 33 16 15 27 30
24 33 -3 3 8 56 24 119 54 207 58 223 76 302 11 50 22 77 31 77 16 0 19 17 4
22 -13 4 45 234 58 231 5 -1 7 8 5 21 -6 29 43 227 58 237 7 4 9 14 6 23 -9
24 42 219 61 234 14 10 14 14 3 21 -10 6 -10 13 -3 28 6 10 14 46 17 79 7 58
6 62 -20 82 -29 23 -60 28 -70 12z"/>
<path d="M1645 9478 c-21 -12 -54 -48 -55 -60 0 -4 25 -40 55 -80 30 -40 55
-79 55 -85 0 -7 5 -13 10 -13 6 0 14 -8 17 -17 4 -10 17 -26 30 -36 13 -10 23
-25 23 -34 0 -8 11 -24 25 -35 14 -11 25 -26 25 -34 0 -8 4 -14 8 -14 4 0 32
-34 62 -75 30 -42 65 -88 77 -103 11 -15 73 -97 137 -182 64 -85 124 -166 135
-180 10 -14 57 -77 105 -140 47 -63 95 -126 106 -140 11 -14 20 -33 20 -42 0
-10 6 -18 14 -18 8 0 23 -15 35 -32 11 -18 28 -42 38 -53 10 -11 34 -42 53
-70 19 -27 38 -52 41 -55 3 -3 33 -43 67 -90 34 -47 67 -92 74 -100 7 -8 13
-19 13 -25 0 -15 77 -6 97 12 43 39 30 77 -70 198 -5 6 -17 24 -28 40 -10 17
-21 32 -25 35 -3 3 -32 41 -65 85 -32 44 -62 82 -65 85 -10 9 -109 148 -109
153 0 4 -10 17 -22 31 -13 13 -27 30 -33 38 -5 7 -27 34 -47 60 -21 25 -38 53
-38 62 0 9 -6 16 -13 16 -8 0 -20 12 -28 27 -8 15 -26 41 -42 57 -15 17 -33
43 -40 59 -6 15 -15 27 -18 27 -10 0 -119 145 -119 158 0 7 -4 12 -9 12 -8 0
-71 84 -71 95 0 2 -10 15 -22 28 -30 31 -54 63 -86 112 -15 22 -30 42 -33 45
-4 3 -32 39 -62 80 -31 41 -63 84 -72 95 -9 11 -29 37 -43 57 -24 33 -60 59
-80 58 -4 0 -16 -6 -27 -12z"/>
<path d="M9393 9452 c-35 -35 -197 -246 -251 -328 -12 -19 -27 -34 -32 -34 -6
0 -10 -5 -10 -11 0 -13 -283 -393 -317 -426 -13 -12 -23 -26 -23 -30 0 -4 -9
-19 -20 -33 -11 -14 -48 -63 -82 -110 -34 -46 -66 -90 -72 -97 -6 -6 -22 -28
-36 -48 -14 -20 -52 -71 -85 -113 -33 -42 -67 -88 -76 -102 -9 -14 -27 -36
-40 -50 -13 -14 -30 -38 -36 -53 -7 -15 -20 -30 -28 -33 -8 -4 -15 -12 -15
-20 0 -7 -6 -17 -13 -21 -21 -13 -67 -99 -67 -126 0 -32 20 -48 71 -57 33 -6
42 -4 47 9 3 9 8 18 11 21 6 5 170 223 250 334 44 59 55 73 95 118 11 13 27
36 35 50 7 15 30 47 50 71 20 25 86 113 146 196 61 82 115 150 121 150 7 1 15
11 18 24 3 12 15 33 26 47 11 14 45 58 75 98 30 40 61 80 70 88 8 8 15 19 15
23 0 4 8 16 18 27 10 10 32 40 50 67 18 26 37 47 41 47 5 0 11 10 15 23 3 12
21 39 41 60 19 21 35 41 35 45 0 4 10 18 23 32 12 14 35 44 51 68 16 23 33 42
37 42 26 0 -16 56 -58 78 -32 18 -39 15 -80 -26z"/>
<path d="M1181 7682 c-18 -12 -25 -14 -29 -4 -2 6 -8 12 -13 12 -6 0 -7 -5 -4
-10 3 -6 -6 -15 -22 -20 -15 -6 -36 -15 -46 -21 -11 -6 -21 -8 -24 -6 -2 3
-13 -2 -23 -11 -42 -38 -55 -47 -66 -44 -7 1 -16 -7 -19 -19 -4 -12 -19 -34
-34 -48 -28 -28 -76 -141 -87 -203 -3 -21 -11 -38 -16 -38 -6 0 -9 -58 -6
-155 1 -85 0 -155 -4 -155 -4 0 -14 10 -22 22 -9 12 -16 19 -16 16 0 -9 -97
40 -105 53 -4 5 -15 7 -26 4 -11 -4 -21 -1 -24 7 -4 10 -28 12 -106 8 -56 -3
-103 -2 -106 3 -7 12 -23 8 -20 -5 1 -7 -7 -13 -18 -13 -11 0 -22 -3 -25 -6
-14 -17 -71 -38 -86 -32 -11 4 -15 2 -11 -4 9 -14 -19 -37 -33 -28 -5 3 -10 1
-10 -6 0 -7 -20 -33 -44 -59 -58 -62 -101 -148 -116 -235 -9 -53 -10 -241 -5
-780 3 -390 6 -743 6 -782 1 -40 5 -71 10 -68 8 5 14 -13 40 -125 7 -30 17
-60 22 -67 5 -7 6 -17 2 -22 -3 -6 1 -21 8 -33 8 -13 20 -41 27 -63 7 -22 17
-46 22 -52 6 -7 8 -20 4 -28 -3 -8 -1 -15 4 -15 5 0 23 -28 40 -62 16 -35 47
-94 68 -133 21 -38 60 -110 86 -160 27 -49 52 -94 57 -100 5 -5 9 -19 9 -32 0
-13 4 -23 9 -23 9 0 32 -39 149 -255 35 -66 76 -140 90 -165 14 -25 39 -72 57
-105 18 -33 43 -78 55 -100 13 -22 32 -57 42 -78 10 -20 47 -88 81 -150 35
-61 73 -132 86 -157 12 -25 37 -70 54 -100 17 -30 47 -85 66 -121 77 -143 90
-166 125 -219 20 -30 46 -68 58 -85 26 -34 288 -297 288 -289 0 3 13 -4 30
-16 16 -12 29 -26 27 -33 -1 -7 6 -11 16 -9 10 2 31 -8 48 -22 17 -15 35 -26
40 -26 5 0 9 -7 9 -16 0 -8 4 -13 8 -10 11 7 82 -41 82 -55 0 -6 6 -9 14 -6 7
3 25 -6 39 -19 14 -13 30 -24 35 -24 5 0 27 -17 49 -38 23 -20 45 -37 49 -37
20 0 73 -40 78 -58 2 -10 10 -16 16 -12 13 8 77 -31 91 -56 5 -11 15 -17 20
-13 6 3 20 -3 32 -14 12 -11 32 -25 45 -31 12 -7 20 -16 17 -21 -3 -6 0 -8 7
-5 7 3 24 -5 38 -18 14 -13 28 -23 32 -23 4 1 17 -7 28 -16 11 -10 25 -18 30
-18 6 0 15 -12 21 -27 7 -16 13 -22 16 -16 3 10 10 10 24 2 11 -6 17 -15 13
-22 -4 -7 -4 -9 1 -5 11 10 47 -11 40 -23 -4 -5 -1 -10 4 -10 21 -3 27 -5 68
-29 24 -14 43 -30 43 -37 0 -7 6 -10 14 -7 7 3 23 -6 34 -20 11 -14 25 -26 31
-26 8 0 11 -200 11 -719 0 -670 1 -720 18 -740 l17 -21 1000 2 999 3 13 25
c17 34 19 2371 2 2500 -7 47 -12 99 -13 115 0 17 -5 33 -10 36 -12 9 -49 109
-50 137 0 12 -6 22 -11 22 -6 0 -19 17 -30 38 -11 20 -41 67 -67 103 -27 36
-48 71 -48 77 0 7 -4 12 -9 12 -11 0 -127 143 -123 153 1 4 -1 7 -6 7 -4 0
-56 47 -117 105 -160 151 -194 182 -198 178 -3 -2 -19 10 -36 26 -18 17 -41
33 -52 36 -10 4 -19 13 -19 20 0 8 -6 12 -14 9 -8 -3 -20 3 -27 14 -7 11 -18
18 -25 15 -6 -2 -19 6 -28 19 -9 12 -16 19 -16 14 0 -5 -9 1 -20 14 -11 13
-20 18 -20 11 0 -13 -72 25 -78 41 -2 4 -13 8 -23 8 -11 0 -17 4 -14 10 3 6 3
10 -2 11 -45 4 -105 29 -131 55 -7 8 -18 12 -23 9 -11 -8 -79 24 -79 37 0 5
-9 7 -19 3 -13 -4 -23 0 -30 12 -6 10 -11 13 -11 7 0 -8 -19 -5 -57 7 -31 11
-62 19 -70 19 -11 0 -13 72 -13 405 0 263 -3 405 -10 405 -5 0 -10 11 -10 25
0 14 5 25 10 25 6 0 10 16 10 35 0 19 -4 35 -10 35 -5 0 -10 7 -10 15 0 8 5
15 10 15 6 0 10 139 10 396 0 338 -2 398 -15 410 -8 9 -15 26 -15 39 0 30 -43
81 -75 89 -14 4 -25 12 -25 19 0 7 -12 18 -27 24 -16 7 -40 24 -55 38 -15 14
-31 25 -36 25 -4 0 -17 8 -28 18 -10 9 -32 18 -49 20 -16 2 -34 8 -40 15 -15
18 -243 17 -250 -2 -3 -7 -12 -10 -22 -7 -9 4 -19 3 -22 -2 -11 -15 -119 -71
-125 -65 -3 4 -6 -1 -6 -10 0 -9 -7 -17 -15 -17 -14 0 -15 49 -15 408 1 460 0
464 -80 584 -22 33 -40 64 -40 69 0 5 -5 9 -10 9 -9 0 -66 36 -80 50 -3 3 -18
11 -33 18 -16 7 -25 17 -21 23 4 7 0 9 -14 5 -11 -4 -23 -2 -26 3 -4 6 -13 8
-20 5 -7 -3 -20 1 -27 8 -10 10 -38 12 -107 8 -50 -3 -92 -2 -92 3 0 4 -7 7
-15 7 -8 0 -14 -6 -12 -12 1 -8 -7 -12 -18 -11 -11 1 -22 -2 -25 -6 -7 -11
-98 -53 -105 -49 -4 2 -11 -5 -16 -14 -6 -10 -17 -18 -24 -18 -13 0 -15 27
-15 163 0 165 -8 223 -37 287 -19 39 -100 150 -111 150 -4 0 -24 16 -44 35
-20 20 -41 34 -45 33 -11 -4 -90 29 -97 41 -3 5 -15 7 -25 4 -10 -3 -22 0 -25
6 -12 18 -147 13 -175 -7z m206 -157 c6 -10 17 -14 22 -10 6 3 14 0 17 -9 3
-8 11 -13 18 -10 13 5 34 -13 35 -31 1 -5 6 -10 11 -10 6 0 10 -4 11 -10 0 -5
9 -13 19 -17 11 -4 31 -30 45 -58 l26 -51 0 -317 c0 -376 1 -345 -11 -337 -7
4 -10 -193 -10 -584 0 -325 4 -591 8 -591 13 0 65 -77 107 -157 20 -40 41 -73
46 -73 5 0 9 299 10 723 l1 722 27 50 c14 28 32 49 39 48 7 -2 12 3 12 11 0
21 52 67 68 61 8 -3 21 3 29 14 38 55 227 54 276 -1 11 -13 17 -15 17 -7 0 8
7 4 15 -8 9 -12 22 -20 29 -17 27 10 124 -130 112 -162 -3 -7 -1 -16 4 -19 6
-4 10 -514 10 -1373 0 -1258 1 -1371 17 -1423 l17 -58 203 6 c197 6 203 6 197
-13 -4 -14 -3 -16 4 -5 8 11 44 13 201 8 120 -3 197 -10 205 -17 8 -6 16 -7
18 -2 5 14 88 2 88 -14 0 -17 30 -19 30 -1 1 7 6 5 14 -6 8 -10 20 -17 28 -16
22 5 130 -33 135 -48 3 -8 13 -13 22 -12 22 3 91 -27 91 -40 0 -6 7 -8 15 -5
9 4 15 0 15 -10 0 -9 6 -13 14 -10 20 8 58 -14 50 -28 -5 -7 -1 -9 9 -5 10 3
17 2 17 -3 0 -6 7 -10 16 -10 30 0 183 -99 184 -118 0 -7 5 -10 10 -7 17 11
246 -177 236 -193 -2 -4 2 -12 9 -19 9 -9 15 -9 17 -2 2 6 37 -26 78 -72 41
-46 78 -86 81 -89 3 -3 27 -32 53 -65 25 -33 51 -66 57 -73 50 -61 127 -208
150 -287 39 -128 39 -130 39 -1337 l0 -1167 -880 2 -881 2 1 695 c0 690 0 695
-20 708 -12 7 -25 24 -30 38 -7 19 -15 24 -29 19 -13 -4 -31 7 -60 35 -22 22
-41 35 -41 30 0 -16 -49 23 -50 38 0 7 -4 10 -10 7 -11 -7 -200 121 -200 136
0 6 -4 8 -9 5 -9 -6 -70 36 -82 56 -4 6 -16 13 -26 14 -10 2 -25 11 -33 21 -9
10 -21 19 -28 21 -20 4 -92 54 -92 63 0 5 -4 8 -8 6 -13 -4 -80 46 -91 68 -5
11 -10 14 -10 7 -1 -19 -51 16 -51 36 0 8 -3 12 -7 9 -3 -4 -13 2 -20 13 -10
14 -21 19 -34 15 -14 -5 -21 0 -29 19 -5 14 -12 26 -15 26 -4 0 -3 -4 0 -10
11 -17 -5 -11 -51 20 -24 17 -44 38 -44 46 0 8 -6 14 -13 12 -21 -5 -85 34
-90 54 -3 10 -11 16 -19 13 -8 -3 -23 2 -33 12 -11 10 -37 29 -57 43 -21 14
-38 31 -38 38 0 6 -6 12 -13 12 -27 0 -237 232 -237 261 0 5 -11 20 -25 35
-14 15 -25 35 -25 45 0 11 -4 19 -8 19 -9 0 -57 86 -226 401 -23 41 -63 116
-90 165 -27 49 -74 136 -106 194 -187 343 -210 387 -210 404 0 9 -4 16 -9 16
-8 0 -82 130 -195 340 -22 41 -55 102 -73 135 -19 33 -41 76 -50 95 -8 19 -19
42 -24 50 -11 19 -39 79 -49 105 -4 11 -15 38 -23 60 -32 82 -49 147 -43 167
3 12 -1 26 -8 32 -7 6 -20 56 -30 111 -14 87 -16 194 -16 832 l0 732 25 54
c23 48 115 154 115 132 0 -5 6 -2 13 7 6 8 38 23 71 33 63 19 138 17 214 -5
46 -14 122 -73 122 -96 0 -8 6 -14 13 -14 7 0 24 -18 36 -41 l23 -40 -1 -540
c-2 -526 -1 -539 17 -539 11 0 33 7 48 15 16 8 41 15 55 15 15 0 30 7 33 16 3
9 6 370 6 803 0 781 1 811 33 881 22 47 71 103 104 116 18 8 33 19 33 24 0 5
7 7 16 3 9 -3 19 -2 23 3 25 36 203 42 228 9z m1568 -1688 c11 -6 27 -19 37
-29 9 -11 18 -14 20 -8 2 6 38 -15 82 -47 l78 -58 4 -857 c2 -472 0 -859 -4
-862 -4 -3 -113 -8 -241 -12 -223 -7 -235 -6 -249 12 -10 13 -16 15 -19 7 -6
-17 -115 -17 -131 -1 -9 9 -12 203 -12 809 0 710 2 799 16 813 8 9 12 21 9 26
-4 6 1 27 10 47 20 42 101 126 114 119 5 -3 12 1 15 9 3 8 9 14 13 13 4 -1 23
6 42 16 19 10 46 16 63 14 16 -3 31 -1 34 4 7 11 90 0 119 -15z"/>
<path d="M996 5560 c-16 -5 -33 -7 -38 -4 -4 3 -8 0 -8 -6 0 -7 -6 -10 -14 -7
-8 3 -22 -3 -32 -14 -9 -10 -22 -19 -28 -19 -26 0 -142 -120 -170 -174 -16
-31 -31 -56 -35 -56 -9 0 -13 -59 -13 -165 0 -106 5 -165 13 -165 4 0 23 -33
43 -72 20 -40 54 -104 75 -143 109 -201 131 -244 131 -259 0 -9 4 -16 10 -16
11 0 70 -112 70 -135 0 -8 4 -15 9 -15 10 0 153 -259 238 -430 9 -19 27 -51
38 -70 12 -19 26 -46 30 -60 4 -14 11 -27 15 -30 7 -5 67 -114 132 -240 43
-82 77 -120 111 -120 43 0 115 89 75 91 -13 0 -78 123 -78 146 0 6 -4 13 -9
15 -8 3 -26 33 -111 193 -69 127 -70 129 -70 143 0 6 -4 12 -10 12 -5 0 -10 4
-10 9 0 4 -33 68 -73 142 -41 74 -101 186 -134 249 -33 63 -71 135 -85 160
-24 43 -61 112 -164 308 -108 202 -99 177 -98 289 1 82 5 110 22 142 26 50 62
91 79 91 7 0 13 6 13 13 0 17 65 51 80 42 6 -4 17 1 25 11 11 15 16 17 26 7
15 -15 125 -18 133 -4 13 21 130 -43 176 -95 27 -31 28 -33 91 -150 23 -44 48
-89 56 -102 7 -12 11 -27 8 -32 -3 -6 -2 -10 4 -10 8 0 44 -61 149 -260 87
-164 127 -239 152 -285 15 -27 49 -90 75 -140 26 -49 60 -112 75 -140 15 -27
44 -80 64 -117 131 -246 126 -238 172 -238 18 0 35 -6 37 -12 3 -7 6 -3 6 10
1 12 5 22 9 22 5 0 14 11 21 24 11 20 10 28 -11 62 -14 22 -55 97 -92 167 -37
70 -76 144 -88 165 -30 54 -199 372 -234 442 -10 19 -20 37 -23 40 -4 3 -26
43 -50 90 -25 47 -58 110 -74 140 -16 30 -48 89 -70 130 -22 41 -46 84 -53 95
-8 11 -14 27 -14 37 0 10 -4 18 -8 18 -5 0 -19 21 -32 47 -13 26 -47 72 -77
102 -29 30 -53 59 -53 64 0 4 -4 6 -8 3 -5 -3 -24 5 -43 18 -19 13 -37 24 -42
24 -4 0 -32 8 -61 16 -58 17 -201 20 -250 6z"/>
<path d="M9454 7689 c-3 -6 -19 -9 -34 -5 -19 3 -30 1 -34 -9 -3 -8 -24 -20
-48 -27 -24 -7 -48 -19 -55 -28 -7 -8 -13 -11 -13 -7 0 19 -137 -132 -157
-173 -38 -77 -45 -119 -50 -297 -4 -138 -8 -173 -19 -173 -8 0 -14 7 -14 15 0
9 -6 15 -12 14 -17 -3 -108 42 -108 53 0 5 -11 6 -25 2 -17 -4 -25 -2 -25 7 0
18 -211 20 -222 2 -5 -6 -17 -9 -28 -6 -12 3 -20 0 -20 -7 0 -7 -8 -10 -20 -7
-11 3 -20 1 -20 -4 0 -4 -25 -24 -55 -43 -111 -71 -185 -181 -205 -301 -5 -33
-10 -230 -10 -437 0 -208 -2 -378 -5 -378 -3 0 -29 16 -58 35 -28 19 -57 35
-63 35 -6 0 -17 7 -24 15 -6 8 -22 13 -33 12 -12 -1 -21 3 -20 8 2 16 -236 13
-242 -2 -2 -7 -12 -10 -21 -6 -9 3 -19 2 -23 -3 -3 -5 -28 -20 -56 -34 -27
-14 -65 -38 -83 -55 -19 -16 -36 -29 -38 -27 -2 1 -12 -5 -21 -13 -10 -9 -34
-29 -54 -45 -25 -20 -39 -42 -43 -65 -4 -19 -11 -35 -16 -35 -16 0 -13 -847 3
-854 10 -5 10 -7 0 -12 -10 -4 -13 -63 -13 -244 0 -181 3 -240 13 -244 10 -5
10 -7 0 -12 -10 -4 -13 -51 -13 -182 0 -97 -3 -186 -6 -197 -6 -24 -140 -70
-148 -51 -2 6 -5 3 -5 -7 -1 -14 -6 -16 -27 -11 -18 5 -25 3 -20 -4 8 -14 -75
-45 -136 -51 -5 -1 -8 -8 -8 -16 0 -8 -6 -15 -13 -15 -7 0 -29 -9 -50 -20 -20
-11 -37 -17 -37 -13 0 3 -10 -3 -22 -14 -32 -29 -67 -45 -83 -39 -8 3 -17 -3
-20 -15 -4 -13 -12 -18 -21 -15 -8 3 -13 2 -10 -3 4 -5 -15 -22 -41 -37 -27
-15 -54 -34 -61 -41 -13 -12 -28 -17 -45 -14 -5 1 -11 -7 -14 -18 -4 -17 -30
-34 -55 -36 -4 0 -23 -19 -44 -43 -27 -32 -39 -40 -45 -31 -6 10 -10 9 -15 -6
-11 -32 -157 -175 -179 -176 -11 0 -14 -3 -8 -6 8 -3 -9 -29 -45 -71 -31 -37
-86 -106 -121 -154 -35 -49 -67 -88 -72 -88 -5 0 -9 -8 -9 -18 0 -9 -10 -33
-23 -52 -13 -19 -34 -62 -46 -95 -38 -102 -40 -105 -53 -105 -9 0 -10 -2 -2
-8 9 -5 8 -24 -2 -72 -11 -53 -14 -297 -14 -1311 0 -1194 1 -1247 18 -1262 17
-16 102 -17 1015 -17 l996 0 16 30 c13 25 15 122 15 740 0 472 3 709 10 705 6
-3 10 0 10 8 0 21 47 50 54 34 3 -7 7 -3 11 10 4 13 11 23 16 23 15 0 22 4 46
28 13 13 27 20 33 17 5 -3 14 3 19 13 11 20 50 50 72 54 8 2 20 10 29 19 29
31 181 130 191 124 5 -4 9 -1 9 6 0 16 31 38 53 39 9 0 17 6 17 13 0 15 74 60
84 50 3 -3 6 0 6 9 0 8 10 20 23 26 28 15 61 35 67 43 18 20 102 69 110 64 6
-3 10 1 10 9 0 18 36 40 50 31 6 -3 10 1 10 9 0 8 9 20 20 26 11 6 20 8 20 4
0 -3 8 3 18 14 25 30 121 94 131 87 5 -2 16 6 25 19 8 14 25 28 38 32 12 3 79
64 148 134 93 93 146 157 197 236 39 60 83 122 97 138 15 16 25 34 22 41 -2 7
10 37 28 66 18 30 43 76 57 103 13 27 29 51 36 53 7 3 10 9 8 14 -3 4 11 39
32 76 21 37 47 85 58 106 11 20 23 37 27 37 5 0 8 8 8 18 1 9 12 35 25 57 13
22 33 58 44 80 11 22 37 69 57 105 20 36 53 97 74 135 20 39 60 111 87 160 27
50 71 131 98 180 73 138 107 200 114 205 3 3 21 34 39 70 18 36 62 121 97 190
111 217 142 299 180 468 12 51 24 82 32 82 16 0 18 37 2 42 -8 3 -8 24 0 78
17 106 14 1590 -2 1590 -7 0 -23 24 -37 53 -14 28 -46 74 -72 101 -26 27 -49
55 -52 62 -3 8 -12 11 -21 8 -9 -4 -15 0 -15 9 0 9 -8 15 -17 15 -26 -1 -73
20 -73 32 0 6 -10 8 -25 4 -17 -4 -25 -2 -25 7 0 11 -25 14 -115 14 -90 0
-115 -3 -115 -14 0 -9 -8 -11 -25 -7 -15 4 -25 2 -25 -4 0 -12 -47 -33 -72
-32 -10 0 -18 -6 -18 -14 0 -8 -4 -14 -9 -14 -5 0 -17 -7 -26 -16 -9 -10 -20
-13 -25 -8 -5 5 -10 97 -12 206 -1 108 -6 194 -10 192 -5 -3 -13 7 -18 23 -15
41 -50 105 -71 128 -10 11 -18 24 -18 29 0 5 -10 14 -23 20 -12 6 -28 23 -35
36 -7 14 -13 20 -13 13 0 -7 -7 -10 -15 -7 -8 4 -15 13 -15 21 0 7 -6 13 -12
11 -20 -4 -98 30 -98 43 0 8 -4 8 -13 1 -9 -8 -21 -7 -41 3 -33 18 -152 20
-162 4z m150 -149 c21 -4 42 -14 46 -21 4 -6 12 -9 18 -5 21 13 132 -88 132
-121 0 -13 6 -23 15 -23 37 0 39 -50 42 -865 2 -434 5 -800 8 -813 4 -15 12
-22 23 -20 9 2 37 -6 62 -18 l45 -22 5 532 c5 516 6 532 26 577 24 49 109 143
123 134 5 -2 11 2 14 10 10 25 113 48 186 42 70 -6 141 -30 141 -48 0 -5 4 -7
10 -4 13 8 93 -76 115 -121 24 -50 35 -103 24 -110 -13 -7 -12 -1344 1 -1344
19 0 -20 -278 -41 -291 -7 -4 -8 -12 -4 -19 4 -7 2 -31 -5 -54 -23 -77 -43
-131 -52 -140 -4 -6 -8 -17 -8 -26 0 -18 -98 -214 -172 -346 -25 -43 -71 -128
-103 -189 -32 -60 -73 -133 -91 -161 -19 -28 -34 -58 -34 -66 0 -7 -4 -18 -9
-23 -5 -6 -27 -45 -50 -88 -22 -43 -48 -85 -56 -93 -8 -9 -15 -23 -15 -33 0
-9 -4 -21 -9 -26 -5 -6 -30 -50 -56 -100 -27 -49 -51 -92 -54 -95 -3 -3 -29
-50 -58 -105 -28 -55 -57 -100 -65 -100 -7 0 -12 -8 -10 -18 2 -14 -82 -190
-107 -222 -5 -5 -36 -64 -71 -130 -34 -66 -85 -154 -112 -195 -95 -140 -232
-294 -256 -288 -7 2 -18 -8 -25 -20 -6 -13 -25 -31 -41 -40 -16 -10 -39 -27
-52 -39 -13 -13 -29 -20 -38 -17 -10 4 -16 1 -16 -7 -1 -19 -80 -75 -81 -57 0
7 -4 5 -7 -5 -11 -27 -95 -79 -104 -64 -5 8 -8 5 -8 -8 0 -21 -35 -49 -49 -40
-5 2 -16 -6 -25 -20 -16 -24 -76 -62 -76 -48 0 4 -7 -3 -16 -15 -8 -12 -19
-22 -25 -22 -5 0 -18 -9 -29 -20 -11 -11 -26 -17 -35 -14 -9 4 -15 0 -15 -9 0
-12 -69 -67 -85 -67 -3 0 -18 -11 -32 -24 -14 -13 -32 -22 -39 -19 -8 3 -14
-1 -14 -9 0 -12 -69 -62 -88 -63 -4 -1 -22 -15 -41 -33 -29 -28 -45 -37 -53
-30 -2 1 -16 -10 -32 -25 -16 -15 -35 -27 -42 -27 -8 0 -14 -4 -14 -10 0 -5
-4 -10 -9 -10 -6 0 -22 -11 -36 -24 -16 -15 -33 -22 -42 -19 -10 4 -14 2 -10
-4 8 -12 -69 -67 -82 -58 -10 6 -33 -19 -25 -27 3 -3 -6 -15 -20 -26 l-26 -20
0 -696 0 -697 -880 3 -880 3 0 1165 c0 661 4 1191 10 1225 13 85 29 138 47
152 8 6 12 16 9 21 -5 9 49 131 64 142 3 3 16 22 29 43 12 20 27 37 32 37 5 0
9 6 9 14 0 19 170 214 274 315 69 67 89 82 97 70 7 -11 9 -11 9 4 0 20 47 66
68 67 6 0 12 4 12 10 0 10 207 150 223 150 4 0 15 7 24 16 9 8 22 13 29 10 8
-3 14 1 14 9 0 15 16 20 52 17 11 -1 15 4 12 12 -6 15 40 31 56 21 6 -4 10 0
10 7 0 16 37 41 50 33 6 -4 18 1 27 10 13 13 18 14 24 3 7 -10 9 -10 9 2 0 16
94 55 109 46 5 -3 12 2 15 11 5 12 9 14 18 5 15 -15 49 -15 45 0 -3 16 86 34
91 19 3 -9 7 -9 18 0 18 15 477 31 655 23 l137 -6 11 35 c9 27 17 35 29 31 10
-4 13 -2 7 3 -7 5 -10 481 -10 1391 0 1115 2 1384 13 1391 7 4 10 15 6 24 -22
58 158 242 207 211 7 -4 9 -3 6 3 -4 6 7 13 24 17 67 13 174 2 162 -17 -3 -6
-1 -7 5 -3 34 21 149 -69 191 -149 21 -39 21 -48 21 -768 0 -553 3 -728 12
-725 6 2 34 44 62 94 68 119 79 134 93 134 10 0 13 123 13 595 0 498 -2 595
-14 595 -22 0 -26 48 -26 310 0 262 4 310 26 310 16 0 19 17 4 22 -7 2 -6 16
4 38 19 44 36 64 59 73 9 3 17 13 17 20 0 21 76 68 96 60 12 -4 15 -3 10 5 -4
7 -4 13 1 13 4 1 21 3 37 5 15 1 31 5 34 8 8 9 72 7 116 -4z m-1532 -1707 c27
-9 48 -23 48 -31 0 -8 6 -12 14 -9 7 3 30 -11 50 -31 48 -46 95 -124 78 -130
-16 -5 -16 -23 1 -19 18 3 23 -1623 5 -1635 -21 -13 -136 -10 -141 5 -4 9 -8
8 -16 -3 -9 -13 -48 -15 -246 -15 l-235 0 0 867 0 866 35 21 c19 11 42 18 51
14 12 -4 15 -2 12 8 -6 18 46 69 71 69 11 0 21 5 23 11 6 18 100 39 153 34 27
-2 71 -12 97 -22z"/>
<path d="M9540 5552 c-30 -9 -61 -22 -68 -29 -21 -20 -69 -43 -76 -36 -3 4 -6
1 -6 -7 0 -7 -18 -30 -40 -51 -42 -40 -72 -89 -156 -248 -27 -53 -72 -136 -98
-186 -27 -49 -68 -127 -92 -173 -65 -123 -95 -172 -106 -172 -5 0 -6 -4 -3
-10 5 -8 -48 -124 -65 -140 -3 -3 -24 -43 -48 -90 -40 -80 -65 -127 -150 -280
-19 -36 -51 -94 -70 -130 -19 -36 -39 -69 -46 -73 -8 -6 -8 -10 2 -14 6 -2 12
-10 12 -17 0 -22 35 -46 68 -46 19 0 32 -5 32 -12 0 -14 0 -15 95 162 102 189
132 245 193 360 30 58 58 110 63 115 4 6 23 42 43 80 20 39 58 111 85 160 26
50 69 131 95 180 26 50 54 95 62 101 8 6 14 17 14 24 0 6 30 71 68 143 65 127
141 225 163 211 5 -3 9 0 9 5 0 6 7 11 15 11 8 0 15 5 15 10 0 6 8 10 18 10
10 0 24 6 31 13 11 10 14 10 18 0 6 -16 153 -18 153 -3 0 7 8 6 23 -2 12 -7
28 -11 35 -10 6 2 12 -2 12 -8 0 -5 7 -10 15 -10 8 0 15 -7 15 -16 0 -8 5 -12
10 -9 12 8 63 -46 97 -103 22 -37 26 -56 28 -140 1 -80 -2 -104 -18 -137 -11
-22 -22 -42 -26 -45 -3 -3 -23 -39 -43 -80 -70 -140 -160 -300 -170 -300 -5 0
-7 -4 -4 -8 5 -9 -3 -26 -69 -147 -18 -33 -65 -123 -105 -200 -40 -77 -76
-144 -80 -150 -4 -5 -31 -55 -60 -110 -29 -55 -84 -157 -121 -226 -38 -69 -69
-130 -69 -136 0 -6 -4 -13 -8 -15 -4 -1 -20 -29 -36 -60 -15 -32 -34 -58 -42
-58 -8 0 -14 -7 -14 -15 0 -8 7 -15 15 -15 8 0 15 -6 15 -14 0 -17 43 -46 67
-46 41 1 78 54 179 255 14 28 36 68 49 90 14 22 43 76 66 120 22 44 59 114 81
155 22 41 47 89 55 105 9 17 42 77 73 135 54 99 101 188 200 375 23 44 57 107
75 140 119 216 138 267 138 374 0 79 -26 194 -50 222 -7 8 -13 19 -13 22 0 25
-129 149 -169 162 -12 3 -21 11 -21 16 0 5 -9 9 -20 9 -11 0 -20 4 -20 9 0 5
-10 9 -22 10 -226 9 -245 9 -298 -7z"/>
</g>
</svg>
