<?xml version="1.0" standalone="no"?>
<!DOCTYPE svg PUBLIC "-//W3C//DTD SVG 20010904//EN"
 "http://www.w3.org/TR/2001/REC-SVG-20010904/DTD/svg10.dtd">
<svg version="1.0" xmlns="http://www.w3.org/2000/svg"
 width="1080.000000pt" height="1080.000000pt" viewBox="0 0 1080.000000 1080.000000"
 preserveAspectRatio="xMidYMid meet">
<metadata>
Created by potrace 1.16, written by Peter Selinger 2001-2019
</metadata>
<g transform="translate(0.000000,1080.000000) scale(0.100000,-0.100000)"
fill="#000000" stroke="none">
<path d="M5350 10703 c-1 -167 -15 -805 -25 -1110 -4 -111 -3 -122 14 -128 22
-7 116 -4 129 4 6 3 12 158 16 356 3 193 8 402 11 465 3 63 7 204 10 313 l4
197 -80 0 -79 0 0 -97z"/>
<path d="M6618 10278 c-43 -44 -78 -82 -78 -84 0 -2 -80 -84 -177 -182 -385
-387 -583 -593 -583 -606 0 -20 89 -96 111 -96 11 0 18 4 16 8 -2 8 224 240
721 740 172 175 195 208 158 229 -8 4 -30 23 -50 41 -19 17 -37 31 -38 31 -2
-1 -38 -38 -80 -81z"/>
<path d="M4047 10272 c-45 -45 -59 -72 -37 -72 5 0 24 -16 42 -35 18 -19 92
-96 163 -171 72 -74 187 -195 256 -267 69 -73 171 -179 226 -237 56 -58 125
-131 154 -163 32 -34 62 -57 74 -57 16 1 95 85 95 102 0 3 -30 36 -67 74 -38
38 -142 148 -233 244 -91 96 -226 238 -300 315 -74 77 -171 180 -214 228 -44
48 -87 87 -96 87 -9 0 -37 -22 -63 -48z"/>
<path d="M3250 9537 c-19 -7 -36 -19 -36 -27 -1 -8 -2 -21 -3 -29 -1 -9 -9
-11 -26 -7 -18 5 -25 2 -25 -9 0 -8 6 -15 12 -15 7 0 2 -7 -10 -16 -12 -8 -27
-12 -33 -8 -8 4 -9 -3 -4 -25 4 -20 3 -31 -4 -31 -6 0 -11 -6 -11 -14 0 -21
-20 -30 -33 -16 -9 10 -9 11 1 6 6 -4 12 -2 12 3 0 16 -16 13 -30 -4 -8 -9
-10 -28 -6 -50 4 -22 3 -35 -4 -35 -5 0 -10 7 -10 15 0 13 -3 13 -20 3 -23
-14 -27 -67 -8 -86 9 -9 8 -12 -5 -12 -11 0 -17 -8 -17 -21 0 -12 -5 -19 -12
-16 -7 2 -12 12 -10 21 3 14 0 14 -17 -3 -12 -12 -21 -26 -21 -32 0 -7 -8 -18
-17 -25 -15 -10 -16 -15 -5 -26 11 -11 14 -10 22 2 5 8 12 11 16 8 3 -4 -1
-14 -10 -23 -9 -9 -16 -21 -16 -26 0 -16 -29 -41 -39 -34 -14 8 -22 -10 -26
-57 -2 -24 -9 -44 -15 -46 -5 -2 -10 -12 -10 -23 0 -10 -4 -19 -10 -19 -5 0
-10 -7 -10 -15 0 -8 -4 -15 -10 -15 -5 0 -10 -11 -10 -25 0 -14 -4 -25 -9 -25
-11 0 -41 -56 -41 -76 0 -7 -4 -14 -8 -16 -12 -4 -82 -137 -82 -154 0 -8 -4
-14 -10 -14 -5 0 -10 -9 -10 -20 0 -11 -4 -20 -8 -20 -5 0 -17 -20 -28 -45
-10 -25 -22 -45 -26 -45 -4 0 -8 -6 -8 -14 0 -18 -32 -76 -42 -76 -5 0 -8 -13
-8 -30 0 -16 -4 -30 -10 -30 -5 0 -10 -7 -10 -15 0 -9 -11 -33 -25 -55 -14
-22 -25 -46 -25 -55 0 -8 -4 -15 -10 -15 -5 0 -10 -9 -10 -19 0 -11 -4 -23
-10 -26 -5 -3 -10 -15 -10 -26 0 -10 -4 -19 -10 -19 -5 0 -10 -9 -10 -21 0
-11 -7 -27 -15 -35 -8 -9 -15 -26 -15 -40 0 -13 -4 -24 -10 -24 -5 0 -10 -11
-10 -25 0 -14 -4 -25 -10 -25 -5 0 -10 -9 -10 -20 0 -11 -4 -20 -8 -20 -10 0
-42 -71 -42 -93 0 -10 -4 -17 -10 -17 -5 0 -10 -13 -10 -30 0 -16 -4 -30 -10
-30 -5 0 -10 -11 -10 -25 0 -16 -6 -25 -15 -25 -10 0 -15 -11 -15 -35 0 -19
-4 -35 -10 -35 -5 0 -10 -9 -10 -19 0 -11 -4 -23 -10 -26 -5 -3 -10 -17 -10
-29 0 -13 -7 -29 -15 -36 -8 -7 -15 -21 -15 -31 0 -10 -4 -21 -10 -24 -5 -3
-10 -19 -10 -34 0 -15 -3 -31 -7 -35 -10 -9 -33 -78 -33 -98 0 -10 -4 -18 -10
-18 -5 0 -12 -12 -16 -27 -3 -16 -9 -37 -14 -48 -4 -11 -16 -46 -25 -77 -9
-32 -21 -60 -26 -64 -5 -3 -9 -18 -9 -34 0 -16 -4 -32 -10 -35 -5 -3 -10 -19
-10 -36 0 -16 -4 -29 -10 -29 -5 0 -10 -16 -10 -35 0 -19 -4 -35 -10 -35 -5 0
-10 -13 -10 -29 0 -16 -7 -36 -15 -45 -8 -8 -15 -28 -15 -45 0 -17 -4 -31 -10
-31 -5 0 -10 -15 -10 -34 0 -19 -4 -38 -10 -41 -5 -3 -10 -16 -10 -28 0 -12
-7 -35 -15 -51 -8 -15 -15 -44 -15 -63 0 -20 -4 -32 -10 -28 -6 4 -10 -12 -10
-39 0 -25 -4 -46 -10 -46 -5 0 -10 -18 -10 -39 0 -22 -5 -43 -10 -46 -5 -3
-10 -21 -10 -39 0 -18 -7 -41 -15 -52 -8 -10 -15 -38 -15 -61 0 -23 -5 -45
-10 -48 -6 -3 -10 -28 -10 -56 0 -27 -4 -49 -9 -49 -5 0 -12 -24 -15 -52 -11
-109 -22 -174 -34 -195 -7 -12 -12 -46 -12 -75 0 -30 -4 -58 -9 -63 -5 -6 -12
-46 -15 -90 -3 -44 -10 -141 -15 -215 -5 -74 -9 -148 -10 -165 -1 -23 -3 -27
-11 -15 -6 10 -10 -47 -9 -170 0 -113 4 -177 9 -165 l9 20 1 -20 c4 -53 21
-257 26 -310 3 -33 10 -64 15 -70 5 -5 9 -26 9 -48 0 -21 7 -45 15 -53 8 -9
15 -26 15 -39 0 -13 4 -34 9 -47 27 -69 33 -105 22 -127 -9 -15 -9 -26 -1 -39
9 -15 10 -14 8 7 -2 14 3 26 11 29 11 4 13 -2 8 -28 -6 -28 -5 -31 8 -20 12
10 16 9 21 -3 9 -24 -5 -41 -22 -26 -11 9 -14 8 -14 -5 0 -9 5 -16 10 -16 6 0
10 -9 10 -20 0 -11 4 -20 9 -20 5 0 12 -10 16 -22 6 -21 8 -21 12 -4 3 10 0
21 -5 25 -15 9 -19 43 -4 48 7 3 12 -4 12 -16 0 -12 5 -21 11 -21 7 0 9 -11 5
-30 -3 -17 -2 -29 2 -26 12 7 38 -12 29 -21 -5 -4 -11 -3 -15 2 -11 16 -32 16
-32 0 0 -8 5 -15 11 -15 16 0 38 -31 39 -52 0 -22 20 -24 20 -3 0 8 4 15 10
15 5 0 7 -13 4 -28 -7 -34 21 -71 39 -53 17 17 35 13 42 -9 3 -11 11 -20 16
-20 14 0 69 -56 69 -69 0 -18 -8 -13 -43 24 -18 19 -36 32 -40 28 -11 -10 -8
-23 6 -23 21 0 59 -70 53 -96 -4 -13 -11 -24 -16 -24 -6 0 -10 -16 -10 -36 0
-21 -4 -33 -10 -29 -6 4 -10 -7 -10 -24 0 -17 -4 -31 -10 -31 -5 0 -10 -13
-10 -29 0 -17 -5 -33 -10 -36 -6 -3 -10 -21 -10 -40 0 -20 -6 -35 -15 -39 -9
-3 -15 -18 -15 -37 0 -20 -4 -29 -12 -26 -7 2 -12 15 -10 28 2 21 1 22 -8 7
-8 -12 -8 -24 0 -37 13 -25 13 -71 0 -71 -5 0 -10 -13 -10 -29 0 -16 -7 -34
-15 -41 -8 -7 -15 -18 -14 -24 3 -26 -2 -47 -9 -42 -5 3 -7 19 -4 36 2 16 0
30 -6 30 -16 0 -23 -30 -11 -51 13 -26 8 -75 -9 -71 -9 1 -10 -6 -6 -23 3 -14
2 -38 -4 -53 -6 -15 -13 -40 -16 -55 -4 -15 -11 -25 -16 -22 -6 4 -10 -7 -10
-24 0 -17 -4 -31 -10 -31 -5 0 -10 -16 -10 -35 0 -19 -4 -35 -10 -35 -5 0 -10
-16 -10 -36 0 -24 -4 -34 -12 -31 -8 2 -12 15 -10 30 2 15 -1 27 -7 27 -6 0
-11 -11 -11 -25 0 -14 -4 -25 -9 -25 -15 0 -23 -38 -12 -57 9 -16 11 -14 17
14 3 18 10 30 15 27 14 -8 10 -41 -6 -58 -8 -8 -15 -28 -15 -45 0 -17 -4 -31
-10 -31 -5 0 -10 -16 -10 -35 0 -19 -4 -35 -10 -35 -5 0 -10 -11 -10 -24 0
-33 -10 -57 -21 -50 -5 3 -9 -11 -9 -30 0 -20 -4 -36 -9 -36 -5 0 -12 -15 -15
-33 -4 -17 -9 -45 -13 -60 -6 -29 -30 -32 -25 -3 2 9 -2 16 -8 16 -13 0 -13
-37 0 -45 15 -9 12 -41 -5 -59 -8 -8 -15 -31 -15 -50 0 -20 -4 -36 -10 -36 -5
0 -10 -16 -10 -35 0 -19 -4 -35 -10 -35 -5 0 -10 -13 -10 -29 0 -16 -6 -31
-15 -35 -9 -3 -15 -18 -15 -36 0 -16 -4 -30 -10 -30 -11 0 -2 60 11 74 12 13
12 66 0 66 -13 0 -21 -27 -14 -45 3 -9 -3 -25 -12 -35 -15 -17 -16 -24 -7 -46
15 -31 16 -84 2 -84 -5 0 -10 -9 -10 -21 0 -33 -31 -119 -41 -113 -5 3 -9 -9
-9 -26 0 -21 -4 -30 -12 -27 -7 2 -11 13 -10 23 3 16 1 17 -9 6 -11 -10 -11
-16 -1 -32 6 -11 12 -23 12 -27 0 -12 -49 -67 -55 -61 -3 2 4 14 15 26 19 20
27 52 14 52 -4 0 -28 -22 -54 -50 -28 -29 -56 -50 -69 -50 -11 0 -21 -4 -21
-10 0 -13 47 -13 55 0 3 6 16 9 28 9 17 -1 18 -2 4 -6 -9 -2 -17 -11 -17 -19
0 -8 -10 -14 -25 -14 -14 0 -25 -4 -25 -10 0 -6 -43 -10 -110 -10 -67 0 -110
4 -110 10 0 6 -38 10 -95 10 -78 0 -95 3 -95 15 0 12 -17 15 -94 15 -71 0 -98
4 -110 15 -22 22 -381 22 -390 0 -3 -8 -15 -15 -26 -15 -11 0 -20 -7 -20 -15
0 -8 -7 -15 -15 -15 -8 0 -15 5 -15 10 0 6 -8 2 -17 -7 -14 -14 -18 -35 -18
-100 0 -78 8 -105 18 -65 3 9 3 -3 0 -27 -4 -32 -3 -42 5 -37 7 4 12 14 12 22
0 20 13 17 29 -7 11 -19 11 -21 -3 -16 -10 4 -16 1 -16 -9 0 -12 7 -14 32 -9
29 5 31 4 16 -8 -10 -8 -15 -17 -11 -20 3 -4 12 -2 20 5 10 8 20 8 38 -2 27
-14 35 -43 10 -34 -29 11 -15 -14 15 -28 17 -7 30 -16 30 -21 0 -4 11 -12 25
-17 14 -5 25 -14 25 -20 0 -5 7 -10 15 -10 8 0 15 -4 15 -8 0 -11 46 -32 70
-32 27 0 25 18 -2 23 -20 4 -19 4 5 6 15 0 27 -3 27 -9 0 -5 8 -10 18 -10 10
0 22 -4 27 -9 6 -5 19 -11 30 -14 15 -4 13 -5 -7 -6 -32 -1 -40 -31 -9 -31 11
0 23 -5 26 -10 3 -6 14 -9 23 -9 15 1 15 2 -1 6 -26 7 -21 23 8 23 14 0 25 -4
25 -10 0 -5 9 -10 20 -10 11 0 20 -4 20 -10 0 -5 8 -10 18 -10 24 0 82 -29 82
-41 0 -5 11 -9 25 -9 14 0 25 -4 25 -10 0 -5 9 -10 20 -10 11 0 28 -4 38 -9 9
-5 25 -12 34 -15 11 -3 15 -11 12 -21 -5 -11 1 -15 20 -15 14 0 26 -4 26 -10
0 -5 14 -10 30 -10 17 0 30 -4 30 -10 0 -5 11 -10 25 -10 14 0 25 -4 25 -10 0
-5 9 -10 20 -10 11 0 23 -7 26 -15 4 -9 19 -15 35 -15 16 0 29 -4 29 -10 0 -5
11 -10 25 -10 14 0 25 -4 25 -10 0 -5 9 -10 20 -10 11 0 23 -7 26 -15 4 -8 17
-15 30 -15 13 0 24 -4 24 -10 0 -5 14 -10 30 -10 17 0 30 -4 30 -10 0 -5 11
-10 25 -10 14 0 25 -4 25 -10 0 -5 11 -10 25 -10 16 0 25 -6 25 -15 0 -9 9
-15 25 -15 14 0 25 -4 25 -10 0 -5 14 -10 30 -10 20 0 30 -5 30 -15 0 -8 7
-15 17 -15 22 0 93 -32 93 -42 0 -4 14 -8 30 -8 17 0 30 -4 30 -10 0 -5 11
-10 25 -10 14 0 25 -4 25 -10 0 -5 11 -10 25 -10 14 0 28 -7 31 -15 4 -9 19
-15 35 -15 16 0 29 -4 29 -10 0 -5 13 -10 29 -10 17 0 33 -4 36 -10 3 -5 17
-10 30 -10 13 0 27 -5 30 -10 3 -5 15 -10 25 -10 10 0 25 -7 34 -15 8 -8 31
-15 50 -15 20 0 36 -4 36 -10 0 -5 15 -10 34 -10 19 0 38 -4 41 -10 3 -5 26
-10 51 -10 30 0 46 -5 50 -15 8 -20 70 -20 78 0 3 8 16 15 30 15 14 0 28 5 32
11 3 6 15 8 26 6 14 -4 18 -1 14 8 -3 8 -1 17 4 20 4 3 10 1 12 -5 2 -8 2 179
-1 203 -1 4 -8 7 -16 7 -14 0 -20 12 -16 33 1 5 -3 6 -9 2 -6 -3 -14 4 -19 17
-7 17 -10 19 -10 6 -1 -27 -11 -22 -62 31 -25 26 -54 53 -64 58 -10 6 -15 15
-11 22 5 7 16 1 31 -17 20 -22 24 -24 25 -9 0 9 -4 17 -10 17 -5 0 -10 5 -10
11 0 24 -30 41 -63 35 -29 -5 -29 -5 -8 4 18 8 21 14 13 22 -8 8 -15 8 -27 -2
-8 -7 -18 -10 -22 -6 -3 3 -1 6 5 6 18 0 14 27 -4 34 -8 3 -12 10 -9 16 3 5 2
10 -3 10 -5 0 -24 14 -42 31 -19 19 -43 32 -58 32 -14 0 -32 6 -40 13 -8 8 -9
14 -3 14 6 0 11 5 11 11 0 6 -9 8 -20 4 -13 -4 -22 -1 -26 9 -3 9 -12 16 -20
16 -8 0 -14 5 -14 10 0 6 -5 10 -11 10 -6 0 -17 7 -25 15 -13 12 -13 15 -2 15
8 0 19 -5 26 -12 6 -6 15 -8 19 -3 5 4 2 10 -4 12 -7 3 -13 11 -13 19 0 8 -4
14 -10 14 -10 0 -45 27 -88 68 -22 21 -49 22 -36 1 3 -5 10 -7 15 -4 5 4 9 0
9 -9 0 -8 6 -17 13 -19 9 -4 8 -6 -2 -6 -22 -2 -104 90 -92 102 6 6 11 20 10
31 0 20 -1 20 -11 -1 -6 -13 -15 -23 -20 -23 -12 0 -10 24 3 37 8 8 8 16 0 30
-11 17 -11 17 -9 -1 2 -10 -3 -21 -9 -23 -8 -3 -13 5 -13 22 0 14 -4 24 -9 21
-14 -9 -21 20 -21 89 0 69 7 98 21 89 5 -3 9 18 9 45 0 28 3 51 8 51 8 0 32
71 32 96 0 8 6 14 13 11 6 -2 11 -13 9 -25 -2 -11 2 -24 9 -28 12 -7 10 11 -6
77 -5 17 -1 31 9 42 9 8 16 29 16 46 0 17 5 31 10 31 6 0 10 15 10 34 0 19 5
38 10 41 6 3 10 15 10 25 0 10 7 25 15 34 8 8 15 28 15 45 0 17 5 31 10 31 6
0 10 11 10 25 0 14 5 25 10 25 6 0 10 16 10 35 0 19 5 35 10 35 6 0 10 11 10
24 0 14 7 31 15 40 8 8 15 28 15 45 0 17 4 31 9 31 5 0 11 12 14 27 14 69 21
89 33 96 8 4 14 21 14 37 0 17 5 30 10 30 6 0 10 16 10 35 0 19 5 35 10 35 6
0 10 16 10 35 0 19 5 35 10 35 6 0 10 9 10 19 0 28 11 52 21 45 5 -3 9 9 9 25
0 17 5 31 10 31 6 0 10 15 10 34 0 19 5 38 10 41 6 3 10 19 10 35 0 15 7 30
15 34 9 3 15 18 15 36 0 16 5 30 10 30 6 0 10 11 10 24 0 14 4 27 9 30 5 3 11
20 14 38 11 65 20 93 33 101 8 4 14 21 14 37 0 17 5 30 10 30 6 0 10 16 10 35
0 19 5 35 10 35 6 0 10 13 10 29 0 16 7 34 15 41 8 7 15 23 15 36 0 13 5 24
10 24 6 0 10 14 10 31 0 20 4 29 13 26 6 -2 11 -15 9 -28 -2 -21 -1 -22 8 -7
8 12 8 24 0 37 -14 28 -13 74 3 68 6 -2 11 -14 9 -25 -2 -12 2 -22 7 -22 6 0
11 9 11 20 0 11 4 20 10 20 5 0 12 10 15 23 5 19 11 22 46 19 24 -3 39 0 39 7
0 6 -15 11 -32 12 -18 0 -43 2 -55 5 -18 3 -22 -2 -25 -29 -3 -25 -6 -28 -12
-14 -5 10 -3 30 4 47 l12 30 115 0 c88 0 118 3 129 15 9 8 29 15 45 15 16 0
29 5 29 10 0 6 16 10 35 10 19 0 35 5 35 10 0 6 11 10 25 10 14 0 25 5 25 11
0 8 16 10 50 6 52 -6 60 5 16 23 -21 9 -21 9 2 9 12 1 25 8 28 16 4 8 15 15
25 15 10 0 19 5 19 10 0 6 7 10 16 10 9 0 22 8 29 17 11 15 16 16 38 4 22 -12
28 -11 48 8 13 11 27 21 32 21 14 0 80 70 73 77 -3 4 -12 1 -18 -5 -7 -7 -18
-12 -26 -12 -11 0 -11 3 2 15 8 8 19 15 25 15 6 0 11 5 11 10 0 6 7 10 15 10
8 0 15 5 15 11 0 7 11 8 30 4 29 -6 60 10 60 32 0 4 16 22 35 38 19 17 35 37
35 45 0 10 -10 5 -29 -15 -42 -44 -80 -75 -92 -75 -6 0 -4 7 5 15 8 8 17 15
21 15 11 0 35 28 35 40 0 12 24 40 35 40 8 0 55 47 55 55 0 10 28 35 39 35 6
0 11 5 11 11 0 6 7 8 16 5 12 -5 14 -1 9 15 -6 18 -4 20 14 14 12 -4 21 -2 21
4 0 6 -5 11 -12 11 -6 0 -8 3 -5 6 4 4 13 2 20 -5 11 -8 22 -2 50 29 41 44 51
79 17 58 -11 -7 -20 -17 -20 -21 0 -12 -30 -40 -36 -34 -3 3 3 15 13 27 10 12
26 31 35 42 11 13 24 18 34 14 14 -5 16 -1 11 24 -4 17 -2 30 3 30 6 0 10 5
10 10 0 6 11 22 25 36 14 14 25 31 25 39 0 8 7 15 16 15 8 0 12 5 9 10 -3 6
-2 10 2 10 5 0 15 15 21 34 7 19 19 37 27 40 8 2 26 30 41 60 15 31 30 56 34
56 3 0 12 16 20 35 8 19 17 35 22 35 4 0 8 8 8 18 0 10 8 27 19 38 10 11 27
38 37 60 10 21 28 56 41 76 13 21 23 44 23 53 0 8 4 15 9 15 5 0 12 11 15 25
4 16 11 23 18 19 7 -5 9 -2 5 9 -3 9 1 18 10 21 9 4 13 14 10 25 -3 13 1 21
14 24 12 3 17 11 13 20 -3 8 -1 18 5 22 6 3 11 15 11 26 0 10 5 19 10 19 6 0
10 9 10 19 0 11 7 26 15 35 8 8 15 26 15 40 0 14 5 26 10 26 6 0 10 11 10 25
0 14 5 25 10 25 6 0 10 7 10 16 0 8 7 22 16 31 8 9 13 22 10 29 -3 8 -1 14 4
14 5 0 11 10 15 23 7 24 22 61 36 89 5 10 9 27 9 38 0 11 4 20 10 20 5 0 12
12 16 28 3 15 14 46 25 69 10 24 19 52 19 63 0 11 4 20 9 20 11 0 41 79 41
108 0 12 3 22 8 22 7 0 32 70 32 91 0 6 7 17 15 25 8 9 15 26 15 39 0 13 5 27
10 30 6 3 10 16 10 28 1 12 14 60 31 107 52 147 77 224 84 258 4 17 11 32 16
32 5 0 9 16 9 35 0 19 5 35 10 35 6 0 10 16 10 35 0 19 4 35 9 35 5 0 11 15
14 33 11 66 29 127 38 127 5 0 9 23 9 50 0 28 5 50 10 50 6 0 10 14 10 30 0
17 4 38 9 48 6 9 13 34 16 55 3 21 10 35 16 32 5 -4 9 17 9 50 0 35 4 54 10
50 6 -4 10 11 10 37 0 24 4 48 9 54 9 9 17 55 27 152 4 32 11 55 20 59 10 3
14 22 14 59 0 30 5 54 10 54 6 0 10 24 10 54 0 30 5 58 10 61 6 3 10 30 10 60
0 59 8 88 21 79 5 -3 9 24 9 60 0 37 4 66 10 66 6 0 10 29 10 68 0 37 4 72 9
77 8 9 13 48 27 220 6 81 13 107 24 100 6 -4 10 33 10 99 0 59 4 108 10 111
13 8 13 245 0 245 -6 0 -8 13 -5 30 4 22 2 28 -9 24 -7 -3 -16 2 -19 10 -4 9
-2 16 3 16 6 0 10 -5 10 -10 0 -6 5 -9 12 -8 7 2 15 -10 19 -27 7 -30 7 -30 8
-3 1 35 -40 83 -58 65 -9 -9 -14 -9 -21 3 -8 13 -10 12 -10 -2 0 -24 -31 -23
-75 2 -20 11 -44 20 -55 20 -10 0 -25 6 -32 13 -7 8 -19 12 -27 9 -9 -3 -11 0
-6 8 5 8 4 11 -3 7 -5 -4 -23 -1 -39 7 -36 18 -63 29 -148 61 -38 15 -88 33
-110 42 -22 8 -60 22 -85 30 -25 8 -64 23 -88 34 -24 11 -57 22 -73 26 -16 3
-29 9 -29 14 0 5 -8 9 -18 9 -10 0 -35 9 -57 20 -22 11 -46 20 -55 20 -9 0
-26 7 -39 16 -13 9 -31 18 -40 19 -9 1 -47 16 -85 34 -38 18 -78 34 -87 36
-10 2 -26 8 -36 13 -10 5 -61 24 -113 42 -52 18 -103 37 -114 42 -27 15 -149
60 -163 61 -7 0 -13 6 -13 13 0 8 -6 11 -14 8 -8 -3 -30 1 -48 9 -18 8 -54 23
-80 33 -27 11 -48 25 -48 32 0 14 -5 14 -50 -1z m60 -279 c8 -30 9 -31 15 -10
9 26 6 26 53 6 20 -10 42 -18 47 -18 6 -1 24 -8 40 -15 81 -37 115 -51 123
-51 4 0 46 -16 92 -35 46 -19 90 -35 98 -35 8 0 26 -6 40 -14 15 -8 72 -30
127 -51 55 -20 108 -41 118 -46 20 -11 124 -50 132 -50 2 0 37 -15 77 -34 40
-19 78 -35 85 -35 6 0 38 -11 70 -24 32 -14 103 -41 158 -62 55 -20 123 -46
150 -56 28 -11 69 -26 92 -35 24 -8 45 -19 49 -24 3 -5 15 -9 27 -9 12 0 31
-7 41 -15 24 -18 25 -95 2 -150 -19 -46 -20 -51 -3 -36 11 8 13 5 9 -19 -2
-16 -8 -27 -13 -24 -5 3 -9 -39 -9 -95 0 -61 -4 -101 -10 -101 -6 0 -10 -30
-10 -69 0 -39 -4 -73 -10 -76 -5 -3 -10 -28 -10 -54 0 -62 -10 -112 -21 -105
-5 3 -9 -22 -9 -55 0 -33 -4 -63 -10 -66 -5 -3 -10 -35 -10 -71 0 -35 -4 -64
-9 -64 -5 0 -12 -24 -14 -52 -11 -107 -26 -183 -36 -186 -6 -2 -11 -26 -11
-52 0 -27 -4 -52 -10 -55 -5 -3 -10 -28 -10 -56 0 -27 -4 -49 -10 -49 -5 0
-10 -12 -10 -27 0 -40 -11 -74 -21 -67 -5 3 -9 -18 -9 -45 0 -28 -4 -51 -10
-51 -5 0 -10 -20 -10 -44 0 -25 -4 -48 -10 -51 -5 -3 -10 -24 -10 -45 0 -21
-4 -42 -10 -45 -5 -3 -10 -19 -10 -35 0 -41 -10 -65 -21 -48 -5 8 -9 -7 -9
-39 0 -29 -4 -53 -10 -53 -5 0 -10 -16 -10 -35 0 -19 -4 -35 -10 -35 -5 0 -10
-13 -10 -29 0 -16 -7 -36 -15 -45 -8 -8 -15 -31 -15 -50 0 -20 -4 -36 -10 -36
-5 0 -10 -16 -10 -35 0 -19 -4 -35 -10 -35 -5 0 -10 -16 -10 -35 0 -19 -4 -35
-10 -35 -5 0 -10 -11 -10 -24 0 -14 -7 -31 -15 -40 -8 -8 -15 -28 -15 -45 0
-17 -4 -31 -10 -31 -5 0 -10 -11 -10 -24 0 -14 -4 -28 -10 -31 -5 -3 -10 -20
-10 -36 0 -20 -4 -29 -12 -26 -7 2 -12 14 -10 25 2 12 -2 22 -7 22 -13 0 -15
-46 -3 -54 14 -8 1 -68 -13 -62 -10 3 -12 -5 -8 -35 4 -25 2 -39 -6 -39 -6 0
-11 -8 -11 -17 0 -24 -23 -86 -37 -101 -7 -7 -13 -27 -13 -43 0 -18 -4 -28
-10 -24 -6 4 -10 -6 -10 -23 0 -18 -6 -32 -16 -36 -9 -3 -14 -13 -10 -21 3 -8
-1 -21 -9 -29 -8 -8 -15 -22 -15 -30 0 -9 -4 -24 -9 -34 -17 -32 -29 -67 -42
-114 -8 -27 -19 -48 -26 -48 -7 0 -13 -11 -13 -25 0 -14 -4 -25 -10 -25 -5 0
-10 -7 -10 -15 0 -8 -4 -23 -8 -33 -5 -9 -21 -44 -36 -77 -15 -33 -32 -68 -37
-77 -5 -10 -9 -25 -9 -33 0 -15 -6 -25 -37 -60 -7 -7 -13 -23 -13 -35 0 -12
-4 -19 -9 -16 -4 3 -14 -13 -21 -34 -7 -22 -17 -40 -22 -40 -4 0 -8 -9 -8 -20
0 -11 -4 -20 -8 -20 -9 0 -42 -70 -42 -88 0 -7 -4 -12 -9 -12 -5 0 -12 -11
-15 -25 -4 -14 -11 -23 -16 -20 -6 3 -10 -1 -10 -9 0 -9 -4 -16 -10 -16 -5 0
-10 -9 -10 -20 0 -12 -9 -30 -20 -42 -11 -12 -20 -29 -20 -39 0 -9 -7 -19 -15
-23 -8 -3 -15 -12 -15 -21 0 -8 -4 -15 -10 -15 -5 0 -10 -7 -10 -15 0 -8 -4
-15 -10 -15 -5 0 -12 -11 -16 -25 -3 -14 -10 -22 -15 -19 -5 3 -9 -1 -9 -10 0
-8 -11 -28 -25 -44 -13 -16 -22 -32 -18 -36 3 -3 1 -6 -5 -6 -7 0 -12 -6 -12
-14 0 -8 -7 -16 -15 -20 -8 -3 -15 -11 -15 -18 0 -8 -9 -20 -20 -28 -11 -8
-20 -18 -20 -23 0 -4 -10 -19 -22 -32 -34 -36 -44 -49 -58 -75 -17 -31 -35
-50 -49 -50 -6 0 -11 -7 -11 -15 0 -8 -7 -15 -16 -15 -8 0 -12 -4 -9 -10 3 -5
-1 -10 -10 -10 -9 0 -13 -4 -10 -10 3 -5 -1 -10 -9 -10 -9 0 -16 -4 -16 -10 0
-14 -114 -130 -128 -130 -7 0 -12 -4 -12 -10 0 -5 -7 -10 -15 -10 -8 0 -15 -5
-15 -11 0 -7 -11 -8 -30 -4 -26 6 -30 4 -30 -14 0 -13 7 -21 18 -22 11 0 12
-2 4 -6 -7 -3 -19 0 -27 7 -11 9 -20 7 -41 -6 -16 -11 -22 -20 -14 -22 7 -3
16 1 20 8 5 8 15 10 26 5 18 -8 18 -8 2 -12 -10 -3 -18 -9 -18 -14 0 -5 -7 -9
-15 -9 -9 0 -28 -11 -43 -25 -15 -14 -32 -25 -39 -25 -7 0 -13 -4 -13 -10 0
-5 -9 -10 -20 -10 -11 0 -20 -4 -20 -10 0 -13 -63 -13 -76 0 -14 14 -44 2 -44
-16 0 -9 12 -15 33 -15 30 -2 30 -2 5 -6 -16 -2 -28 -9 -28 -14 0 -5 -13 -9
-29 -9 -17 0 -33 -4 -36 -10 -3 -5 -26 -10 -51 -10 -27 0 -52 -6 -60 -15 -12
-12 -42 -15 -138 -15 -114 0 -124 -2 -144 -23 -11 -12 -25 -33 -31 -47 l-10
-25 0 28 c-1 15 4 27 9 27 6 0 10 7 10 15 0 13 -3 13 -20 3 -19 -12 -20 -19
-14 -75 4 -44 3 -63 -5 -63 -6 0 -11 -12 -11 -26 0 -16 -5 -24 -12 -21 -7 2
-11 15 -10 28 3 19 1 22 -9 12 -10 -10 -10 -18 -1 -38 15 -32 16 -75 2 -75 -5
0 -10 -14 -10 -30 0 -18 -6 -33 -15 -36 -10 -4 -15 -20 -15 -45 0 -21 -3 -39
-8 -39 -7 0 -32 -70 -32 -91 0 -6 -7 -17 -15 -25 -8 -9 -15 -26 -15 -40 0 -13
-4 -24 -10 -24 -5 0 -10 -16 -10 -35 0 -19 -4 -35 -10 -35 -5 0 -10 -15 -10
-34 0 -19 -4 -37 -9 -40 -4 -3 -11 -19 -15 -36 -3 -18 -10 -29 -16 -25 -6 4
-10 -10 -10 -35 0 -25 -4 -39 -10 -35 -6 4 -10 -7 -10 -24 0 -17 -4 -31 -10
-31 -5 0 -10 -15 -10 -34 0 -19 -5 -36 -11 -38 -6 -2 -13 -17 -14 -32 -2 -16
-8 -32 -13 -35 -5 -3 -12 -17 -15 -31 -3 -14 -11 -43 -17 -65 -6 -22 -14 -51
-17 -65 -3 -14 -12 -29 -19 -33 -8 -4 -14 -24 -14 -42 0 -19 -4 -35 -10 -35
-5 0 -10 -14 -10 -31 0 -47 -22 -30 -24 19 -1 23 -8 48 -15 55 -11 10 -12 3
-6 -38 4 -27 11 -58 16 -67 14 -25 11 -54 -6 -68 -9 -7 -15 -20 -14 -29 3 -30
-1 -42 -11 -36 -6 4 -10 -7 -10 -24 0 -17 -4 -31 -10 -31 -16 0 -12 70 5 76
18 7 19 41 1 73 -11 20 -14 21 -19 7 -4 -9 -2 -27 3 -41 5 -13 5 -27 1 -30 -5
-3 -12 2 -15 11 -9 23 -7 84 2 84 4 0 13 21 20 48 7 26 17 61 22 78 6 17 10
38 10 47 0 9 7 17 15 17 10 0 15 11 15 35 0 19 5 35 10 35 6 0 10 16 10 35 0
19 5 35 10 35 6 0 10 16 10 35 0 22 6 38 15 41 9 4 15 19 15 35 0 16 5 29 10
29 6 0 10 16 10 35 0 19 5 35 10 35 6 0 10 13 10 28 0 15 4 32 9 38 5 5 11 20
13 34 1 14 8 23 13 21 12 -5 8 -41 -6 -55 -12 -13 -11 -76 1 -76 6 0 8 -11 4
-25 -4 -16 -2 -25 5 -25 8 0 10 19 5 65 -5 46 -3 65 5 65 8 0 9 20 5 70 -5 46
-3 70 3 70 6 0 14 15 17 32 4 18 9 46 13 61 6 32 30 31 25 -1 -2 -12 2 -22 8
-22 8 0 9 19 4 60 -5 42 -3 60 5 60 6 0 11 16 11 35 0 19 5 35 10 35 6 0 10
18 10 40 0 22 5 40 10 40 6 0 10 9 10 19 0 11 7 26 15 35 8 8 15 28 15 45 0
17 4 31 9 31 5 0 11 12 13 28 2 15 7 25 13 22 5 -3 8 -13 7 -24 -6 -29 15 -9
21 21 3 16 8 38 12 51 5 14 3 22 -4 22 -6 0 -11 -11 -11 -25 0 -14 -4 -25 -10
-25 -11 0 -13 24 -4 57 4 13 10 20 15 17 5 -3 9 20 9 51 0 31 4 54 9 51 4 -3
6 -17 4 -31 -3 -13 -2 -37 2 -52 5 -21 8 -24 16 -12 14 23 10 66 -10 105 -10
19 -22 35 -25 35 -3 -1 -5 0 -4 2 1 1 -6 12 -16 24 -16 18 -23 19 -47 11 -22
-8 -32 -6 -44 6 -9 8 -24 20 -33 25 -9 5 -14 13 -9 17 4 4 15 -1 26 -10 25
-23 37 -4 15 23 -14 15 -22 18 -36 10 -16 -9 -24 -5 -44 18 -13 15 -24 33 -24
38 0 6 -9 17 -20 25 -11 8 -20 21 -20 30 1 11 4 10 16 -5 8 -11 20 -19 25 -18
5 2 9 -6 9 -17 0 -11 4 -20 8 -20 5 0 15 -11 22 -25 9 -17 17 -22 24 -15 6 6
3 15 -11 27 -11 10 -28 33 -37 50 -9 18 -21 33 -26 33 -6 0 -10 9 -10 20 0 11
-4 20 -8 20 -5 0 -14 10 -20 23 -10 18 -11 19 -9 3 1 -10 -4 -21 -12 -24 -11
-4 -13 2 -8 26 5 25 3 30 -8 25 -10 -3 -15 1 -15 12 0 9 -7 23 -15 31 -8 9
-15 26 -15 40 0 13 -4 24 -10 24 -5 0 -10 16 -10 35 0 19 -4 35 -10 35 -13 0
-13 83 1 97 11 11 2 103 -10 103 -4 0 -7 -25 -7 -56 1 -58 -10 -82 -18 -42 -9
44 -17 103 -23 166 -2 34 -9 62 -14 62 -5 0 -9 145 -9 350 0 201 4 350 9 350
5 0 11 39 14 88 8 135 25 256 37 260 5 2 10 30 10 63 0 32 4 59 9 59 5 0 11
28 14 63 7 89 23 161 36 165 6 2 11 23 11 47 0 24 5 47 10 50 6 3 10 28 10 55
0 27 5 52 10 55 6 3 10 24 10 46 0 21 5 39 10 39 6 0 10 13 10 29 0 37 10 62
21 55 5 -3 9 15 9 40 0 25 5 46 10 46 6 0 10 18 10 39 0 22 5 43 10 46 5 3 10
20 10 36 0 17 6 32 15 35 10 4 15 20 15 45 0 21 4 39 9 39 5 0 11 12 14 28 6
26 15 64 36 147 5 22 15 41 20 43 6 2 11 17 11 33 0 16 5 29 10 29 6 0 10 13
10 29 0 17 5 33 10 36 6 3 10 16 10 29 0 12 7 31 15 42 8 10 15 30 15 43 0 16
4 21 14 18 11 -4 13 3 9 34 -4 25 -2 39 6 39 6 0 11 8 11 18 0 27 27 96 39
100 6 2 11 19 11 38 0 19 5 34 10 34 6 0 10 12 10 26 0 16 5 24 13 21 6 -2 11
-13 9 -25 -2 -11 2 -23 8 -27 14 -8 13 21 -2 62 -9 26 -9 36 0 45 9 9 12 6 12
-15 0 -15 5 -27 10 -27 13 0 13 57 -1 65 -7 5 -5 15 5 31 9 13 16 31 16 39 0
9 6 15 13 12 6 -2 10 -13 9 -23 -3 -16 -1 -17 9 -6 11 10 11 16 1 32 -15 24
-16 57 -2 65 6 3 10 17 10 30 0 12 7 25 15 29 8 3 15 15 15 26 0 11 5 20 10
20 6 0 10 14 10 30 0 17 5 30 10 30 6 0 10 11 10 25 0 14 4 25 10 25 5 0 12
11 16 25 3 14 10 25 15 25 5 0 9 9 9 19 0 11 5 23 10 26 6 3 10 17 10 31 0 13
5 24 10 24 6 0 10 -9 10 -20 0 -11 5 -20 11 -20 7 0 9 8 4 23 -17 56 -17 67
-1 67 9 0 16 8 16 20 0 21 15 27 25 10 3 -5 1 -10 -6 -10 -10 0 -10 -3 -1 -12
18 -18 27 -1 14 27 -15 32 -15 55 -2 55 6 0 10 -9 10 -20 0 -11 5 -20 10 -20
6 0 10 11 10 25 0 14 5 25 10 25 6 0 10 11 10 25 0 14 -4 25 -10 25 -5 0 -10
7 -10 15 0 24 28 17 33 -7 3 -13 5 -3 4 22 -1 31 2 44 10 43 9 -2 11 6 6 27
-3 19 -1 30 6 30 6 0 11 8 11 19 0 10 7 24 15 31 9 7 14 19 11 27 -6 15 20 18
29 3 3 -5 1 -10 -6 -10 -10 0 -10 -3 -1 -12 18 -18 27 -1 14 27 -15 32 -15 55
-2 55 6 0 10 -12 10 -27 0 -21 3 -24 12 -15 10 10 10 17 0 32 -16 26 -15 53 1
47 6 -2 11 -10 10 -16 -2 -6 2 -11 7 -11 6 0 10 7 10 15 0 8 4 15 9 15 13 0
31 59 28 97 -1 18 2 31 8 30 5 -1 8 -10 7 -19 -2 -10 2 -18 7 -18 6 0 11 7 11
16 0 9 7 22 17 29 10 7 13 17 8 25 -6 10 -11 9 -21 -4 -8 -11 -14 -13 -19 -7
-3 6 1 18 9 27 9 8 16 22 16 30 0 8 5 14 11 14 6 0 8 -8 4 -19 -11 -36 14 -32
30 5 10 25 12 41 5 54 -12 23 -13 30 -1 30 5 0 12 -10 16 -22 l8 -23 4 23 c2
12 9 22 14 22 5 0 9 9 9 20 0 22 -16 27 -23 8 -2 -7 -8 -9 -13 -5 -5 5 -1 13
9 18 9 6 17 19 17 29 0 11 4 20 9 20 5 0 12 10 16 23 6 20 8 20 12 3 3 -10 0
-22 -7 -26 -7 -4 -10 -16 -7 -26 4 -17 6 -17 12 4 4 12 11 22 16 22 5 0 9 9 9
20 0 11 5 20 10 20 6 0 10 7 10 16 0 14 -3 14 -15 4 -8 -7 -15 -10 -15 -6 0 3
0 9 0 14 0 7 5 8 38 11 23 1 49 68 33 84 -15 15 -14 27 4 27 8 0 15 -6 15 -12
1 -7 12 10 26 39 14 28 39 64 57 80 30 26 32 32 29 83 -4 59 5 63 18 8z
m-1615 -7357 c4 -54 13 -64 21 -23 4 18 10 29 15 26 15 -9 10 -61 -6 -68 -9
-3 -15 -18 -15 -36 0 -16 -4 -30 -10 -30 -5 0 -10 -11 -10 -24 0 -14 -4 -28
-10 -31 -5 -3 -10 -19 -10 -36 0 -16 -4 -29 -10 -29 -5 0 -10 -8 -10 -17 0
-10 -7 -31 -15 -47 -8 -15 -15 -39 -15 -53 0 -15 -5 -23 -12 -21 -8 3 -12 19
-10 41 3 28 0 37 -12 37 -20 0 -20 -20 -1 -67 17 -40 20 -83 6 -83 -5 0 -11
-12 -13 -27 -2 -14 -9 -28 -17 -31 -9 -3 -11 2 -6 17 8 25 -2 61 -17 61 -6 0
-8 -14 -4 -37 16 -92 18 -116 8 -122 -5 -3 -11 -84 -13 -191 -3 -102 -3 -174
-1 -160 2 14 8 30 14 35 7 7 9 -3 5 -32 -3 -23 -2 -42 1 -41 19 2 32 -3 32
-13 0 -6 -9 -8 -20 -4 -23 7 -26 -1 -6 -20 10 -10 16 -11 25 -2 11 11 16 0 12
-32 -2 -7 2 -10 9 -6 7 4 43 -26 90 -74 43 -45 82 -81 85 -81 8 0 35 -27 35
-34 0 -3 -7 -6 -15 -6 -8 0 -15 3 -15 8 0 4 -13 16 -29 26 -16 11 -36 32 -46
48 -9 16 -20 26 -24 24 -9 -6 -43 31 -56 59 -7 18 -8 19 -12 2 -3 -10 8 -29
26 -46 17 -16 31 -34 31 -40 0 -6 6 -11 13 -11 7 0 19 -9 27 -20 8 -11 20 -20
27 -20 7 0 13 -4 13 -10 0 -12 37 -50 48 -50 4 0 26 -18 47 -40 21 -22 45 -40
52 -40 7 0 13 -3 13 -7 0 -5 9 -19 19 -33 16 -20 22 -22 35 -11 16 13 36 7 36
-11 0 -7 -6 -6 -15 2 -12 10 -15 10 -15 0 0 -18 66 -80 85 -80 21 0 19 9 -7
31 -13 10 -17 18 -10 19 7 0 31 -18 53 -40 22 -22 34 -40 27 -40 -8 0 -18 4
-24 10 -11 11 -54 2 -54 -11 0 -5 9 -9 20 -9 11 0 34 -9 52 -19 17 -11 35 -18
40 -15 4 3 20 -4 34 -15 25 -20 26 -21 5 -21 -11 0 -21 6 -21 13 0 9 -11 12
-36 9 -29 -4 -36 -1 -41 17 -4 15 -13 21 -34 21 -16 0 -29 5 -29 10 0 6 -16
10 -35 10 -19 0 -35 5 -35 10 0 6 -11 10 -25 10 -14 0 -28 7 -31 15 -4 9 -19
15 -35 15 -16 0 -29 5 -29 10 0 6 -13 10 -30 10 -16 0 -30 5 -30 10 0 6 -7 10
-17 10 -22 0 -93 32 -93 42 0 4 -13 8 -30 8 -16 0 -30 5 -30 10 0 6 -11 10
-25 10 -14 0 -25 5 -25 10 0 6 -11 10 -25 10 -16 0 -25 6 -25 15 0 10 -10 15
-30 15 -16 0 -30 5 -30 10 0 6 -11 10 -25 10 -14 0 -25 5 -25 10 0 6 -9 10
-20 10 -11 0 -28 4 -38 9 -9 5 -25 12 -36 15 -13 5 -17 13 -13 31 5 29 -6 40
-31 30 -15 -6 -15 -8 3 -15 19 -8 19 -9 -2 -9 -13 -1 -23 4 -23 9 0 6 -13 10
-30 10 -16 0 -30 5 -30 10 0 6 -9 10 -20 10 -11 0 -23 7 -26 15 -4 8 -17 15
-30 15 -13 0 -24 5 -24 10 0 6 -13 10 -30 10 -16 0 -30 5 -30 10 0 6 -8 10
-18 10 -10 0 -22 4 -28 9 -5 5 -18 11 -29 14 -15 4 -13 5 8 6 16 1 27 7 27 15
0 21 -20 30 -33 17 -14 -14 -77 -15 -77 -1 0 6 -11 10 -25 10 -14 0 -25 5 -25
10 0 6 -8 10 -19 10 -10 0 -24 7 -31 15 -7 8 -21 15 -31 15 -11 0 -19 5 -19
10 0 6 -11 10 -25 10 -14 0 -25 5 -25 10 0 6 -11 10 -25 10 -14 0 -25 5 -25
10 0 6 -7 10 -15 10 -8 0 -15 6 -15 14 0 9 7 12 20 9 11 -3 20 -9 20 -14 0 -5
11 -9 25 -9 14 0 25 5 25 10 0 6 -11 10 -24 10 -13 0 -26 5 -28 12 -3 7 -23
11 -51 10 -26 -1 -47 2 -47 8 0 5 -9 10 -19 10 -11 0 -23 5 -26 10 -3 6 -15
10 -26 10 -10 0 -19 4 -19 9 0 5 -8 12 -17 14 -14 4 -13 5 4 6 12 0 23 -3 25
-8 5 -16 128 -1 128 15 0 13 -93 20 -197 14 -18 -1 -33 3 -33 9 0 5 -8 12 -17
14 -10 3 6 5 35 6 28 0 52 -3 52 -8 0 -6 51 -12 113 -15 146 -6 282 -21 332
-35 62 -17 277 -14 301 4 10 8 29 15 42 15 12 0 22 5 22 11 0 8 13 9 40 5 39
-6 58 8 23 17 -14 4 -13 5 4 6 12 0 23 -5 26 -11 3 -9 7 -7 12 6 5 11 3 21 -6
27 -9 6 -10 9 -2 9 6 0 15 -5 18 -10 7 -12 25 -4 25 11 0 5 -8 9 -17 9 -14 0
-12 4 7 17 17 12 25 13 28 5 6 -20 20 -13 26 14 4 15 10 24 13 21 3 -4 15 5
26 19 15 19 18 34 13 64 -4 28 -2 39 9 44 9 3 15 18 15 37 0 26 3 29 14 20 11
-10 13 -4 8 34 -3 30 -1 45 7 45 6 0 11 14 11 30 0 17 5 30 10 30 6 0 10 -10
10 -22 0 -36 11 -68 21 -62 14 8 11 42 -7 69 -17 27 -12 101 7 90 5 -4 9 9 9
29 0 20 5 36 10 36 6 0 10 14 10 30 0 17 5 30 10 30 6 0 10 11 10 25 0 25 2
31 33 93 9 19 17 47 17 64 0 46 22 28 25 -21z"/>
<path d="M2685 6870 c-3 -6 -28 -10 -54 -10 -43 0 -97 -13 -173 -42 -23 -8
-28 -17 -28 -44 0 -27 8 -39 43 -66 44 -35 97 -58 135 -58 12 0 30 -4 40 -9
26 -14 199 -32 352 -37 74 -2 162 -9 196 -14 78 -13 665 -13 752 0 37 5 105
11 152 14 120 7 202 25 198 45 -2 9 -14 18 -28 19 -14 2 -29 8 -35 13 -5 5
-18 9 -30 9 -11 0 -29 6 -40 14 -11 7 -38 16 -60 20 -120 18 -164 26 -189 36
-15 5 -42 10 -60 10 -17 0 -36 4 -42 10 -5 5 -33 10 -62 11 -29 1 -55 6 -58
11 -3 4 -29 8 -59 8 -30 0 -56 4 -59 9 -3 4 -35 11 -72 14 -36 4 -71 10 -78
15 -6 5 -40 10 -76 11 -36 2 -70 7 -76 11 -14 13 -582 12 -589 0z"/>
<path d="M2367 6653 c-3 -5 -19 -44 -37 -88 -17 -44 -36 -90 -41 -102 -19 -47
-27 -69 -43 -123 -10 -30 -21 -64 -26 -75 -4 -11 -13 -38 -19 -60 -20 -72 -42
-149 -51 -181 -6 -17 -10 -40 -10 -52 0 -11 -4 -23 -9 -26 -5 -3 -11 -23 -14
-43 -3 -21 -10 -56 -15 -78 -6 -22 -16 -69 -22 -105 -6 -36 -15 -79 -21 -96
-5 -17 -9 -48 -9 -70 0 -22 -4 -44 -9 -49 -5 -6 -11 -32 -14 -60 -2 -27 -13
-115 -23 -195 -15 -112 -19 -204 -18 -405 1 -245 8 -333 35 -430 6 -22 16 -58
22 -80 18 -64 97 -213 140 -261 43 -48 147 -124 171 -124 8 0 16 -6 18 -12 7
-20 281 -22 318 -3 16 8 38 15 49 15 34 0 251 134 251 155 0 6 13 18 29 28 69
41 272 262 373 407 196 281 291 445 428 740 96 206 261 609 300 735 7 22 16
45 21 51 5 6 18 37 28 70 31 92 47 133 54 140 4 4 7 20 7 35 0 15 5 31 10 34
6 3 10 16 10 28 0 12 9 49 20 81 23 69 25 87 8 81 -29 -9 -192 -32 -323 -44
-135 -13 -540 -14 -690 -2 -60 5 -181 12 -267 16 -87 3 -172 11 -190 16 -18 5
-56 9 -85 9 -28 0 -55 5 -58 10 -3 6 -26 10 -50 10 -24 0 -45 5 -47 11 -2 6
-16 12 -31 12 -15 0 -32 6 -38 13 -6 8 -18 14 -26 14 -8 0 -34 14 -58 30 -24
17 -46 27 -48 23z"/>
<path d="M7470 9534 c0 -10 -5 -14 -15 -10 -9 3 -24 -2 -35 -11 -10 -9 -25
-18 -32 -19 -7 -2 -44 -15 -83 -29 -38 -15 -92 -34 -120 -42 -27 -9 -65 -22
-83 -30 -77 -34 -294 -103 -304 -97 -7 4 -8 2 -4 -4 4 -7 1 -12 -9 -12 -8 0
-23 -4 -33 -9 -9 -5 -35 -17 -57 -26 -22 -10 -47 -21 -55 -25 -9 -4 -31 -11
-50 -15 -19 -4 -41 -11 -50 -15 -8 -5 -67 -27 -130 -50 -63 -23 -124 -45 -135
-49 -11 -5 -38 -14 -60 -20 -22 -7 -49 -16 -60 -21 -11 -5 -40 -16 -65 -24
-142 -48 -230 -79 -265 -95 -22 -10 -51 -22 -65 -26 -14 -4 -30 -12 -36 -17
-7 -5 -25 -10 -42 -11 -16 -1 -28 -5 -25 -9 2 -5 -3 -8 -11 -8 -9 0 -16 6 -16
13 -1 6 -10 1 -21 -12 -11 -13 -17 -31 -15 -38 4 -9 1 -11 -6 -7 -8 5 -9 -6
-5 -41 4 -26 7 -93 7 -149 0 -58 4 -95 9 -88 10 17 21 -41 21 -120 0 -31 5
-60 10 -63 6 -3 10 -42 10 -86 0 -46 4 -79 10 -79 6 0 10 -35 10 -86 0 -47 4
-83 9 -80 12 8 21 -29 21 -86 0 -26 5 -50 10 -53 6 -3 10 -30 10 -60 0 -30 5
-57 10 -60 6 -3 10 -37 10 -76 0 -39 4 -69 10 -69 6 0 10 -25 10 -56 0 -30 4
-53 9 -50 12 8 21 -19 21 -65 0 -21 5 -39 10 -39 6 0 10 -27 10 -60 0 -33 4
-60 10 -60 6 0 10 -23 10 -51 0 -29 4 -48 9 -44 6 3 13 -11 16 -32 3 -21 10
-52 15 -69 6 -17 10 -47 10 -67 0 -20 5 -39 10 -42 6 -3 10 -22 10 -41 0 -19
5 -34 10 -34 6 0 10 -18 10 -41 0 -23 7 -47 15 -55 17 -18 20 -50 5 -59 -5 -3
-10 -29 -10 -56 0 -33 4 -48 11 -44 6 4 10 23 9 44 -3 51 -1 58 10 41 5 -8 10
-32 10 -52 0 -21 5 -38 10 -38 6 0 10 -18 10 -39 0 -22 -4 -43 -10 -46 -15 -9
-12 -62 5 -79 8 -8 15 -26 15 -40 0 -14 5 -26 10 -26 13 0 13 57 1 62 -8 3
-15 62 -12 93 3 23 21 -23 21 -52 0 -18 5 -33 10 -33 6 0 10 -13 10 -29 0 -17
5 -33 10 -36 6 -3 10 -22 10 -41 0 -19 5 -34 10 -34 13 0 13 -73 -1 -87 -12
-12 -1 -65 13 -57 6 4 7 19 4 35 -3 15 -1 31 3 34 10 6 21 -18 21 -46 0 -10 5
-19 11 -19 11 0 10 -17 -7 -97 -4 -23 -2 -33 6 -33 7 0 10 11 8 27 -2 15 2 28
10 30 7 3 12 -5 12 -20 0 -14 6 -37 14 -52 8 -15 12 -33 10 -40 -3 -6 2 -18
11 -25 8 -7 15 -21 15 -31 0 -11 5 -19 10 -19 6 0 10 -16 10 -35 0 -19 5 -35
10 -35 6 0 10 -14 10 -30 0 -18 6 -33 15 -36 8 -4 15 -14 15 -24 0 -11 5 -22
10 -25 6 -3 10 -22 10 -41 0 -19 5 -34 11 -34 7 0 9 -11 5 -32 -11 -56 -11
-63 -1 -65 6 -2 10 6 10 17 1 19 14 41 16 24 0 -5 2 -19 3 -32 2 -13 -1 -25
-6 -28 -12 -8 -10 -54 3 -54 5 0 9 10 7 22 -2 11 3 23 10 25 7 3 12 -4 12 -16
0 -12 5 -21 10 -21 14 0 13 -43 -2 -75 -9 -20 -9 -28 1 -38 10 -10 12 -7 9 12
-1 13 3 26 10 28 7 3 12 -5 12 -21 0 -15 7 -29 15 -32 8 -4 15 -14 15 -24 0
-11 5 -22 11 -25 6 -4 9 -23 6 -44 -2 -20 -2 -28 0 -18 6 25 23 21 23 -6 0
-28 28 -87 41 -87 12 0 12 -37 -1 -45 -6 -4 -10 5 -10 20 0 15 -4 24 -10 20
-5 -3 -10 -17 -10 -30 0 -20 4 -23 30 -20 24 3 30 0 30 -15 0 -11 5 -20 10
-20 6 0 10 -7 10 -16 0 -9 16 -45 35 -81 19 -36 35 -71 35 -79 0 -8 4 -14 9
-14 5 0 12 -11 15 -25 4 -14 11 -25 16 -25 6 0 10 -11 10 -25 0 -14 5 -25 10
-25 6 0 10 -5 10 -12 0 -19 33 -88 43 -88 4 0 5 -4 2 -10 -3 -6 1 -10 9 -10
10 0 16 -9 16 -25 0 -14 4 -25 10 -25 5 0 7 -12 4 -27 -2 -16 2 -39 10 -53 8
-14 19 -34 25 -45 12 -27 41 -52 41 -36 0 7 4 10 10 6 5 -3 7 -12 3 -20 -3
-11 -1 -13 10 -10 10 4 17 -2 21 -19 3 -14 11 -26 16 -26 6 0 10 -7 10 -15 0
-8 5 -15 10 -15 6 0 10 -6 10 -13 0 -8 11 -24 24 -36 14 -13 30 -36 36 -52 7
-16 17 -29 22 -29 6 0 8 -6 5 -14 -6 -15 19 -56 34 -56 12 0 39 -25 39 -37 0
-12 48 -70 98 -120 23 -23 42 -45 42 -48 0 -10 234 -239 276 -271 21 -16 45
-35 52 -42 24 -22 100 -72 111 -72 6 0 11 -4 11 -10 0 -5 8 -10 18 -10 13 0
14 -2 4 -9 -10 -6 -6 -10 15 -15 49 -12 143 -60 143 -73 0 -7 11 -13 25 -13
14 0 25 -4 25 -10 0 -5 16 -10 35 -10 19 0 35 -4 35 -9 0 -9 19 -13 130 -30
35 -5 66 -14 68 -20 2 -7 32 -11 73 -11 52 0 69 -3 69 -14 0 -7 7 -19 15 -26
8 -7 15 -25 15 -41 0 -16 5 -29 10 -29 6 0 10 -11 10 -25 0 -14 5 -25 11 -25
10 0 9 -41 -3 -104 -1 -10 3 -21 11 -24 10 -3 13 2 9 22 -3 14 -1 26 3 26 9 0
13 -15 10 -38 -1 -7 5 -15 14 -18 17 -7 21 -69 5 -79 -5 -3 -10 -13 -10 -21 0
-8 5 -14 10 -14 6 0 10 9 10 20 0 11 5 20 10 20 6 0 10 -11 10 -25 0 -14 5
-25 10 -25 6 0 10 -16 10 -35 0 -19 4 -35 10 -35 5 0 12 -16 16 -35 3 -19 10
-35 15 -35 5 0 9 -13 9 -29 0 -17 5 -33 10 -36 6 -3 10 -17 10 -31 0 -13 5
-24 10 -24 6 0 10 -11 10 -24 0 -13 8 -39 17 -58 31 -62 33 -68 33 -92 0 -14
5 -28 10 -31 6 -3 10 -15 10 -26 0 -11 7 -27 15 -35 8 -9 15 -26 15 -40 0 -13
5 -24 10 -24 6 0 10 -16 10 -35 0 -19 5 -35 10 -35 6 0 10 -11 10 -25 0 -25 2
-32 34 -92 9 -17 16 -41 16 -52 0 -12 5 -21 10 -21 6 0 10 -13 10 -29 0 -17 5
-33 10 -36 6 -3 10 -17 10 -29 0 -13 6 -29 13 -35 8 -6 20 -36 27 -66 7 -31
17 -58 22 -61 4 -3 8 -18 8 -34 0 -16 4 -31 9 -34 16 -10 19 -70 4 -81 -8 -6
-11 -18 -7 -28 9 -24 26 -21 22 5 -2 11 3 23 10 25 7 3 12 -5 12 -21 0 -13 5
-28 10 -31 6 -3 10 -22 10 -41 0 -19 5 -34 11 -34 11 0 8 -43 -6 -87 -6 -18
-3 -23 10 -23 13 0 16 6 11 25 -4 14 -2 25 4 25 15 0 24 -50 11 -63 -14 -14
-14 -57 0 -57 5 0 9 10 7 22 -2 11 3 23 10 25 8 3 12 -6 12 -26 0 -16 5 -33
10 -36 6 -3 10 -17 10 -31 0 -13 5 -24 10 -24 6 0 10 -18 10 -41 0 -22 4 -38
9 -35 14 9 21 -20 21 -89 0 -69 -7 -98 -21 -89 -5 3 -9 -9 -9 -26 0 -21 -4
-30 -12 -27 -7 2 -12 12 -10 21 3 14 0 14 -17 -3 -12 -12 -21 -28 -21 -36 0
-8 -4 -15 -10 -15 -5 0 -10 -4 -10 -9 0 -6 -22 -32 -50 -59 -27 -27 -47 -52
-43 -55 10 -11 23 -8 23 6 0 6 14 20 30 29 38 22 38 17 -1 -21 -21 -22 -37
-29 -52 -26 -14 3 -32 -4 -49 -20 -31 -27 -36 -45 -12 -45 14 0 14 -2 0 -15
-8 -8 -19 -15 -25 -15 -6 0 -11 -4 -11 -10 0 -5 -7 -10 -15 -10 -8 0 -15 -7
-15 -16 0 -12 -7 -14 -30 -9 -19 4 -30 3 -30 -4 0 -6 7 -11 16 -11 14 0 14 -1
0 -16 -9 -8 -22 -13 -29 -11 -9 4 -9 6 1 6 13 1 17 21 4 21 -11 0 -72 -57 -72
-68 0 -6 -11 -13 -25 -16 -14 -4 -25 -13 -25 -21 0 -19 16 -20 27 -2 11 18 55
47 71 47 11 0 10 -3 -2 -15 -8 -8 -18 -15 -23 -15 -5 0 -15 -9 -23 -20 -8 -11
-18 -20 -22 -20 -4 0 -23 -16 -42 -36 -19 -20 -41 -34 -48 -31 -10 4 -10 6 0
6 13 1 17 21 3 21 -12 0 -61 -51 -61 -63 0 -7 4 -7 12 1 18 18 33 15 18 -3 -7
-9 -19 -14 -27 -11 -22 9 -43 -5 -43 -28 0 -15 -3 -17 -9 -8 -6 10 -12 7 -25
-13 -15 -22 -15 -29 -4 -42 10 -13 10 -17 1 -20 -7 -3 -13 -11 -13 -19 0 -8
-7 -17 -15 -20 -8 -4 -15 -15 -15 -26 0 -11 -5 -18 -12 -15 -7 2 -12 11 -10
21 2 9 -2 16 -9 16 -7 0 -9 -8 -4 -22 14 -43 17 -110 6 -121 -14 -14 -14 -37
-1 -37 6 0 10 9 10 20 0 28 17 25 24 -5 4 -14 11 -25 17 -25 8 0 8 -5 -1 -15
-10 -12 -6 -13 23 -8 20 3 37 1 41 -6 9 -14 103 -15 111 -1 3 5 26 10 51 10
24 0 44 5 44 10 0 6 20 10 44 10 30 0 46 5 50 15 3 8 16 15 30 15 14 0 28 5
31 10 3 5 17 10 30 10 13 0 27 5 30 10 3 6 19 10 36 10 16 0 29 5 29 10 0 6
13 10 29 10 16 0 31 6 35 15 3 8 17 15 31 15 14 0 25 5 25 10 0 6 11 10 25 10
14 0 25 5 25 10 0 6 14 10 30 10 17 0 30 4 30 8 0 10 71 42 93 42 10 0 17 7
17 15 0 9 9 15 25 15 14 0 25 5 25 10 0 13 63 13 76 0 12 -12 44 -3 44 11 0 5
14 9 30 9 19 0 30 5 30 14 0 8 8 17 18 19 9 2 -1 3 -23 0 -22 -2 -45 -10 -51
-18 -13 -17 -54 -20 -54 -5 0 6 9 10 20 10 11 0 20 5 20 10 0 6 11 10 25 10
14 0 25 5 25 10 0 6 14 10 30 10 17 0 30 5 30 10 0 6 8 10 19 10 10 0 24 7 31
15 7 8 21 15 31 15 11 0 19 5 19 10 0 6 11 10 25 10 14 0 25 5 25 10 0 6 14
10 30 10 20 0 30 5 30 15 0 8 9 15 19 15 11 0 23 5 26 10 3 6 17 10 31 10 13
0 24 5 24 10 0 6 11 10 25 10 14 0 25 5 25 10 0 6 11 10 24 10 16 0 27 7 31
20 3 11 15 20 26 20 10 0 19 5 19 10 0 6 11 10 25 10 14 0 25 5 25 10 0 6 11
10 25 10 14 0 25 4 25 8 0 9 70 42 88 42 7 0 12 5 12 10 0 6 11 10 25 10 14 0
25 5 25 10 0 6 10 9 23 9 16 -1 18 -2 5 -6 -10 -2 -18 -11 -18 -20 0 -14 3
-13 25 1 13 9 33 16 45 16 11 0 20 5 20 10 0 6 9 10 20 10 11 0 20 7 20 15 0
17 -25 20 -35 5 -3 -5 -18 -9 -33 -9 -24 2 -24 2 -4 6 12 2 22 9 22 14 0 5 9
9 20 9 11 0 20 5 20 10 0 6 11 10 25 10 14 0 25 4 25 10 0 5 17 17 38 27 20 9
40 21 43 26 4 5 23 7 42 3 36 -7 63 9 30 17 -10 2 -3 2 15 0 27 -3 32 -1 32
16 0 11 -8 22 -17 24 -17 4 -17 5 0 6 9 0 17 6 17 12 0 8 13 9 38 4 35 -6 36
-6 17 9 -11 8 -15 16 -9 16 6 0 28 16 49 36 21 19 43 33 49 31 7 -3 19 0 28 7
13 9 15 25 10 85 -3 48 -9 74 -18 78 -8 3 -14 11 -14 19 0 8 -4 14 -8 14 -5 0
-7 13 -4 30 4 25 1 30 -17 30 -25 0 -28 -17 -3 -23 13 -4 12 -5 -5 -6 -12 0
-23 4 -25 10 -5 15 -451 14 -456 -1 -2 -6 -42 -10 -94 -10 -66 0 -93 -4 -104
-15 -11 -11 -38 -15 -99 -15 -61 0 -88 -4 -99 -15 -20 -21 -141 -21 -149 -1
-3 8 -18 16 -34 19 -27 4 -27 4 5 6 22 1 32 6 32 17 0 14 -8 16 -52 11 -29 -3
-43 -3 -30 1 22 7 22 8 -13 40 -19 19 -35 38 -35 43 0 5 -5 9 -10 9 -6 0 -9
-3 -9 -7 3 -20 -2 -27 -10 -14 -6 9 -5 24 2 38 8 18 7 27 -2 36 -10 10 -12 7
-9 -12 2 -14 -3 -26 -10 -29 -10 -3 -13 5 -10 34 1 22 7 42 11 45 10 7 -2 39
-15 39 -6 0 -8 -14 -6 -30 6 -41 -11 -50 -18 -10 -4 17 -11 33 -15 36 -5 3 -9
21 -9 40 0 19 -4 34 -10 34 -14 0 -12 46 2 70 10 16 10 22 -1 32 -10 11 -12
10 -9 -6 1 -10 -3 -21 -9 -23 -16 -6 -18 58 -3 73 12 12 3 44 -12 44 -5 0 -8
-10 -6 -22 2 -11 -3 -23 -9 -25 -7 -3 -13 3 -13 11 0 25 -24 96 -32 96 -5 0
-8 16 -8 36 0 19 -7 42 -15 50 -8 9 -15 26 -15 40 0 13 -4 24 -10 24 -5 0 -10
13 -10 29 0 17 5 33 10 36 13 8 13 55 -1 55 -5 0 -9 -10 -7 -22 2 -11 -3 -23
-9 -25 -9 -3 -13 6 -13 26 0 16 -4 33 -10 36 -5 3 -10 17 -10 30 0 12 -7 25
-15 29 -9 3 -15 18 -15 36 0 16 -4 30 -10 30 -5 0 -10 13 -10 29 0 17 5 33 10
36 6 4 10 -6 10 -24 0 -16 5 -33 10 -36 6 -3 10 -17 10 -31 0 -15 6 -24 15
-24 8 0 15 6 15 14 0 8 -7 21 -15 30 -8 8 -15 28 -15 45 0 17 -4 31 -10 31 -5
0 -10 14 -10 30 0 17 -5 30 -11 30 -6 0 -9 -12 -7 -27 2 -15 -2 -28 -9 -30 -9
-3 -13 6 -13 27 0 17 -7 38 -15 46 -8 9 -15 24 -15 34 0 10 -4 22 -10 25 -5 3
-10 22 -10 41 0 19 -4 34 -10 34 -5 0 -10 14 -10 30 0 17 -4 30 -10 30 -13 0
-13 46 1 72 13 24 3 72 -12 62 -7 -4 -9 -21 -6 -40 3 -19 2 -34 -3 -34 -10 0
-20 25 -20 51 0 10 -4 19 -10 19 -5 0 -10 14 -10 30 0 17 -4 30 -10 30 -5 0
-10 18 -10 40 0 22 -4 40 -10 40 -5 0 -12 16 -16 35 -3 19 -10 35 -14 35 -7 0
-10 10 -26 87 -3 18 -10 33 -15 33 -5 0 -9 16 -9 36 0 20 -4 33 -10 29 -5 -3
-12 12 -16 35 -4 22 -10 40 -15 40 -5 0 -9 16 -9 35 0 19 -4 35 -10 35 -5 0
-10 11 -10 25 0 14 -4 25 -10 25 -5 0 -10 14 -10 31 0 17 -7 37 -15 45 -8 9
-15 24 -15 35 0 10 -4 19 -10 19 -5 0 -10 18 -10 40 0 25 -5 40 -12 40 -9 0
-8 4 2 10 26 17 30 11 30 -35 0 -25 5 -45 10 -45 6 0 10 -11 10 -25 0 -14 5
-25 10 -25 6 0 10 11 10 25 0 14 -4 25 -10 25 -5 0 -10 15 -10 34 0 25 8 43
31 66 23 23 30 37 26 56 -4 21 -1 24 15 18 14 -4 29 5 54 31 34 37 43 60 23
67 -5 2 -7 11 -4 21 4 9 11 14 16 11 5 -3 7 -10 4 -15 -4 -5 -1 -9 4 -9 6 0
11 9 11 20 0 11 -4 20 -10 20 -5 0 -10 7 -10 15 0 8 7 15 15 15 9 0 15 9 15
21 0 12 5 19 13 16 6 -2 10 -13 9 -23 -3 -14 -1 -16 8 -8 9 9 9 17 1 32 -14
26 -14 52 -1 52 6 0 10 -13 10 -30 0 -16 5 -30 10 -30 6 0 10 11 10 24 0 14
-4 28 -10 31 -15 9 -12 47 3 42 6 -2 11 -14 9 -25 -2 -12 1 -22 6 -22 15 0 24
32 12 44 -5 5 -10 25 -10 44 0 31 2 33 16 21 10 -8 12 -15 5 -17 -17 -6 -13
-32 4 -32 18 0 19 13 3 56 -9 25 -9 39 -1 56 7 13 14 37 17 53 15 89 23 122
31 135 40 64 62 606 36 895 -22 253 -27 300 -36 314 -8 13 -19 88 -31 206 -3
28 -9 59 -14 70 -5 11 -11 40 -14 65 -7 73 -22 138 -33 152 -6 7 -14 32 -17
56 -15 107 -19 122 -27 128 -5 3 -9 23 -9 44 0 21 -4 42 -10 45 -5 3 -10 18
-10 33 -1 15 -7 38 -15 52 -8 14 -14 37 -15 52 0 15 -4 30 -10 33 -5 3 -10 19
-10 35 0 16 -4 32 -10 35 -5 3 -10 18 -10 33 0 15 -7 36 -15 46 -8 11 -15 32
-15 46 0 14 -4 30 -8 36 -5 5 -14 36 -21 69 -7 33 -17 69 -21 80 -5 11 -11 32
-14 48 -4 15 -11 27 -16 27 -6 0 -10 13 -10 29 0 17 -4 33 -10 36 -5 3 -10 17
-10 31 0 13 -4 24 -10 24 -5 0 -10 12 -10 28 0 15 -7 36 -15 46 -8 11 -15 30
-15 43 0 13 -4 23 -10 23 -5 0 -10 13 -10 29 0 17 -4 33 -10 36 -5 3 -10 17
-10 31 0 13 -4 24 -10 24 -5 0 -10 8 -10 19 0 10 -7 32 -15 47 -8 16 -15 37
-15 46 0 9 -4 20 -10 23 -5 3 -10 15 -10 26 0 10 -4 19 -10 19 -5 0 -10 11
-10 24 0 14 -7 31 -15 40 -8 8 -15 24 -15 35 0 12 -4 21 -10 21 -5 0 -10 8
-10 17 0 25 -52 153 -62 153 -4 0 -8 10 -8 23 0 12 -16 51 -35 87 -19 35 -35
70 -35 77 0 7 -4 13 -10 13 -5 0 -10 8 -10 19 0 10 -16 49 -35 87 -19 37 -35
74 -35 81 0 7 -4 13 -10 13 -5 0 -10 7 -10 15 0 8 -12 36 -27 62 -14 26 -30
56 -35 66 -4 9 -12 26 -18 37 -5 11 -10 27 -10 35 0 8 -4 15 -10 15 -5 0 -10
6 -10 14 0 17 -32 80 -42 84 -5 2 -8 12 -8 23 0 10 -4 19 -10 19 -5 0 -10 9
-10 20 0 11 -7 23 -15 26 -8 4 -15 15 -15 25 0 10 -4 19 -10 19 -5 0 -10 9
-10 21 0 11 -8 33 -18 47 -10 15 -27 44 -37 65 -11 20 -23 37 -27 37 -5 0 -8
8 -8 18 0 9 -11 30 -25 46 -14 16 -25 35 -25 43 0 7 -4 13 -10 13 -5 0 -10 5
-10 12 0 19 -33 88 -43 88 -4 0 -6 4 -3 9 3 5 -1 11 -9 15 -8 3 -15 15 -15 26
0 11 -5 20 -11 20 -6 0 -8 7 -5 15 3 9 -1 18 -9 22 -9 3 -15 10 -14 17 3 29
-3 41 -11 21 -6 -15 -9 -16 -9 -4 -1 9 -12 29 -26 45 -14 16 -25 37 -25 47 0
9 -4 17 -10 17 -5 0 -12 11 -16 25 -3 14 -10 25 -15 25 -5 0 -9 5 -9 11 0 6 9
8 20 4 11 -4 20 -2 20 4 0 6 -4 11 -10 11 -5 0 -10 7 -10 15 0 8 -4 15 -10 15
-5 0 -9 -5 -7 -11 1 -6 -4 -14 -12 -17 -10 -3 -12 2 -7 21 5 21 3 25 -9 21 -8
-4 -15 -1 -15 5 0 6 6 11 14 11 9 0 12 7 9 20 -6 22 -18 26 -29 8 -5 -7 -2 -9
7 -4 8 4 6 1 -3 -7 -10 -8 -14 -18 -10 -23 4 -5 -6 2 -23 16 -16 14 -32 26
-35 28 -2 2 1 7 9 11 11 7 11 12 0 30 -8 11 -17 21 -22 21 -4 0 -5 5 -2 10 4
6 11 8 16 5 5 -4 9 -1 9 5 0 6 -14 8 -39 4 -29 -5 -39 -3 -44 10 -3 8 -2 18 3
21 18 11 10 25 -15 25 -16 0 -25 -6 -25 -16z m-12 -306 c-11 -8 -10 -11 2 -15
25 -10 99 -92 106 -117 4 -16 11 -23 20 -19 8 3 14 0 14 -6 0 -6 -4 -11 -10
-11 -5 0 -10 -5 -10 -11 0 -6 6 -9 13 -6 19 7 41 -8 32 -23 -5 -8 -10 -9 -18
-1 -6 6 -15 11 -20 11 -5 0 -1 -7 7 -16 9 -8 16 -22 16 -30 0 -8 5 -14 11 -14
6 0 9 7 6 15 -4 8 -2 17 3 20 5 3 11 -4 15 -15 3 -11 10 -20 15 -20 6 0 8 -21
5 -47 -2 -27 -2 -40 1 -30 3 9 13 17 22 17 12 0 13 -3 4 -12 -15 -15 -16 -62
-1 -53 6 4 8 13 5 21 -3 7 -1 16 3 19 5 3 12 -3 16 -12 3 -10 1 -19 -4 -21
-14 -5 -14 -42 -1 -42 6 0 9 5 8 11 -2 6 2 13 9 16 7 3 10 -8 8 -34 -1 -21 -1
-30 2 -20 2 9 9 17 15 17 6 0 8 -10 4 -25 -4 -14 -3 -25 1 -24 26 4 33 -2 23
-20 -13 -26 -13 -64 0 -56 6 4 10 16 8 27 -2 12 3 23 10 25 15 6 16 -21 1 -49
-8 -15 -8 -23 1 -32 9 -8 11 -6 8 8 -1 10 3 21 10 23 7 3 12 -4 12 -16 0 -12
6 -21 15 -21 12 0 13 -4 5 -19 -15 -28 -12 -68 5 -75 9 -3 12 -12 8 -22 -4
-12 -3 -15 6 -10 7 5 10 14 7 22 -3 7 -1 16 3 19 13 8 23 -26 12 -39 -15 -18
11 -87 28 -77 10 7 9 13 -8 30 -12 12 -19 26 -16 31 10 16 25 12 25 -6 0 -9 8
-23 18 -30 14 -11 15 -16 5 -33 -14 -22 -18 -59 -5 -47 4 4 7 13 7 19 0 5 6
12 13 15 7 2 12 -5 12 -17 0 -12 5 -21 11 -21 7 0 9 -10 5 -25 -4 -16 -2 -24
5 -23 6 2 13 -2 16 -9 3 -7 -3 -9 -18 -6 -16 4 -20 2 -17 -8 3 -8 11 -13 18
-11 8 2 10 -6 5 -26 -4 -22 -2 -31 9 -35 9 -4 16 -13 16 -22 0 -8 5 -15 10
-15 6 0 10 7 10 15 0 8 5 15 11 15 6 0 8 -9 4 -20 -5 -16 -3 -19 11 -13 15 5
16 2 10 -28 -5 -26 -4 -31 6 -21 9 9 18 -1 40 -46 15 -31 28 -63 28 -69 0 -7
5 -13 10 -13 6 0 10 -10 10 -22 -1 -22 -1 -23 -15 -4 -9 11 -16 15 -16 8 -4
-29 -4 -32 5 -31 5 0 13 -5 17 -13 7 -11 9 -11 9 0 0 10 3 10 15 -2 17 -17 20
-46 5 -46 -5 0 -10 -9 -10 -20 0 -11 4 -20 10 -20 5 0 9 5 7 11 -1 6 4 14 11
16 7 3 12 -4 12 -16 0 -12 5 -21 10 -21 6 0 10 -11 10 -25 0 -14 4 -25 9 -25
12 0 22 -30 14 -43 -4 -6 -10 -2 -14 11 -5 12 -13 22 -19 22 -15 0 -12 -26 5
-40 8 -7 15 -21 15 -31 0 -11 5 -19 10 -19 6 0 10 -11 10 -25 0 -14 5 -25 11
-25 5 0 9 10 7 22 -2 11 3 23 11 26 14 5 12 -22 -5 -77 -5 -18 -4 -22 7 -19 8
3 13 11 11 17 -1 6 2 11 8 11 5 0 10 -9 10 -19 0 -10 7 -21 15 -25 8 -3 15
-15 15 -26 0 -11 5 -20 10 -20 13 0 13 -46 -1 -71 -14 -27 20 -109 34 -83 7
12 5 20 -6 29 -20 14 -26 47 -9 52 7 3 12 -4 12 -16 0 -12 5 -21 10 -21 6 0 8
-25 4 -68 -6 -58 -4 -70 10 -75 9 -4 13 -13 10 -22 -3 -8 -1 -15 5 -15 6 0 11
11 11 25 0 14 5 25 10 25 6 0 10 -11 10 -25 0 -14 5 -25 10 -25 6 0 10 -13 10
-29 0 -16 6 -31 15 -35 17 -6 21 -61 5 -71 -5 -3 -10 -17 -10 -31 0 -14 4 -22
10 -19 6 3 10 17 10 31 0 13 5 24 10 24 6 0 10 -8 10 -17 0 -9 5 -32 12 -50 9
-26 9 -41 1 -64 -12 -32 -8 -59 9 -59 6 0 8 12 5 30 -4 17 -2 30 3 30 6 0 10
-11 10 -25 0 -14 7 -28 15 -31 18 -7 20 -65 4 -81 -6 -6 -9 -21 -6 -34 4 -22
5 -21 12 9 4 17 12 32 17 32 10 0 8 -20 -8 -97 -5 -26 -3 -33 10 -33 18 0 22
25 6 35 -12 7 -4 25 11 25 5 0 9 -14 9 -31 0 -17 7 -37 15 -45 17 -17 20 -64
5 -64 -5 0 -10 -18 -10 -40 0 -22 5 -40 10 -40 6 0 10 -11 10 -24 0 -14 5 -28
10 -31 6 -4 10 6 10 24 0 16 -4 31 -9 33 -15 5 -17 61 -3 65 8 3 12 -6 12 -26
0 -16 5 -33 10 -36 6 -3 10 -22 10 -41 0 -21 4 -33 10 -29 6 4 10 -8 10 -30 0
-20 7 -43 15 -51 8 -9 15 -31 15 -50 0 -19 5 -34 10 -34 6 0 10 -16 10 -35 0
-19 5 -35 10 -35 6 0 10 -18 10 -41 0 -23 7 -47 15 -55 8 -9 15 -31 15 -50 0
-19 5 -34 10 -34 6 0 10 -22 10 -49 0 -28 5 -53 10 -56 6 -3 10 -24 10 -45 0
-21 5 -42 10 -45 6 -3 10 -26 10 -50 0 -24 5 -45 12 -47 6 -2 13 -31 16 -66 2
-34 8 -65 13 -68 5 -3 9 -32 9 -65 0 -33 4 -59 10 -59 6 0 10 -31 10 -74 0
-47 4 -76 11 -78 7 -2 16 -47 22 -108 13 -146 13 -746 -1 -850 -6 -47 -11 -89
-11 -93 -1 -5 -5 -5 -11 -2 -6 4 -10 -15 -10 -49 0 -31 -4 -56 -10 -56 -5 0
-10 -16 -10 -35 0 -19 -4 -35 -10 -35 -5 0 -10 -10 -10 -22 0 -13 -5 -30 -10
-38 -7 -11 -10 -4 -10 28 0 23 5 42 10 42 6 0 10 14 10 30 0 17 -4 30 -10 30
-5 0 -10 -12 -10 -26 0 -14 -7 -32 -15 -40 -17 -17 -20 -70 -5 -79 13 -8 13
-45 1 -45 -5 0 -11 -10 -13 -23 -2 -12 -9 -21 -16 -19 -9 1 -10 -6 -6 -23 4
-15 2 -25 -5 -25 -6 0 -11 -7 -11 -16 0 -21 -47 -77 -55 -64 -3 5 3 17 15 27
21 18 27 43 10 43 -5 0 -16 -16 -24 -35 -8 -19 -20 -35 -25 -35 -6 0 -11 -4
-11 -10 0 -19 -82 -110 -99 -110 -6 0 -11 -4 -11 -8 0 -5 -11 -15 -25 -22 -14
-7 -25 -22 -25 -32 0 -12 -4 -16 -12 -12 -8 5 -9 0 -6 -14 6 -23 -7 -31 -15
-9 -4 7 -6 6 -6 -4 -1 -9 -8 -20 -17 -23 -19 -7 -16 -67 5 -74 10 -3 12 3 6
26 -3 18 -2 33 4 37 7 4 11 -7 11 -29 0 -20 5 -36 10 -36 6 0 10 -16 10 -35 0
-19 4 -35 10 -35 5 0 12 -12 16 -27 3 -16 10 -38 16 -50 6 -12 7 -29 2 -40 -6
-15 -9 -12 -12 15 -2 17 -8 32 -14 32 -6 0 -8 -11 -4 -27 21 -85 24 -108 15
-111 -12 -5 -12 -52 0 -52 10 0 25 86 19 109 -2 8 3 16 10 18 8 3 12 -7 12
-31 0 -25 4 -36 15 -36 17 0 21 -55 5 -65 -13 -8 -13 -42 1 -51 7 -4 9 2 7 16
-2 13 3 25 10 27 8 3 12 -7 12 -31 0 -19 5 -38 10 -41 6 -3 10 -17 10 -31 0
-13 5 -24 11 -24 11 0 6 -88 -8 -135 -5 -17 -4 -18 11 -6 9 8 16 28 16 50 0
27 3 32 10 21 5 -8 10 -25 10 -37 0 -13 5 -23 10 -23 6 0 10 -16 10 -35 0 -19
5 -35 10 -35 6 0 10 -16 10 -35 0 -24 5 -35 15 -35 17 0 21 -59 6 -76 -14 -14
-25 -104 -13 -104 6 0 14 25 17 55 8 61 19 71 29 25 3 -17 9 -43 12 -60 4 -16
11 -30 17 -30 6 0 8 -21 4 -57 -3 -32 -1 -67 3 -78 7 -15 9 -10 11 25 l2 45
10 -37 c6 -21 14 -38 19 -38 4 0 8 -16 8 -35 0 -19 5 -35 10 -35 6 0 10 -16
10 -35 0 -23 5 -35 14 -35 7 0 16 -12 19 -28 4 -15 9 -42 13 -59 3 -18 10 -33
15 -33 5 0 9 -16 9 -35 0 -19 5 -35 10 -35 6 0 10 -16 10 -35 0 -24 5 -35 15
-35 19 0 19 -37 0 -83 -18 -42 -21 -97 -5 -81 6 6 12 28 14 49 2 22 9 41 15
43 16 5 14 -39 -4 -81 -19 -47 -19 -67 1 -67 12 0 15 9 12 37 -2 22 2 38 10
41 15 5 17 -64 2 -73 -5 -3 -10 -24 -10 -46 0 -21 -4 -39 -10 -39 -5 0 -10 14
-10 31 0 16 -4 28 -9 25 -10 -7 -21 17 -21 45 0 10 -4 19 -10 19 -5 0 -10 16
-10 35 0 19 -4 35 -10 35 -5 0 -10 16 -10 35 0 25 -4 35 -16 35 -8 0 -13 4 -9
9 3 5 -1 25 -9 43 -8 18 -20 54 -28 80 -7 27 -17 48 -22 48 -5 0 -6 27 -2 65
5 46 3 65 -5 65 -7 0 -9 -10 -6 -25 3 -16 0 -24 -7 -22 -15 5 -20 55 -7 71 14
17 27 101 14 93 -6 -4 -14 -27 -17 -52 -8 -51 -21 -59 -29 -17 -13 64 -21 87
-34 100 -7 8 -11 18 -7 23 3 6 -1 21 -10 34 -9 13 -16 36 -16 50 0 14 -4 25
-10 25 -13 0 -13 26 2 67 10 26 9 36 -1 45 -10 11 -12 7 -9 -16 2 -17 -2 -31
-9 -33 -8 -3 -13 5 -13 22 0 14 -7 33 -15 41 -8 9 -15 24 -15 35 0 10 -4 19
-10 19 -5 0 -10 18 -10 40 0 22 -4 40 -10 40 -5 0 -10 14 -10 31 0 20 -4 28
-11 23 -8 -5 -9 13 -4 65 5 49 4 71 -4 71 -6 0 -11 -17 -11 -37 0 -28 -3 -34
-10 -23 -5 8 -10 25 -10 38 0 12 -4 22 -10 22 -5 0 -10 14 -10 30 0 17 -4 30
-10 30 -5 0 -10 16 -10 36 0 19 -4 33 -9 30 -10 -7 -21 17 -21 45 0 10 -4 19
-10 19 -5 0 -10 16 -10 35 0 19 -4 35 -10 35 -5 0 -10 14 -10 30 0 17 -4 30
-10 30 -5 0 -10 14 -10 31 0 16 -4 28 -9 25 -11 -7 -21 17 -21 50 0 13 -5 24
-11 24 -7 0 -9 10 -5 25 5 19 3 23 -9 19 -8 -4 -17 1 -21 10 -5 14 -28 16
-160 16 -96 0 -154 4 -154 10 0 6 -20 10 -45 10 -25 0 -45 5 -45 10 0 6 -11
10 -25 10 -14 0 -28 7 -31 15 -4 9 -19 15 -35 15 -16 0 -29 5 -29 10 0 6 -9
10 -20 10 -11 0 -20 5 -20 10 0 6 -9 10 -20 10 -19 0 -29 6 -65 37 -7 7 -18
13 -24 13 -6 0 -11 5 -11 10 0 6 -6 10 -14 10 -7 0 -24 10 -38 22 -13 13 -46
41 -74 63 -69 56 -194 182 -187 189 4 3 -1 6 -11 6 -9 0 -22 11 -28 25 -6 14
-18 25 -25 25 -8 0 -11 5 -8 10 3 6 -1 10 -9 10 -9 0 -16 6 -16 14 0 7 -13 26
-28 43 -16 16 -37 44 -48 61 -10 18 -23 32 -29 32 -6 0 -22 19 -35 43 -13 23
-32 49 -41 58 -14 12 -17 25 -13 50 5 30 1 40 -27 69 -18 19 -29 30 -26 23 4
-6 3 -14 -2 -17 -11 -7 -21 16 -17 41 2 10 1 12 -1 6 -3 -7 -10 -13 -17 -13
-15 0 -38 58 -25 66 5 3 9 -4 9 -15 0 -11 5 -23 10 -26 16 -10 12 45 -4 61
-17 17 -27 18 -23 3 5 -24 -19 -18 -30 7 -13 28 -9 49 8 39 5 -4 9 -3 9 0 0
13 -24 50 -37 58 -7 5 -11 12 -8 18 4 5 1 9 -4 9 -14 0 -14 -27 -1 -35 6 -3
10 -16 9 -28 l0 -22 -11 23 c-6 12 -15 22 -20 22 -4 0 -8 14 -8 30 0 17 -4 30
-10 30 -5 0 -10 5 -10 11 0 6 7 9 15 5 18 -6 18 -7 4 33 -6 17 -15 31 -20 31
-5 0 -9 7 -9 15 0 8 -9 24 -20 35 l-20 20 0 -20 c0 -11 5 -20 10 -20 6 0 10
-9 10 -20 0 -11 -4 -20 -10 -20 -5 0 -10 9 -10 20 0 11 -5 20 -11 20 -11 0 -9
28 6 63 5 12 3 17 -9 17 -9 0 -16 -5 -16 -11 0 -5 5 -7 12 -3 7 4 8 3 4 -4
-10 -17 -26 -15 -26 3 0 9 -7 18 -15 21 -8 4 -15 17 -15 30 0 13 -4 24 -10 24
-5 0 -10 9 -10 20 0 11 -4 20 -10 20 -5 0 -10 11 -10 25 0 13 -6 28 -12 32
-15 9 -20 43 -7 43 5 0 9 9 9 20 0 11 -4 20 -10 20 -5 0 -9 -5 -7 -11 1 -6 -4
-14 -10 -16 -17 -6 -17 29 -1 45 9 9 9 15 0 24 -9 9 -12 7 -12 -10 0 -12 -4
-22 -10 -22 -13 0 -13 26 0 49 10 20 -15 101 -32 101 -4 0 -8 11 -8 25 0 14
-4 25 -10 25 -5 0 -10 -11 -10 -25 0 -14 5 -25 10 -25 6 0 10 -9 10 -20 0 -12
9 -30 20 -42 19 -20 19 -38 -1 -38 -5 0 -9 9 -9 19 0 10 -7 21 -15 25 -8 3
-15 15 -15 26 0 11 -5 20 -11 20 -8 0 -10 16 -7 48 3 26 3 39 1 30 -7 -29 -23
-20 -23 12 0 17 -4 30 -9 30 -5 0 -11 9 -14 20 -3 11 -2 20 3 20 4 0 10 -9 13
-20 3 -11 10 -20 16 -20 16 0 13 26 -4 40 -8 7 -15 21 -15 31 0 11 -5 19 -10
19 -6 0 -10 -7 -8 -16 2 -10 -3 -19 -9 -21 -7 -3 -13 3 -13 11 0 25 -24 96
-32 96 -5 0 -8 9 -8 21 0 11 -7 27 -15 35 -17 17 -20 64 -5 64 6 0 10 11 10
25 0 14 -5 25 -10 25 -6 0 -10 -7 -8 -16 2 -10 -3 -19 -9 -21 -8 -3 -13 4 -13
16 0 12 -4 21 -10 21 -14 0 -13 46 2 69 15 24 3 60 -15 41 -9 -10 -9 -13 1
-17 6 -3 10 -9 6 -14 -10 -16 -24 -9 -24 12 0 11 -7 27 -15 35 -8 9 -15 24
-15 34 0 10 -4 22 -10 25 -5 3 -10 22 -10 41 0 19 -4 34 -10 34 -5 0 -10 11
-10 24 0 13 -8 38 -17 55 -15 25 -16 34 -5 51 15 24 16 60 1 60 -5 0 -9 -10
-7 -22 5 -32 -19 -33 -25 -1 -4 15 -9 43 -13 61 -3 17 -10 32 -15 32 -5 0 -9
18 -9 39 0 24 -5 41 -14 44 -7 3 -16 20 -20 39 -4 18 -9 46 -13 61 -3 16 0 39
7 52 8 16 10 33 4 52 -8 27 -9 26 -12 -14 -4 -51 -22 -58 -22 -9 0 19 -5 36
-11 38 -11 4 -26 58 -36 131 -3 20 -9 37 -14 37 -5 0 -9 18 -9 40 0 22 -4 40
-10 40 -5 0 -10 16 -10 36 0 19 -7 42 -15 50 -8 9 -15 33 -15 55 0 21 -4 39
-10 39 -5 0 -10 20 -10 45 0 25 -4 45 -10 45 -5 0 -10 23 -10 51 0 29 -4 48
-9 44 -6 -3 -13 11 -16 32 -3 21 -8 49 -11 63 -3 14 -8 46 -11 73 -3 26 -9 47
-14 47 -5 0 -9 25 -9 55 0 30 -4 55 -10 55 -6 0 -10 29 -10 66 0 36 -4 63 -9
60 -11 -7 -21 28 -21 81 0 23 -4 45 -10 48 -5 3 -10 33 -10 66 0 33 -4 59 -10
59 -6 0 -10 32 -10 76 0 47 -4 73 -10 69 -10 -6 -14 21 -10 80 0 17 -6 47 -14
67 -10 22 -16 67 -16 108 0 40 -4 70 -10 70 -5 0 -10 9 -10 20 0 11 5 20 10
20 6 0 10 -5 10 -12 0 -6 2 -9 5 -6 3 3 -1 20 -9 39 -15 36 -20 77 -17 150 l1
45 52 17 c28 9 56 13 61 10 6 -3 7 -2 4 4 -3 5 49 28 116 50 196 67 339 118
389 141 26 12 52 22 58 22 5 0 18 4 28 9 9 5 46 19 82 31 36 12 79 28 95 35
31 14 183 68 200 71 6 1 62 21 125 44 63 23 140 50 170 60 49 16 180 66 235
90 42 18 50 17 53 -8 2 -14 -2 -29 -10 -34z m1713 -7400 c5 -10 9 -29 9 -43 0
-14 5 -25 10 -25 6 0 10 -16 10 -35 0 -19 5 -35 10 -35 13 0 13 -67 -1 -75 -6
-4 -9 -23 -7 -43 2 -22 -2 -37 -10 -40 -8 -2 -12 7 -12 28 0 17 -4 29 -9 25
-6 -3 -13 10 -17 30 -3 19 -10 38 -15 41 -14 8 -11 48 6 80 18 34 21 94 4 77
-6 -6 -13 -29 -16 -52 -3 -22 -10 -41 -14 -41 -13 0 -11 64 3 78 6 6 12 28 14
49 4 51 4 51 16 23 5 -14 14 -33 19 -42z m82 -240 c13 -76 20 -98 28 -98 5 0
9 -12 9 -26 0 -14 6 -32 14 -40 8 -7 12 -23 9 -34 -3 -12 0 -22 10 -25 11 -5
13 -17 10 -49 -4 -35 -1 -47 19 -71 14 -15 36 -29 49 -30 13 -1 23 -8 21 -15
-4 -20 19 -41 39 -35 10 4 29 -1 41 -9 18 -13 19 -16 5 -16 -9 0 -17 -5 -17
-11 0 -14 41 -48 58 -49 19 0 14 28 -5 33 -14 4 -12 5 5 6 12 0 22 -3 22 -9 0
-5 13 -10 29 -10 17 0 33 -4 36 -10 4 -6 63 -10 145 -10 82 0 141 4 145 10 3
6 46 10 96 10 53 0 89 4 89 10 0 6 40 10 101 10 76 0 104 4 115 15 11 11 36
15 87 14 63 -1 68 -3 45 -12 -16 -6 -28 -15 -28 -20 0 -4 -20 -5 -45 -1 -30 4
-45 3 -45 -5 0 -6 12 -12 28 -12 25 -2 25 -2 3 -6 -13 -3 -28 0 -34 6 -14 14
-167 15 -167 1 0 -10 22 -13 78 -10 18 1 39 -4 47 -10 8 -7 22 -10 30 -6 8 3
15 1 15 -5 0 -7 -13 -9 -36 -5 -19 4 -41 3 -47 -2 -7 -5 -30 -13 -51 -16 -41
-8 -85 -32 -99 -53 -4 -7 -17 -13 -27 -13 -11 0 -20 -4 -20 -9 0 -5 -10 -12
-22 -16 -22 -7 -22 -7 -3 -12 10 -3 21 0 23 6 2 6 15 11 28 11 13 0 24 5 24
10 0 6 11 10 25 10 14 0 25 -4 25 -10 0 -5 -9 -10 -20 -10 -11 0 -20 -4 -20
-10 0 -5 -11 -10 -25 -10 -14 0 -25 -4 -25 -10 0 -5 -11 -10 -25 -10 -14 0
-25 -4 -25 -10 0 -5 -9 -10 -19 -10 -10 0 -21 -7 -25 -15 -3 -8 -17 -15 -31
-15 -14 0 -25 -4 -25 -10 0 -5 -11 -10 -25 -10 -14 0 -25 -4 -25 -10 0 -5 -11
-10 -24 -10 -13 0 -26 -7 -30 -15 -3 -8 -15 -15 -26 -15 -11 0 -20 -4 -20 -10
0 -5 -11 -10 -25 -10 -14 0 -25 -4 -25 -10 0 -5 -13 -10 -30 -10 -16 0 -30 -4
-30 -10 0 -5 -12 -9 -27 -9 -24 2 -25 2 -5 6 12 2 22 9 22 15 0 6 -9 8 -22 3
-21 -6 -49 -12 -70 -14 -5 -1 -8 -8 -8 -16 0 -10 11 -16 33 -16 30 -2 30 -2 5
-6 -16 -2 -28 -9 -28 -14 0 -5 -11 -9 -25 -9 -14 0 -25 -4 -25 -10 0 -5 -15
-9 -32 -9 -24 1 -27 3 -10 6 12 2 22 9 22 14 0 14 -26 11 -40 -6 -6 -8 -15
-14 -18 -13 -19 2 -32 -3 -32 -13 0 -7 10 -9 25 -7 30 6 45 -9 18 -18 -10 -3
-26 -10 -35 -15 -10 -5 -27 -9 -38 -9 -11 0 -20 -4 -20 -10 0 -5 -11 -10 -25
-10 -14 0 -25 -4 -25 -10 0 -5 -11 -10 -24 -10 -13 0 -26 -7 -30 -15 -3 -8
-17 -15 -31 -15 -14 0 -25 -4 -25 -10 0 -5 -11 -10 -25 -10 -14 0 -25 -4 -25
-10 0 -5 -13 -10 -29 -10 -16 0 -31 -6 -35 -15 -3 -8 -14 -15 -25 -15 -11 0
-23 -4 -26 -10 -3 -5 -17 -10 -31 -10 -13 0 -24 -4 -24 -10 0 -5 -13 -10 -30
-10 -16 0 -30 -4 -30 -10 0 -5 -16 -10 -35 -10 -24 0 -35 -5 -35 -15 0 -9 -9
-15 -25 -15 -14 0 -25 -4 -25 -10 0 -5 -16 -10 -35 -10 -19 0 -35 -4 -35 -10
0 -5 -16 -10 -35 -10 -23 0 -35 -5 -35 -14 0 -8 -7 -17 -16 -20 -23 -9 -34 -7
-34 4 0 6 7 10 15 10 8 0 15 5 15 11 0 6 7 18 16 26 14 14 19 14 37 3 15 -9
22 -10 25 -1 2 6 17 11 33 11 16 0 29 5 29 11 0 7 -9 9 -21 6 -15 -4 -9 5 20
32 23 21 41 44 41 51 0 10 -3 10 -15 0 -9 -8 -15 -9 -15 -2 0 18 18 24 40 12
16 -9 20 -8 20 5 0 8 -7 15 -16 15 -14 0 -14 2 0 15 20 20 37 19 29 -2 -4 -11
-3 -14 5 -9 7 4 10 17 6 30 -4 17 1 25 20 36 14 7 26 17 26 22 0 4 7 8 17 8
13 0 12 -4 -6 -20 -36 -30 -20 -43 17 -14 18 15 31 32 28 39 -3 8 2 11 15 8
10 -3 19 0 19 6 0 6 7 11 15 11 8 0 15 9 15 19 0 11 6 21 13 24 6 2 9 8 4 12
-4 5 -13 3 -19 -3 -7 -7 -19 -12 -27 -11 -13 0 -13 2 -2 6 8 3 38 30 67 59 29
30 57 54 63 54 6 0 11 6 11 13 0 15 49 61 56 54 3 -3 -11 -22 -31 -42 -36 -39
-41 -50 -27 -59 4 -2 14 9 21 25 8 19 18 28 27 25 14 -5 19 15 15 62 -2 23 14
31 21 10 6 -17 38 14 38 36 0 19 -16 21 -23 4 -2 -7 -8 -9 -13 -5 -5 5 -1 13
9 18 11 7 17 22 17 44 0 19 5 35 10 35 6 0 10 58 10 154 0 93 -4 157 -10 161
-13 8 -13 45 2 100 12 45 5 71 -13 45 -5 -8 -7 -27 -5 -42 7 -37 -11 -46 -19
-10 -3 17 0 40 10 58 16 32 20 74 6 74 -10 0 -21 -34 -21 -67 0 -13 -4 -23
-10 -23 -15 0 -12 43 6 85 8 21 13 43 10 50 -5 13 2 25 15 25 4 0 9 -15 12
-32z"/>
<path d="M7628 6894 c-4 -3 -53 -10 -110 -14 -57 -4 -112 -10 -124 -13 -11 -3
-41 -6 -65 -8 -24 -1 -49 -7 -56 -12 -7 -5 -40 -11 -73 -14 -33 -3 -63 -10
-66 -14 -3 -5 -30 -9 -60 -9 -30 0 -54 -4 -54 -10 0 -5 -24 -10 -54 -10 -30 0
-58 -4 -61 -10 -3 -5 -24 -10 -46 -10 -22 0 -49 -5 -60 -10 -11 -6 -36 -13
-57 -15 -55 -7 -135 -26 -152 -36 -19 -11 -24 -13 -78 -30 -43 -12 -59 -25
-48 -36 3 -3 63 -14 133 -25 112 -16 189 -18 603 -17 261 1 500 5 530 10 30 5
109 14 175 19 66 5 145 14 175 20 30 5 72 12 92 16 21 3 43 12 49 20 6 8 17
14 24 14 6 0 31 14 53 30 33 24 42 36 42 60 0 20 -6 33 -17 37 -10 3 -25 12
-33 19 -9 7 -32 14 -53 16 -20 1 -37 5 -37 8 0 3 -37 7 -82 9 -46 1 -96 5
-113 8 -44 9 -370 15 -377 7z"/>
<path d="M8376 6663 c-4 -8 -81 -47 -149 -77 -21 -9 -51 -16 -67 -16 -16 0
-31 -4 -34 -9 -3 -5 -27 -9 -52 -9 -26 -1 -61 -6 -78 -11 -17 -6 -74 -12 -126
-15 -52 -3 -158 -9 -235 -15 -181 -13 -836 -13 -940 0 -44 5 -106 13 -137 16
-32 3 -58 9 -58 14 0 5 -7 9 -16 9 -16 0 -14 -18 6 -65 4 -11 16 -47 25 -80
20 -70 53 -171 65 -200 4 -11 21 -58 36 -105 15 -47 31 -89 36 -95 4 -5 8 -17
8 -27 0 -10 4 -26 9 -36 18 -34 41 -90 41 -101 0 -6 8 -25 18 -43 10 -18 22
-46 26 -63 4 -16 16 -50 27 -75 12 -25 24 -54 29 -65 4 -11 18 -42 30 -70 12
-27 29 -66 37 -85 17 -42 169 -356 185 -385 139 -244 273 -455 289 -455 4 0
34 -35 65 -77 70 -95 431 -455 473 -473 17 -7 31 -16 31 -20 0 -4 8 -10 18
-14 9 -3 31 -14 47 -25 17 -11 38 -20 48 -20 9 -1 25 -5 35 -10 21 -12 147
-31 201 -31 77 0 186 35 222 71 10 10 19 16 19 12 0 -14 121 112 137 142 41
77 83 165 83 175 0 6 4 18 9 28 10 19 24 70 41 157 18 89 24 459 10 600 -7 66
-14 148 -17 183 -3 34 -9 62 -13 62 -5 0 -10 33 -13 73 -2 39 -12 110 -21 157
-10 47 -22 108 -27 135 -6 28 -13 67 -16 88 -3 20 -9 40 -14 43 -5 3 -9 18 -9
34 0 16 -4 39 -9 52 -5 13 -17 52 -26 88 -9 36 -21 83 -27 105 -6 22 -14 49
-18 60 -26 71 -33 93 -37 118 -3 15 -9 30 -14 33 -5 3 -9 14 -9 25 0 10 -4 27
-9 37 -5 9 -21 49 -36 87 -15 39 -31 78 -36 87 -5 10 -9 25 -9 33 0 8 -4 15
-10 15 -5 0 -10 9 -10 20 0 19 -24 28 -34 13z"/>
</g>
</svg>
