<svg preserveAspectRatio="xMidYMid meet" data-bbox="67 67 291 291" viewBox="67 67 291 291" xmlns="http://www.w3.org/2000/svg" data-type="color" role="presentation" aria-hidden="true" aria-label=""><defs><style>#comp-lp1sz30f8 svg [data-color="1"] {fill: #FFFFFF;}
#comp-lp1sz30f8 svg [data-color="2"] {fill:#EDE8E3;}</style></defs>
    <g>
        <path fill="#FFFFFF" clip-rule="evenodd" fill-rule="evenodd" d="M358 212.5c0 80.357-65.143 145.5-145.5 145.5S67 292.857 67 212.5 132.143 67 212.5 67 358 132.143 358 212.5z" data-color="1"></path>
        <path d="M327.5 289.2c-.6-1.8-2.9-1.8-3.6-1.8-4.1 0-13.8 2.4-25.5 6.2-.7-.4-1.4-.7-2.2-.9-11.2-24.6-16-38.1-22.9-63.5 9.8-4.7 16.1-11.7 18.6-21 8.5-30.8-27.8-75.4-29.3-77.3l-1.5-1.8-48.6 17.4-48.6-17.4-1.4 1.8c-1.5 1.9-37.9 46.4-29.3 77.3 2.5 9.2 8.8 16.3 18.6 21-6.8 25.4-11.7 38.9-22.9 63.5-.8.2-1.5.5-2.2.9-11.6-3.8-21.3-6.2-25.5-6.2-.7 0-3 0-3.6 1.8l-.6 1.7 68.3 24.4.6-1.8c.5-1.4 1.7-4.7-25.3-15-.3-.7-.7-1.4-1.2-2.1 7-26.1 11.8-39.7 22.6-63.6 10.6 2.6 19.9 1.1 27.7-4.4 13-9.2 19.5-27.8 22.9-44.6 3.3 16.8 9.9 35.5 22.9 44.6 7.8 5.5 17.1 7 27.7 4.4 10.8 24 15.6 37.5 22.6 63.6-.5.7-.9 1.3-1.2 2.1-27 10.4-25.8 13.6-25.3 15l.6 1.8 68.3-24.4-.7-1.7zm-111.6-137 43-15.4c3.1 4 11.6 15.6 18.4 29.2-3.5 2.4-9.6 5.1-24.8-2.9-15.7-8.3-29.6 2.2-35.5 7.9-.8-5.8-1.1-10.9-1.3-14.6.2-1.7.2-3.1.2-4.2zm-7.6 15c-3 5-9.2 9.4-22.1.9-15.4-10.2-28.6-8.6-36.4-6.4 6.3-11.7 13.4-21.3 16.2-24.9l43 15.4c0 1.1.1 2.5.1 4.2 0 2.8-.3 6.5-.8 10.8z" fill="#EDE8E3" data-color="2"></path>
        <path d="M195.8 133.3c.7.7 1.7 1.1 2.6 1.1 1 0 1.9-.4 2.6-1.1 1.5-1.5 1.5-3.8 0-5.3l-8.8-8.8c-1.5-1.5-3.8-1.5-5.3 0s-1.5 3.8 0 5.3l8.9 8.8z" fill="#EDE8E3" data-color="2"></path>
        <path d="M203.7 126.4c.4 1.7 1.9 2.8 3.6 2.8.3 0 .6 0 1-.1 2-.5 3.2-2.6 2.6-4.6l-3.2-12.1c-.5-2-2.6-3.2-4.6-2.6-2 .5-3.2 2.6-2.6 4.6l3.2 12z" fill="#EDE8E3" data-color="2"></path>
        <path d="M216.7 129.1c.3.1.6.1 1 .1 1.6 0 3.1-1.1 3.6-2.8l3.2-12.1c.5-2-.6-4-2.6-4.6-2-.5-4 .6-4.6 2.6l-3.2 12.1c-.6 2.1.6 4.1 2.6 4.7z" fill="#EDE8E3" data-color="2"></path>
        <path d="M224 133.3c.7.7 1.7 1.1 2.6 1.1 1 0 1.9-.4 2.6-1.1l8.8-8.8c1.5-1.5 1.5-3.8 0-5.3s-3.8-1.5-5.3 0L224 128c-1.5 1.5-1.5 3.8 0 5.3z" fill="#EDE8E3" data-color="2"></path>
    </g>
</svg>