<svg preserveAspectRatio="xMidYMid meet" data-bbox="52.7 52.6 319.6 328.8" viewBox="52.7 52.6 319.6 328.8" xmlns:xlink="http://www.w3.org/1999/xlink" xmlns="http://www.w3.org/2000/svg" data-type="color" role="presentation" aria-hidden="true" aria-label=""><defs><style>#comp-lp1sz30d9 svg [data-color="1"] {fill: #FFFFFF;}
#comp-lp1sz30d9 svg [data-color="2"] {fill: #77726E;}</style></defs>
    <g>
        <path fill="#FFFFFF" clip-rule="evenodd" fill-rule="evenodd" d="M372.3 212.4c0 88.255-71.545 159.8-159.8 159.8-88.255 0-159.8-71.545-159.8-159.8 0-88.255 71.545-159.8 159.8-159.8 88.255 0 159.8 71.545 159.8 159.8z" data-color="1"></path>
        <defs>
            <path d="M212.5 52.6c88.2 0 159.8 70.5 159.8 157.4s-71.9 162.4-160.1 162.4C124 372.4 52.7 296.9 52.7 210S124.3 52.6 212.5 52.6z" id="17a9f2bb-7997-4e4e-afb1-2cf46eda7ec1_comp-lp1sz30d9"></path>
        </defs>
        <clipPath id="30a4007a-ac0c-4d5e-ab32-4886470a4b30_comp-lp1sz30d9">
            <use overflow="visible" xlink:href="#17a9f2bb-7997-4e4e-afb1-2cf46eda7ec1_comp-lp1sz30d9"></use>
        </clipPath>
        <g clip-path="url(#30a4007a-ac0c-4d5e-ab32-4886470a4b30_comp-lp1sz30d9)">
            <path d="m212.3 217.9-92.1 31.4v132h71.5V322c0-11.9 9.8-21.6 22-21.6 12.1 0 22 9.7 22 21.6v59.4h69.7v-132l-93.1-31.5zm-49.6 82.3h-20.9v-16.4c0-5.8 4.7-10.5 10.5-10.5s10.5 4.7 10.5 10.5v16.4zm121 0h-20.9v-16.4c0-5.8 4.7-10.5 10.5-10.5s10.5 4.7 10.5 10.5v16.4z" fill="#EDE8E3" data-color="2"></path>
        </g>
        <path fill="#EDE8E3" clip-rule="evenodd" fill-rule="evenodd" d="M200 93.9h9.1V81.3h6.8l-.1 12.6h9.2v6.7h-9.2V125l-3.3-1.8-3.4 1.8v-24.4H200v-6.7z" data-color="2"></path>
        <path d="m212.6 128.9-44.5 23.9.4 76.5 43.8-13.1 44.5 12.4.1-75.8-44.3-23.9zm10.6 60.4h-20.9v-16.4c0-5.8 4.7-10.5 10.5-10.5s10.5 4.7 10.5 10.5v16.4z" fill="#EDE8E3" data-color="2"></path>
    </g>
</svg>