<?xml version="1.0" standalone="no"?>
<!DOCTYPE svg PUBLIC "-//W3C//DTD SVG 20010904//EN"
 "http://www.w3.org/TR/2001/REC-SVG-20010904/DTD/svg10.dtd">
<svg version="1.0" xmlns="http://www.w3.org/2000/svg"
 width="1080.000000pt" height="1080.000000pt" viewBox="0 0 1080.000000 1080.000000"
 preserveAspectRatio="xMidYMid meet">
<metadata>
Created by potrace 1.16, written by Peter Selinger 2001-2019
</metadata>
<g transform="translate(0.000000,1080.000000) scale(0.100000,-0.100000)"
fill="#000000" stroke="none">
<path d="M5180 10503 c0 -148 -3 -278 -6 -290 l-6 -23 -254 0 c-196 0 -254 -3
-255 -12 -5 -62 -3 -155 5 -165 6 -10 69 -13 256 -13 217 0 249 -2 254 -16 3
-9 6 -279 6 -600 l0 -585 -72 -77 c-40 -42 -95 -99 -123 -127 -27 -28 -153
-158 -280 -290 -321 -334 -504 -523 -615 -636 -52 -53 -165 -170 -250 -260
-85 -89 -198 -206 -250 -260 -52 -53 -185 -190 -295 -305 -110 -115 -246 -256
-302 -314 -104 -107 -116 -128 -93 -171 16 -29 120 -27 193 5 63 28 108 73
747 737 91 94 207 215 258 268 52 53 175 181 275 284 100 103 225 232 277 286
52 54 178 185 280 292 267 278 347 359 358 359 6 0 34 -25 63 -56 30 -31 95
-98 144 -149 50 -50 162 -167 250 -259 189 -198 276 -288 571 -593 306 -315
375 -386 564 -584 91 -94 217 -225 280 -289 63 -65 138 -142 167 -172 105
-111 171 -148 268 -148 53 0 66 3 75 19 25 48 14 65 -147 232 -87 90 -183 189
-213 220 -30 31 -147 153 -260 270 -113 117 -230 239 -260 270 -30 31 -139
144 -242 250 -102 107 -228 237 -280 290 -51 53 -178 185 -283 294 -104 108
-221 230 -260 269 -38 39 -128 132 -200 206 l-130 134 -3 589 c-2 434 0 593 9
603 9 11 59 14 254 14 202 0 245 2 255 15 7 8 10 20 7 27 -2 7 -1 38 3 68 5
39 3 58 -6 67 -9 10 -72 13 -258 13 -232 0 -246 1 -256 19 -6 12 -10 123 -10
290 l0 271 -105 0 -105 0 0 -267z"/>
<path d="M5170 6995 c-8 -2 -49 -9 -90 -15 -41 -7 -83 -17 -93 -22 -10 -5 -27
-11 -39 -13 -35 -7 -191 -88 -238 -123 -42 -32 -132 -116 -155 -144 -44 -55
-98 -150 -121 -215 l-29 -78 -3 -917 c-2 -877 -2 -918 15 -918 10 0 35 9 56
20 20 11 43 20 50 20 8 0 21 8 30 18 15 16 17 100 19 882 3 844 4 866 24 915
45 111 78 162 157 238 130 127 285 192 484 204 125 7 229 -8 338 -50 108 -41
177 -86 260 -171 77 -79 134 -181 154 -274 8 -36 11 -314 11 -886 0 -794 1
-834 18 -849 10 -10 22 -17 26 -17 5 0 31 -11 59 -25 29 -15 54 -22 59 -17 5
5 7 409 6 923 l-3 914 -28 69 c-43 109 -94 188 -174 269 -39 39 -149 127 -159
127 -3 0 -26 12 -52 28 -54 31 -149 67 -237 88 -55 13 -311 28 -345 19z"/>
<path d="M7060 6615 c0 -3 0 -554 0 -1225 0 -671 0 -1225 0 -1231 0 -5 24 -21
53 -33 29 -13 59 -31 66 -40 7 -9 24 -16 37 -16 l24 0 0 1200 0 1200 -22 9
c-13 5 -52 39 -87 75 -60 63 -71 72 -71 61z"/>
<path d="M3418 6536 l-68 -72 0 -1197 c0 -658 4 -1197 8 -1197 4 0 42 17 82
38 l75 37 3 1233 c2 1412 14 1280 -100 1158z"/>
<path d="M5250 4807 c-61 -27 -171 -77 -233 -106 -38 -17 -70 -31 -72 -31 -4
0 -41 -17 -220 -100 -33 -15 -94 -42 -135 -60 -41 -18 -109 -48 -150 -67 -41
-19 -88 -41 -105 -48 -16 -8 -65 -30 -108 -49 -42 -20 -80 -36 -83 -36 -3 0
-82 -35 -177 -79 -95 -43 -194 -89 -222 -101 -27 -12 -78 -35 -113 -51 -35
-16 -65 -29 -67 -29 -2 0 -36 -15 -77 -34 -40 -19 -109 -50 -153 -69 -44 -19
-116 -51 -160 -72 -44 -20 -98 -45 -120 -54 -47 -21 -189 -85 -298 -135 -42
-20 -79 -36 -82 -36 -5 0 -115 -50 -190 -85 -45 -22 -114 -53 -215 -97 -95
-42 -138 -61 -165 -74 -16 -7 -127 -56 -245 -109 -118 -53 -265 -119 -327
-147 -61 -27 -114 -57 -118 -65 -3 -9 1 -23 9 -32 22 -24 215 -28 318 -6 90
18 143 39 476 191 29 13 57 24 61 24 12 0 74 33 82 43 3 4 34 18 70 31 110 42
129 50 129 58 0 4 8 8 18 8 10 0 22 4 28 8 5 5 25 15 44 22 19 8 71 30 115 50
44 20 96 44 115 52 19 9 70 32 113 52 42 20 80 36 82 36 5 0 55 23 223 101 45
22 85 39 87 39 3 0 38 15 78 34 40 19 95 44 122 56 28 12 64 28 80 35 17 8 75
34 130 58 55 25 129 58 165 74 178 81 306 138 310 138 3 1 19 8 35 17 17 9 59
28 95 43 35 15 92 40 125 55 172 80 326 150 330 150 3 0 37 15 77 34 40 18 96
44 123 56 28 12 77 34 110 50 120 54 129 55 198 25 109 -48 170 -76 255 -116
45 -21 85 -39 88 -39 3 0 37 -15 77 -34 72 -33 125 -58 215 -97 26 -12 74 -34
107 -49 155 -73 201 -93 211 -95 6 -2 40 -16 75 -32 178 -82 317 -143 329
-143 7 0 21 -6 29 -13 9 -7 41 -23 71 -36 30 -12 78 -33 105 -46 134 -63 227
-105 295 -135 145 -63 228 -100 348 -156 51 -24 95 -44 97 -44 2 0 39 -16 82
-35 43 -20 87 -40 98 -45 43 -18 133 -60 205 -93 41 -19 102 -46 135 -60 33
-14 94 -41 135 -60 461 -213 517 -231 698 -225 124 5 142 12 126 54 -7 20 -34
36 -134 81 -69 30 -162 72 -208 94 -46 21 -85 39 -88 39 -3 0 -40 16 -82 36
-42 20 -117 54 -167 75 -126 55 -121 53 -328 148 -49 23 -91 41 -93 41 -2 0
-32 14 -66 30 -34 17 -68 30 -76 30 -9 0 -23 6 -31 14 -9 7 -50 28 -91 46 -41
17 -112 49 -158 71 -46 21 -85 39 -88 39 -5 0 -36 14 -189 85 -38 18 -115 51
-170 75 -55 24 -131 58 -170 76 -38 18 -90 41 -115 52 -37 16 -294 132 -505
227 -124 56 -144 65 -148 65 -3 0 -62 27 -131 60 -70 33 -129 60 -131 60 -5 0
-150 65 -372 166 -316 144 -308 142 -353 121z"/>
<path d="M4275 3185 c-131 -22 -283 -73 -347 -117 -14 -10 -29 -18 -33 -18
-13 0 -109 -72 -158 -119 -47 -44 -129 -144 -154 -186 -67 -115 -93 -206 -100
-355 -8 -158 15 -249 101 -405 65 -117 91 -143 487 -476 63 -54 166 -141 229
-194 63 -53 129 -109 145 -123 56 -50 309 -264 384 -327 14 -11 59 -49 100
-85 210 -181 344 -290 356 -290 12 0 262 204 380 309 22 20 65 56 94 81 30 25
62 52 70 61 9 8 72 62 141 120 68 57 188 158 265 224 78 66 237 201 354 299
117 98 238 205 270 236 51 50 121 139 121 154 0 2 13 26 29 53 68 110 98 313
70 469 -55 307 -299 554 -654 662 -128 39 -363 54 -489 31 -122 -22 -241 -60
-329 -104 -96 -49 -103 -54 -229 -157 -45 -38 -88 -68 -95 -68 -7 0 -32 17
-56 38 -81 74 -188 149 -271 190 -198 98 -454 134 -681 97z m391 -269 c151
-43 210 -83 556 -383 27 -24 55 -43 62 -43 7 0 100 74 206 164 200 172 283
225 405 262 77 23 334 26 410 5 96 -27 227 -98 296 -161 81 -73 119 -128 159
-231 25 -67 30 -92 30 -170 0 -77 -4 -102 -30 -165 -51 -129 -96 -179 -334
-379 -66 -55 -151 -127 -190 -161 -39 -33 -210 -179 -381 -323 -170 -145 -368
-313 -439 -374 -89 -76 -133 -107 -141 -101 -7 5 -41 34 -77 64 -86 73 -378
320 -403 341 -29 25 -254 217 -365 312 -52 45 -167 142 -255 216 -269 227
-286 245 -343 359 -44 89 -47 99 -50 193 -5 106 8 159 64 271 28 55 127 160
196 207 84 56 207 104 298 115 68 8 276 -3 326 -18z"/>
<path d="M2100 3059 c-46 -22 -88 -45 -92 -52 -4 -7 -7 -622 -5 -1367 l2
-1355 103 -3 c56 -1 102 1 102 5 0 4 0 638 0 1408 0 1126 -2 1400 -12 1402 -7
1 -51 -16 -98 -38z"/>
<path d="M8372 1694 l3 -1409 89 -3 c50 -2 96 -8 104 -14 10 -9 16 -8 23 3 5
8 8 571 6 1378 l-2 1364 -95 39 c-52 22 -103 42 -113 45 -16 5 -17 -65 -15
-1403z"/>
<path d="M10 55 l0 -45 5365 0 5365 0 0 45 0 45 -5365 0 -5365 0 0 -45z"/>
</g>
</svg>
