<?xml version="1.0" standalone="no"?>
<!DOCTYPE svg PUBLIC "-//W3C//DTD SVG 20010904//EN"
 "http://www.w3.org/TR/2001/REC-SVG-20010904/DTD/svg10.dtd">
<svg version="1.0" xmlns="http://www.w3.org/2000/svg"
 width="1080.000000pt" height="1080.000000pt" viewBox="0 0 1080.000000 1080.000000"
 preserveAspectRatio="xMidYMid meet">
<metadata>
Created by potrace 1.16, written by Peter Selinger 2001-2019
</metadata>
<g transform="translate(0.000000,1080.000000) scale(0.100000,-0.100000)"
fill="#000000" stroke="none">
<path d="M6640 10779 c-13 -5 -32 -16 -40 -24 -9 -8 -34 -21 -56 -28 -38 -14
-94 -46 -144 -85 -14 -11 -36 -23 -50 -27 -14 -4 -37 -18 -52 -31 -15 -12 -41
-25 -57 -29 -16 -3 -35 -13 -42 -21 -12 -14 -145 -91 -247 -142 -25 -13 -57
-32 -70 -43 -14 -10 -32 -19 -41 -19 -10 0 -30 -13 -46 -30 -16 -16 -36 -30
-44 -30 -9 0 -54 -23 -101 -51 -47 -28 -102 -60 -123 -72 -21 -12 -60 -34 -85
-49 -26 -15 -62 -34 -80 -42 -19 -9 -47 -27 -63 -40 -16 -14 -39 -28 -51 -32
-13 -3 -35 -15 -49 -25 -15 -10 -62 -37 -105 -60 -44 -23 -92 -52 -107 -65
-16 -13 -35 -24 -43 -24 -8 0 -33 -13 -56 -30 -22 -16 -46 -30 -53 -30 -7 0
-23 -8 -36 -18 -13 -10 -40 -24 -59 -32 -19 -7 -42 -19 -51 -27 -28 -24 -131
-83 -144 -83 -7 0 -29 -13 -50 -30 -21 -16 -43 -30 -50 -30 -6 0 -29 -13 -51
-30 -21 -16 -46 -30 -55 -30 -9 0 -24 -9 -34 -20 -9 -10 -34 -24 -54 -31 -20
-6 -45 -19 -56 -29 -11 -9 -35 -23 -53 -30 -18 -7 -38 -20 -45 -30 -7 -9 -28
-22 -48 -29 -20 -6 -45 -21 -54 -31 -10 -11 -26 -20 -35 -20 -9 0 -37 -13 -61
-30 -24 -16 -51 -30 -60 -30 -8 0 -28 -13 -44 -30 -16 -16 -36 -30 -45 -30 -9
0 -34 -13 -56 -30 -21 -16 -47 -30 -56 -30 -9 0 -29 -11 -45 -24 -15 -13 -39
-27 -53 -31 -14 -4 -38 -18 -53 -31 -16 -13 -34 -24 -41 -24 -7 0 -27 -11 -46
-25 -19 -14 -41 -25 -50 -25 -8 0 -31 -13 -50 -29 -19 -15 -45 -31 -58 -35
-12 -4 -34 -18 -50 -30 -15 -13 -38 -27 -51 -31 -12 -4 -39 -18 -58 -31 -20
-13 -40 -24 -45 -24 -6 0 -23 -11 -40 -25 -16 -14 -35 -25 -42 -25 -7 0 -30
-13 -51 -30 -21 -16 -43 -30 -50 -30 -7 0 -29 -11 -49 -25 -20 -14 -43 -25
-50 -25 -7 0 -30 -13 -52 -30 -21 -16 -46 -30 -54 -30 -8 0 -55 -27 -104 -60
-48 -33 -94 -60 -100 -60 -7 0 -23 -11 -36 -25 -13 -14 -33 -25 -44 -25 -12 0
-39 -12 -61 -27 -48 -33 -103 -65 -170 -98 -27 -14 -70 -38 -95 -55 -25 -16
-65 -41 -90 -55 -25 -14 -67 -39 -95 -55 -27 -16 -72 -40 -100 -55 -106 -56
-132 -71 -162 -92 -17 -13 -37 -23 -45 -23 -8 0 -32 -13 -54 -30 -21 -16 -45
-30 -52 -30 -8 0 -32 -13 -55 -29 -82 -56 -141 -91 -152 -91 -7 0 -20 -8 -29
-19 -9 -10 -30 -21 -46 -25 -16 -3 -39 -16 -51 -30 -11 -13 -36 -27 -53 -30
-18 -4 -43 -17 -56 -31 -13 -14 -29 -25 -36 -25 -17 0 -144 -68 -169 -90 -11
-10 -31 -21 -45 -25 -14 -4 -34 -15 -45 -25 -11 -10 -40 -28 -65 -40 -76 -35
-104 -52 -130 -75 -14 -12 -40 -27 -58 -33 -18 -6 -46 -20 -61 -32 -16 -11
-36 -20 -44 -20 -9 0 -28 -11 -44 -24 -15 -13 -41 -31 -58 -40 -61 -33 -121
-84 -172 -144 -51 -59 -53 -65 -55 -125 -6 -165 14 -238 107 -392 19 -32 42
-79 51 -104 10 -25 27 -59 39 -76 12 -16 25 -40 29 -53 4 -12 40 -82 79 -155
40 -73 104 -193 142 -268 39 -75 81 -159 95 -185 14 -27 32 -60 41 -74 10 -14
20 -36 24 -50 4 -14 15 -34 25 -45 10 -11 21 -34 25 -52 3 -18 15 -43 26 -57
16 -20 85 -147 136 -251 8 -16 19 -39 26 -50 16 -29 109 -207 159 -305 23 -47
55 -105 70 -129 16 -25 28 -52 28 -60 0 -9 9 -27 20 -41 17 -22 71 -122 133
-249 10 -20 22 -43 27 -51 34 -55 80 -147 80 -162 0 -9 14 -33 31 -52 17 -20
28 -40 24 -46 -4 -6 -2 -17 4 -24 6 -7 9 -22 5 -32 -4 -14 -3 -15 4 -6 7 11
14 6 28 -20 11 -18 27 -46 37 -63 10 -16 25 -46 33 -65 8 -19 19 -42 24 -50 6
-8 18 -31 27 -50 10 -19 28 -48 40 -63 13 -16 23 -35 23 -42 0 -17 67 -150 95
-190 12 -16 48 -84 80 -150 32 -66 63 -127 70 -135 7 -8 16 -28 19 -45 4 -16
14 -37 22 -46 25 -28 74 -131 67 -143 -3 -6 -3 -8 2 -4 9 9 28 -22 100 -169
31 -62 60 -115 65 -118 5 -3 18 -25 28 -48 25 -57 76 -114 124 -138 100 -51
231 -45 329 16 60 37 99 44 121 21 15 -14 17 -257 18 -1608 l1 -508 42 -62
c27 -39 56 -69 78 -80 18 -9 59 -28 89 -42 l55 -26 3741 0 3741 0 37 28 c95
68 121 99 154 180 l32 79 0 2411 0 2411 -36 73 c-41 82 -100 150 -156 179 -36
18 -73 19 -805 25 -1758 12 -1598 9 -1601 28 -5 26 16 45 64 57 23 6 50 20 60
30 9 10 23 19 30 19 7 0 27 12 44 27 17 14 57 38 88 53 32 15 71 38 87 52 17
14 71 44 120 67 50 24 99 51 110 61 11 10 31 21 45 25 14 4 40 21 58 36 18 16
41 29 51 29 10 0 25 7 32 17 8 9 30 23 49 32 81 37 160 107 199 176 28 49 31
63 32 147 0 51 -2 102 -6 113 -19 57 -60 152 -71 165 -7 8 -19 33 -28 55 -10
22 -25 49 -35 60 -10 11 -25 38 -34 60 -9 22 -41 87 -71 145 -30 58 -75 146
-100 196 -25 50 -52 97 -60 103 -8 7 -18 27 -21 44 -4 18 -17 46 -29 62 -12
17 -53 91 -91 165 -38 74 -81 158 -96 185 -15 28 -53 102 -86 165 -111 218
-256 495 -304 583 -27 48 -49 91 -49 96 0 4 -13 28 -30 52 -16 24 -30 51 -30
60 0 9 -9 28 -20 42 -11 14 -54 93 -96 176 -41 83 -79 153 -84 156 -5 3 -11
18 -15 34 -3 16 -17 43 -31 62 -13 18 -24 39 -24 47 0 9 -11 29 -24 46 -13 17
-27 42 -31 56 -4 14 -19 45 -34 70 -46 77 -59 102 -112 205 -28 55 -66 127
-85 160 -19 33 -37 67 -40 75 -3 8 -12 27 -20 43 -7 15 -20 39 -28 55 -14 29
-19 38 -96 187 -29 55 -73 141 -98 190 -25 50 -56 103 -68 118 -13 16 -24 36
-24 45 0 9 -9 31 -20 47 -12 17 -37 64 -57 105 -44 90 -89 146 -163 203 l-55
42 -105 2 c-58 2 -116 -2 -130 -8z m-116 -431 c-1 -22 -12 -54 -27 -77 -15
-22 -29 -52 -33 -68 -4 -15 -20 -52 -35 -82 -16 -30 -29 -62 -29 -71 0 -10 -7
-23 -14 -30 -8 -6 -20 -28 -27 -48 -11 -36 -45 -114 -95 -218 -13 -28 -24 -57
-24 -64 0 -7 -11 -32 -24 -54 -13 -23 -27 -52 -31 -66 -4 -14 -20 -53 -36 -87
-16 -34 -29 -66 -29 -71 0 -5 -6 -15 -14 -21 -8 -7 -18 -27 -21 -44 -4 -18
-15 -45 -25 -62 -10 -16 -23 -48 -30 -70 -7 -22 -21 -51 -31 -64 -10 -12 -21
-39 -25 -60 -4 -20 -17 -47 -29 -61 -13 -14 -27 -38 -30 -55 -8 -32 -41 -108
-81 -186 -13 -26 -24 -52 -24 -60 0 -11 -20 -58 -80 -184 -11 -22 -24 -57 -30
-77 -6 -20 -18 -42 -25 -48 -8 -7 -21 -33 -29 -59 -8 -25 -24 -65 -35 -88 -12
-23 -21 -47 -21 -53 0 -7 -10 -25 -21 -42 -12 -16 -28 -50 -35 -75 -8 -26 -20
-54 -28 -62 -8 -9 -19 -36 -26 -61 -7 -24 -20 -55 -31 -68 -10 -14 -19 -30
-19 -37 0 -7 -11 -33 -25 -58 -13 -25 -29 -66 -35 -89 -7 -24 -20 -52 -30 -63
-10 -11 -23 -38 -28 -60 -11 -50 -63 -139 -83 -143 -8 -1 -31 9 -50 22 -18 14
-72 44 -118 66 l-84 42 -121 -4 c-116 -3 -124 -5 -189 -38 -100 -51 -217 -191
-232 -275 -3 -22 -13 -60 -21 -85 -7 -25 -16 -62 -19 -83 -4 -21 -12 -40 -20
-43 -11 -5 -63 19 -139 63 -14 8 -66 13 -152 13 -129 0 -131 0 -199 -34 -37
-19 -85 -52 -106 -72 -46 -45 -109 -144 -109 -173 0 -11 -10 -35 -23 -54 -21
-30 -24 -48 -25 -148 -3 -165 7 -153 -131 -145 -64 4 -150 15 -191 25 -41 11
-136 24 -210 30 -74 6 -169 20 -210 31 -41 11 -133 25 -205 30 -71 6 -164 19
-205 30 -41 10 -136 23 -210 29 -80 6 -150 16 -172 25 -23 10 -93 20 -180 26
-85 6 -171 18 -213 30 -38 11 -112 22 -165 26 -52 3 -149 16 -215 30 -66 13
-185 31 -265 39 -80 7 -167 20 -195 28 -27 8 -112 18 -187 22 -138 7 -138 7
-138 32 0 38 17 61 50 68 17 4 43 17 58 29 15 13 38 27 52 31 14 4 42 20 62
36 20 16 43 29 52 29 8 0 28 11 44 25 17 14 39 25 51 25 11 0 36 14 54 30 19
17 40 30 48 30 7 0 49 25 94 55 45 30 89 55 98 55 9 0 32 14 50 30 19 17 42
30 50 30 9 0 32 14 50 30 19 17 41 30 48 30 8 0 30 10 49 22 62 38 114 68 157
88 23 11 45 25 48 30 3 5 25 19 48 30 23 12 69 36 102 55 33 18 76 41 95 51
19 9 48 27 63 40 16 13 33 24 39 24 6 0 25 11 42 24 17 13 42 27 56 31 14 4
32 14 41 22 9 7 39 26 67 41 28 15 98 54 157 87 59 33 125 70 149 81 23 12 48
29 55 38 7 9 23 16 36 16 12 0 30 9 40 20 9 10 54 38 99 60 44 23 88 48 96 56
9 7 37 23 62 34 26 11 50 25 54 31 3 6 25 19 48 30 62 29 128 67 151 88 11 10
31 22 45 26 14 4 41 17 60 29 58 35 93 55 140 77 25 12 50 28 55 35 6 7 30 23
55 34 71 34 126 64 144 79 9 8 38 25 64 37 26 13 56 29 67 36 11 7 38 24 60
37 22 14 74 43 115 64 41 22 80 45 86 53 6 8 31 21 55 29 23 9 51 22 60 31 17
15 77 50 139 79 19 10 48 28 63 41 16 13 37 24 46 24 10 0 31 10 46 23 29 22
77 49 151 85 23 11 45 26 49 32 4 6 26 21 49 32 22 10 68 35 101 54 33 18 76
41 95 51 19 10 48 28 63 40 16 13 35 23 44 23 8 0 28 11 45 25 16 14 36 25 43
25 7 0 26 11 42 24 16 14 48 32 70 41 23 9 44 23 47 30 2 7 19 16 36 20 17 4
43 17 58 29 15 13 41 26 57 30 17 4 41 18 55 31 14 12 36 26 50 30 14 4 38 18
53 31 16 13 35 24 42 24 7 0 27 11 43 25 17 14 44 28 60 31 17 3 43 19 58 35
15 16 35 29 44 29 8 0 32 11 52 25 20 14 40 25 44 25 4 0 21 11 38 24 17 13
42 27 56 31 14 4 40 21 58 36 18 16 41 29 51 29 9 0 28 11 41 25 13 14 31 25
40 25 9 0 36 14 58 30 23 17 50 30 61 30 10 0 35 14 56 30 21 17 41 30 45 30
4 0 24 14 46 30 52 42 79 37 78 -12z m371 5 c3 -16 13 -41 22 -58 9 -16 22
-43 30 -60 8 -16 18 -37 24 -45 5 -8 22 -40 39 -70 17 -30 46 -83 64 -116 19
-34 37 -72 41 -85 4 -13 16 -36 26 -51 11 -14 35 -59 55 -100 20 -40 42 -84
50 -98 7 -14 23 -46 35 -72 12 -27 25 -48 30 -48 4 0 13 -17 20 -37 6 -21 19
-49 29 -63 9 -14 34 -61 55 -105 22 -44 49 -94 62 -111 13 -17 23 -37 23 -45
0 -8 11 -30 24 -49 13 -19 27 -46 31 -60 4 -14 17 -41 29 -60 28 -45 44 -76
101 -185 25 -49 55 -106 66 -125 10 -19 19 -40 19 -46 0 -6 14 -28 30 -49 17
-21 30 -46 30 -57 0 -10 11 -36 25 -56 14 -20 25 -42 25 -48 0 -6 9 -23 20
-37 12 -14 26 -41 32 -59 6 -18 16 -39 22 -47 12 -14 94 -166 176 -326 28 -55
66 -127 85 -160 19 -33 42 -76 51 -95 35 -80 60 -127 82 -153 12 -16 22 -37
22 -46 0 -10 11 -34 24 -54 13 -19 27 -46 31 -58 5 -13 18 -40 30 -59 11 -19
40 -73 64 -120 23 -47 56 -110 73 -140 17 -30 54 -103 84 -162 29 -58 58 -109
64 -113 5 -3 10 -14 10 -24 0 -10 14 -37 30 -59 17 -23 30 -50 30 -61 0 -10 6
-24 14 -30 8 -7 24 -33 36 -59 12 -25 28 -51 35 -57 21 -16 26 -50 11 -70 -13
-18 -20 -18 -113 -7 -54 6 -116 18 -136 27 -21 8 -101 22 -180 29 -78 8 -162
22 -186 30 -25 9 -97 21 -160 26 -137 12 -133 11 -191 32 -25 9 -99 21 -165
27 -66 6 -148 20 -182 31 -34 10 -104 22 -155 26 -51 3 -124 14 -163 25 -38
10 -126 23 -195 28 -81 7 -143 17 -176 30 -31 12 -90 23 -145 26 -52 4 -125
16 -164 26 -38 11 -133 26 -210 34 -77 9 -158 22 -180 30 -22 8 -99 19 -171
24 -87 7 -146 17 -176 30 -24 10 -73 22 -108 25 -250 25 -274 35 -305 128 -24
71 -23 128 2 170 11 19 26 52 33 74 7 21 21 50 30 64 10 14 21 36 25 50 4 14
18 43 30 65 12 22 26 53 29 69 4 16 18 45 32 65 13 19 24 45 24 56 0 11 9 34
20 50 11 17 25 48 31 70 6 22 20 52 30 66 10 15 19 32 19 38 0 6 14 40 30 74
17 35 30 70 30 77 0 7 11 32 24 54 13 23 27 52 31 66 4 14 16 37 26 52 11 14
22 41 26 60 3 18 17 49 30 68 12 19 23 44 23 56 0 11 13 41 30 65 16 24 30 52
30 61 0 10 11 39 24 65 46 94 75 159 86 195 6 20 18 42 26 49 8 6 21 36 30 65
8 30 19 56 24 59 5 3 14 22 20 43 6 20 21 60 34 87 13 28 36 77 51 110 15 33
40 86 56 118 16 31 29 65 29 75 0 10 11 33 25 52 14 19 25 43 25 54 1 12 14
46 30 76 17 30 30 62 30 71 0 9 9 27 19 41 11 13 24 43 30 66 7 23 23 59 36
79 14 20 25 43 25 52 0 9 12 34 25 56 14 22 25 47 25 56 0 9 11 36 23 60 13
24 30 62 37 84 7 22 19 47 26 55 7 9 21 36 29 60 23 66 42 90 70 90 19 0 26
-6 30 -27z m-1292 -3643 c35 -11 122 -25 192 -30 74 -6 153 -19 186 -30 33
-12 102 -23 161 -26 65 -4 130 -15 176 -30 45 -15 119 -27 193 -33 65 -6 124
-13 130 -16 22 -14 147 -35 207 -35 36 0 100 -10 150 -24 48 -14 132 -28 187
-32 55 -4 123 -15 150 -25 56 -20 139 -35 265 -45 47 -4 103 -13 125 -21 22
-8 91 -19 154 -25 63 -5 139 -19 169 -29 30 -10 76 -19 101 -20 61 -1 202 -23
271 -44 30 -8 116 -21 190 -28 l135 -13 -2 -28 c-3 -38 -18 -54 -66 -67 -23
-6 -52 -19 -65 -30 -14 -10 -30 -19 -37 -19 -6 0 -22 -11 -35 -25 -13 -14 -41
-30 -61 -35 -21 -6 -52 -22 -68 -36 -28 -23 -122 -76 -233 -130 -25 -13 -49
-28 -53 -34 -4 -6 -30 -22 -58 -35 -69 -33 -137 -72 -157 -90 -9 -8 -23 -15
-31 -15 -8 0 -53 -26 -100 -58 -47 -32 -126 -78 -175 -103 l-89 -44 -1825 0
c-1778 0 -1825 0 -1828 19 -4 19 10 53 61 154 15 30 27 63 27 75 0 11 13 44
29 72 16 28 32 72 36 98 6 38 12 47 37 58 31 12 37 10 118 -36 14 -8 38 -15
53 -15 15 0 54 -11 85 -24 41 -18 86 -26 157 -31 55 -4 138 -16 185 -26 66
-16 286 -36 410 -39 16 0 61 81 130 235 18 39 36 77 41 85 5 8 14 26 20 40 5
14 23 51 40 82 16 31 29 64 29 72 0 8 11 31 24 50 13 19 26 54 30 78 4 24 13
52 20 63 17 26 36 105 36 148 0 46 51 117 84 117 13 0 53 -9 89 -20z m-4974
-60 c41 -13 105 -22 180 -26 66 -3 159 -16 216 -29 98 -23 153 -30 285 -40 36
-3 88 -12 115 -20 28 -9 93 -18 145 -21 52 -3 154 -17 225 -30 72 -14 182 -29
245 -34 63 -5 147 -18 185 -28 39 -11 131 -25 205 -32 74 -6 155 -18 180 -27
25 -8 108 -19 185 -24 77 -6 172 -19 210 -29 39 -11 126 -24 195 -29 69 -5
159 -19 200 -30 42 -12 123 -24 188 -28 105 -6 116 -8 150 -35 20 -16 49 -46
63 -66 27 -37 27 -37 9 -72 -33 -64 -59 -125 -66 -155 -3 -16 -19 -52 -34 -80
-15 -27 -31 -65 -35 -84 -4 -18 -18 -49 -31 -68 -13 -20 -24 -44 -24 -53 0
-10 -13 -42 -29 -72 -15 -30 -30 -61 -32 -67 -4 -10 -62 -14 -234 -16 -127 -2
-254 -8 -284 -14 -71 -14 -155 -70 -184 -123 -12 -22 -29 -52 -37 -67 -13 -22
-15 -136 -18 -816 -2 -650 -5 -792 -16 -805 -8 -8 -19 -35 -26 -60 -10 -42
-47 -128 -91 -212 -10 -20 -19 -43 -19 -50 0 -7 -16 -44 -35 -82 -19 -39 -35
-76 -35 -84 0 -8 -9 -27 -20 -42 -11 -16 -23 -43 -26 -62 -4 -18 -17 -52 -30
-75 -13 -23 -24 -49 -24 -59 0 -27 -69 -164 -83 -164 -13 0 -64 84 -83 138 -6
18 -17 39 -24 47 -13 15 -69 120 -167 314 -32 62 -70 137 -85 166 -15 29 -31
56 -37 60 -6 3 -11 17 -11 29 0 13 -10 36 -22 52 -22 28 -62 101 -168 309 -28
55 -57 111 -65 125 -7 14 -18 36 -24 50 -6 14 -27 52 -46 85 -19 33 -41 76
-50 95 -8 19 -21 46 -29 60 -8 14 -33 61 -56 105 -23 44 -50 89 -61 101 -10
11 -19 29 -19 40 0 11 -8 30 -17 44 -9 13 -40 69 -69 124 -28 56 -76 148 -107
206 -61 114 -66 122 -96 190 -12 25 -34 68 -50 95 -16 28 -34 61 -40 75 -6 14
-16 34 -23 45 -22 36 -67 119 -93 170 -14 28 -29 57 -35 65 -5 8 -16 31 -25
50 -8 19 -22 46 -30 60 -8 14 -22 41 -30 60 -9 19 -30 61 -48 93 -18 31 -66
123 -108 205 -96 184 -121 230 -141 262 -9 14 -21 42 -28 62 -6 21 -17 41 -24
45 -12 8 -76 133 -76 150 0 6 -14 27 -30 48 -34 42 -46 76 -36 101 6 15 20 16
114 11 64 -4 133 -14 171 -27z m9578 -1465 c7 -2 13 -9 13 -14 0 -13 -65 -73
-121 -111 -49 -35 -142 -104 -218 -165 -27 -22 -66 -51 -86 -65 -35 -24 -114
-86 -145 -114 -8 -7 -25 -18 -37 -25 -12 -6 -45 -34 -74 -61 -28 -27 -61 -52
-73 -56 -11 -4 -48 -30 -82 -58 -34 -28 -96 -78 -139 -111 -42 -33 -105 -83
-139 -111 -33 -28 -76 -58 -93 -68 -18 -9 -33 -20 -33 -25 0 -5 -13 -17 -29
-28 -46 -28 -220 -162 -286 -219 -33 -28 -75 -59 -92 -68 -18 -9 -33 -20 -33
-24 0 -4 -25 -25 -55 -47 -31 -22 -106 -79 -168 -127 -62 -48 -129 -100 -150
-115 -21 -16 -66 -51 -100 -79 -34 -28 -67 -53 -74 -55 -12 -4 -41 -27 -160
-126 -41 -35 -80 -63 -86 -63 -26 0 -55 31 -80 83 -29 62 -150 190 -200 213
-17 8 -45 24 -60 37 -26 20 -39 22 -161 22 -130 0 -133 -1 -165 -27 -18 -16
-39 -28 -46 -28 -8 0 -29 -13 -47 -28 -18 -16 -40 -33 -49 -38 -21 -12 -87
-98 -99 -130 -6 -14 -18 -24 -28 -24 -21 0 -72 43 -72 60 0 6 -32 44 -72 85
-50 53 -79 75 -95 75 -14 0 -41 12 -60 28 -35 26 -41 27 -162 27 -122 0 -127
-1 -162 -28 -20 -15 -44 -27 -53 -27 -10 0 -35 -15 -56 -32 -56 -49 -170 -187
-170 -206 0 -23 -37 -81 -55 -89 -10 -3 -36 13 -69 43 -73 66 -136 114 -150
114 -6 0 -33 22 -61 48 -27 26 -64 56 -81 67 -75 48 -113 75 -121 88 -4 7 -42
38 -83 69 -41 30 -110 84 -152 119 -42 35 -93 75 -113 89 -45 31 -112 83 -145
113 -14 13 -38 32 -54 43 -73 49 -270 198 -341 258 -79 68 -133 108 -172 131
-18 11 -33 22 -33 26 0 4 -32 31 -71 60 -39 30 -90 69 -113 86 -37 30 -77 59
-140 103 -12 8 -32 24 -43 35 -27 24 -88 72 -168 131 -87 63 -229 173 -317
246 -71 58 -94 91 -68 100 16 5 6834 -1 6847 -7z m293 -405 c3 -129 3 -1137 0
-2240 -5 -1979 -5 -2005 -25 -2008 -11 -3 -27 5 -40 20 -11 13 -42 39 -68 58
-53 38 -177 141 -218 180 -14 14 -52 43 -83 65 -32 22 -61 45 -64 50 -9 13
-89 75 -97 75 -3 0 -54 41 -113 91 -124 105 -141 119 -242 199 -41 32 -86 68
-100 79 -14 11 -47 37 -75 57 -27 20 -61 47 -75 60 -45 42 -105 91 -116 95
-11 4 -101 78 -309 252 -57 48 -107 87 -110 87 -8 0 -75 54 -133 108 -26 23
-77 63 -114 88 -38 25 -68 50 -68 55 0 5 -12 15 -27 22 -16 6 -54 38 -87 69
-33 32 -63 58 -67 58 -5 0 -53 37 -108 83 -55 45 -120 97 -146 116 -25 18 -64
51 -88 73 -23 21 -68 58 -101 81 -89 64 -96 72 -96 116 0 22 4 42 9 46 5 3 17
30 25 59 11 38 26 62 46 78 60 46 185 147 209 168 12 12 34 26 47 32 13 6 24
15 24 19 0 4 16 17 36 30 20 12 46 31 59 43 12 12 42 35 65 51 24 17 87 66
141 110 53 44 124 99 157 123 32 23 67 51 77 62 10 11 22 20 27 20 5 0 53 35
106 77 53 43 109 87 124 98 15 11 62 47 104 80 42 33 109 85 149 115 106 81
168 128 245 190 39 30 88 69 110 85 22 17 71 55 109 85 38 30 88 69 112 85 23
17 73 56 110 88 37 31 72 57 78 57 5 0 40 26 79 58 38 31 88 71 112 87 23 17
56 42 73 58 16 15 33 27 36 27 4 0 21 12 38 28 18 15 53 43 79 62 26 19 71 56
98 82 81 76 80 78 86 -192z m-7309 158 c47 -40 105 -86 128 -103 45 -32 113
-84 146 -113 11 -10 42 -33 68 -52 27 -19 69 -52 94 -73 45 -38 217 -169 257
-197 11 -8 35 -26 53 -40 18 -14 45 -35 60 -47 15 -12 61 -48 100 -80 40 -32
91 -71 113 -88 23 -16 56 -42 74 -57 19 -16 38 -28 43 -28 5 0 22 -13 38 -30
16 -16 33 -30 37 -30 5 0 40 -26 78 -57 38 -32 101 -83 140 -113 39 -30 100
-79 135 -107 35 -29 67 -53 71 -53 3 0 24 -15 45 -32 21 -18 56 -46 79 -63 22
-16 69 -53 103 -81 34 -27 76 -59 93 -70 74 -45 324 -241 390 -304 16 -17 35
-30 42 -30 6 0 56 -38 110 -84 54 -46 109 -89 121 -96 27 -14 51 -67 51 -113
0 -24 -9 -41 -32 -65 -43 -41 -176 -150 -223 -182 -21 -14 -49 -37 -64 -51
-14 -14 -54 -47 -88 -74 -35 -26 -63 -51 -63 -56 0 -4 -10 -11 -22 -15 -12 -4
-66 -44 -119 -90 -53 -46 -100 -84 -105 -84 -5 0 -17 -9 -29 -19 -41 -40 -112
-99 -180 -151 -38 -29 -88 -69 -110 -87 -40 -35 -56 -47 -131 -106 -53 -41
-105 -83 -160 -127 -23 -19 -62 -49 -86 -67 -24 -18 -63 -51 -88 -75 -49 -46
-68 -61 -161 -126 -34 -24 -75 -57 -93 -73 -75 -70 -147 -129 -156 -129 -5 0
-25 -15 -44 -32 -60 -56 -114 -101 -160 -133 -24 -16 -98 -76 -165 -132 -66
-57 -125 -103 -130 -103 -5 0 -32 -22 -61 -49 -29 -27 -77 -66 -108 -88 -30
-21 -84 -65 -119 -98 -62 -57 -65 -59 -89 -45 l-25 15 1 2215 c0 2066 1 2216
17 2228 9 6 22 12 28 12 6 0 49 -33 96 -72z m2860 -2495 c51 -66 182 -203 195
-203 5 0 34 -23 64 -51 30 -28 82 -68 115 -89 33 -21 74 -50 90 -65 47 -41 95
-77 125 -94 59 -34 94 -57 120 -78 36 -30 64 -29 93 3 13 14 33 31 44 37 23
14 79 53 138 98 22 16 58 42 80 57 162 109 380 303 443 393 26 38 60 26 166
-61 37 -30 113 -92 169 -138 56 -45 114 -92 129 -105 15 -12 45 -35 68 -52 23
-16 62 -50 88 -74 26 -23 72 -59 102 -78 30 -19 69 -48 85 -64 17 -17 50 -46
75 -65 55 -42 159 -125 300 -240 150 -122 150 -122 206 -162 27 -21 72 -58 98
-84 27 -25 60 -52 75 -59 14 -8 83 -61 153 -119 70 -58 168 -138 217 -178 50
-41 91 -78 91 -82 0 -5 9 -11 19 -15 18 -5 107 -73 191 -145 66 -57 98 -80
108 -80 6 0 18 -10 26 -22 9 -12 24 -27 35 -33 10 -5 45 -34 78 -62 32 -29 86
-71 121 -93 62 -41 72 -56 50 -78 -9 -9 -784 -12 -3424 -12 -3049 0 -3414 2
-3428 15 -20 20 -12 39 22 55 15 6 34 18 42 26 8 7 51 43 95 78 116 94 144
118 177 148 16 16 33 28 39 28 5 0 54 37 108 83 54 45 119 98 145 117 25 19
69 57 98 83 29 26 65 54 80 63 15 8 32 23 38 34 6 11 16 20 21 20 6 0 41 25
78 55 140 116 203 165 212 165 6 0 22 13 37 28 29 31 140 123 223 187 65 49
144 115 185 155 17 17 35 30 41 30 5 0 18 8 29 18 10 9 46 38 79 64 33 26 68
54 77 62 9 8 30 22 47 30 16 9 34 22 38 30 9 16 69 67 178 151 43 33 116 93
164 133 47 40 96 79 107 85 12 7 62 46 112 87 95 79 150 117 168 119 6 1 31
-25 55 -56z"/>
</g>
</svg>
