<?xml version="1.0" standalone="no"?>
<!DOCTYPE svg PUBLIC "-//W3C//DTD SVG 20010904//EN"
 "http://www.w3.org/TR/2001/REC-SVG-20010904/DTD/svg10.dtd">
<svg version="1.0" xmlns="http://www.w3.org/2000/svg"
 width="1080.000000pt" height="1080.000000pt" viewBox="0 0 1080.000000 1080.000000"
 preserveAspectRatio="xMidYMid meet">
<metadata>
Created by potrace 1.16, written by Peter Selinger 2001-2019
</metadata>
<g transform="translate(0.000000,1080.000000) scale(0.100000,-0.100000)"
fill="#000000" stroke="none">
<path d="M3696 10671 c-6 -9 16 -67 62 -161 26 -52 27 -63 27 -205 0 -142 -1
-153 -27 -208 -15 -31 -33 -60 -41 -62 -7 -3 -42 1 -78 10 -150 35 -197 14
-255 -114 -52 -113 -118 -395 -154 -656 -41 -299 -70 -367 -85 -205 -38 397
-140 831 -220 936 -40 53 -63 58 -185 45 -58 -7 -113 -9 -122 -6 -16 6 -26 39
-49 161 -20 109 1 288 41 344 11 15 20 34 20 42 0 7 7 26 15 42 9 16 14 31 11
33 -5 5 -104 -54 -136 -82 -14 -12 -43 -30 -65 -40 -22 -10 -53 -28 -68 -41
-15 -13 -48 -32 -72 -43 -43 -19 -45 -21 -45 -63 1 -24 7 -59 15 -78 22 -58
84 -221 109 -290 14 -36 39 -103 56 -150 17 -47 35 -98 40 -115 4 -16 24 -75
44 -130 21 -55 44 -122 52 -150 9 -27 24 -72 34 -100 24 -63 46 -132 70 -215
10 -36 26 -85 35 -110 9 -25 19 -74 22 -110 l5 -65 -120 -235 c-66 -129 -146
-282 -177 -340 -31 -58 -129 -251 -217 -430 -88 -179 -163 -332 -168 -341 -5
-9 -45 -95 -88 -190 -119 -260 -141 -308 -173 -375 -16 -34 -29 -64 -29 -67 0
-3 -18 -44 -40 -91 -22 -47 -40 -87 -40 -90 0 -3 -14 -35 -30 -69 -17 -35 -30
-70 -30 -77 0 -7 -9 -27 -19 -44 -17 -28 -164 -394 -242 -601 -16 -44 -44
-115 -61 -159 -33 -84 -97 -263 -129 -360 -11 -33 -23 -64 -28 -70 -5 -6 -16
-33 -24 -61 -9 -27 -39 -115 -67 -195 -92 -261 -111 -314 -126 -365 -9 -27
-22 -63 -29 -80 -7 -16 -27 -75 -45 -130 -18 -55 -41 -122 -51 -150 -10 -27
-67 -201 -128 -385 -61 -184 -115 -348 -122 -365 -6 -16 -19 -57 -29 -90 -10
-33 -22 -71 -28 -85 -6 -14 -24 -68 -40 -120 -97 -309 -135 -431 -151 -475
-10 -27 -24 -70 -30 -95 -7 -25 -20 -67 -30 -95 -10 -27 -28 -81 -39 -120 -12
-38 -30 -99 -42 -135 -11 -36 -29 -92 -39 -125 -11 -33 -33 -105 -50 -160 -18
-55 -38 -122 -46 -150 -7 -27 -19 -69 -26 -92 -11 -37 -10 -49 14 -122 53
-161 167 -372 277 -514 25 -32 52 -69 60 -82 32 -48 242 -258 320 -320 28 -22
70 -56 93 -75 47 -40 109 -83 171 -120 24 -14 57 -37 75 -52 18 -16 38 -28 44
-28 7 0 42 -17 78 -39 37 -21 79 -41 95 -45 16 -4 49 -20 74 -35 25 -15 65
-33 90 -40 25 -7 62 -22 82 -32 65 -33 307 -109 431 -134 65 -14 123 -28 128
-31 23 -14 155 -36 329 -55 102 -11 228 -25 280 -31 60 -8 257 -12 530 -12
430 0 438 0 700 33 146 18 319 45 385 61 66 16 149 34 185 41 78 15 321 92
370 118 19 10 61 26 93 35 31 9 79 29 105 45 26 15 58 30 72 34 29 7 192 97
218 120 9 8 37 25 62 37 25 13 59 34 77 49 29 24 71 55 146 108 93 66 326 296
403 400 48 63 171 251 196 298 36 69 114 254 127 302 12 44 6 86 -29 193 -11
36 -32 103 -47 150 -14 47 -36 117 -48 155 -12 39 -35 111 -50 160 -15 50 -34
108 -42 130 -8 22 -23 69 -33 105 -37 132 -60 206 -74 235 -8 17 -18 48 -22
70 -3 22 -12 51 -20 65 -7 14 -20 55 -29 90 -9 36 -20 70 -25 75 -4 6 -15 37
-24 70 -16 63 -46 157 -76 240 -10 28 -66 196 -125 375 -58 179 -112 341 -120
360 -7 19 -32 91 -54 160 -48 149 -147 436 -156 450 -3 5 -12 31 -20 57 -13
47 -32 102 -95 273 -17 47 -41 114 -52 150 -11 36 -27 74 -34 85 -8 11 -14 30
-14 43 0 12 -11 44 -24 70 -13 26 -27 63 -31 82 -4 19 -16 51 -26 70 -11 19
-19 40 -19 47 0 12 -29 92 -71 193 -10 25 -57 144 -104 265 -48 121 -93 234
-100 250 -36 79 -150 346 -167 390 -11 28 -33 78 -49 113 -17 34 -70 149 -118
255 -183 400 -422 883 -668 1347 -130 247 -173 338 -173 367 0 10 9 43 19 73
11 30 23 73 26 95 4 22 14 52 21 67 8 15 21 53 29 85 16 63 59 196 75 228 5
11 27 74 49 140 69 208 221 623 256 703 21 45 19 105 -2 124 -10 8 -32 20 -50
27 -17 7 -40 22 -50 33 -10 11 -36 28 -58 38 -22 9 -60 34 -83 54 -24 20 -48
36 -52 36 -5 0 -22 11 -38 25 -17 14 -33 21 -36 16z"/>
<path d="M7781 10129 c-13 -5 -31 -20 -41 -32 -10 -13 -37 -29 -59 -37 -22 -7
-50 -24 -63 -37 -12 -13 -44 -34 -72 -48 -28 -14 -65 -35 -83 -48 -54 -37
-124 -81 -172 -105 -25 -13 -57 -34 -72 -46 -14 -12 -42 -29 -60 -36 -19 -8
-47 -24 -63 -37 -15 -13 -44 -30 -62 -38 -19 -8 -55 -30 -80 -49 -26 -20 -52
-36 -58 -36 -6 0 -35 -18 -65 -40 -29 -22 -59 -40 -66 -40 -6 0 -35 -24 -62
-53 -62 -66 -77 -112 -92 -282 -7 -71 -18 -173 -26 -225 -8 -52 -17 -131 -20
-175 -3 -44 -15 -150 -25 -235 -11 -85 -24 -216 -30 -290 -6 -74 -17 -180 -25
-235 -8 -55 -19 -174 -25 -265 -6 -91 -17 -230 -25 -310 -25 -253 -33 -538
-35 -1189 0 -349 -2 -637 -4 -640 -2 -3 -7 -629 -10 -1391 -3 -762 -9 -1444
-12 -1517 l-6 -132 29 -29 c68 -69 260 -82 398 -28 121 48 189 90 228 141 17
23 18 114 23 1912 3 1038 6 1913 7 1943 2 30 4 82 5 115 1 33 7 67 12 75 20
29 37 -17 49 -135 6 -63 15 -125 20 -138 5 -13 12 -50 16 -83 9 -78 34 -224
39 -233 3 -4 10 -47 16 -97 7 -49 18 -111 25 -139 8 -27 19 -97 26 -155 6 -58
20 -136 30 -175 10 -38 19 -84 19 -102 0 -17 7 -65 16 -105 34 -162 35 -171
10 -372 -14 -105 -27 -227 -31 -271 -4 -44 -13 -116 -20 -160 -7 -44 -16 -127
-20 -185 -4 -58 -15 -161 -25 -230 -10 -69 -21 -170 -25 -225 -4 -55 -13 -143
-21 -195 -8 -52 -22 -167 -29 -255 -8 -88 -20 -182 -25 -210 -5 -27 -17 -146
-25 -263 -8 -116 -19 -221 -26 -233 -6 -12 -17 -94 -25 -182 -7 -89 -19 -195
-25 -234 -5 -40 -17 -135 -24 -210 -8 -76 -21 -192 -29 -258 -9 -66 -20 -169
-26 -230 -5 -60 -14 -150 -20 -200 -36 -291 -47 -420 -40 -440 9 -23 139 -93
215 -116 22 -6 60 -22 85 -34 25 -12 77 -30 115 -40 39 -9 96 -28 128 -40 32
-13 104 -31 160 -40 56 -10 127 -24 157 -33 39 -11 99 -16 210 -16 138 -1 160
1 201 20 26 12 60 25 75 28 60 14 126 126 166 280 37 147 85 448 100 629 16
183 26 220 53 184 13 -19 26 -99 46 -292 6 -60 17 -139 24 -175 8 -36 19 -101
25 -145 25 -180 93 -370 157 -441 45 -50 195 -94 321 -94 105 0 431 56 516 89
59 22 187 61 201 61 6 0 31 11 55 24 25 13 70 31 100 40 30 9 89 33 130 54
l75 37 3 45 c4 56 -25 335 -82 800 -9 69 -23 190 -31 270 -8 80 -24 219 -35
310 -11 91 -20 187 -20 213 0 27 -4 57 -10 67 -10 19 -21 112 -40 340 -11 127
-22 234 -65 600 -14 113 -27 239 -30 280 -4 41 -13 120 -20 175 -8 55 -22 174
-30 264 -9 91 -18 168 -20 172 -3 4 -14 98 -24 210 -11 112 -27 256 -36 319
-16 114 -13 206 7 260 5 13 16 71 24 129 8 58 21 133 28 166 8 33 17 87 21
120 4 33 14 92 22 130 8 39 23 122 33 185 31 197 99 602 111 658 6 28 14 52
19 52 9 0 13 -17 24 -106 3 -22 5 -907 5 -1965 -1 -1058 -1 -1937 0 -1953 1
-58 91 -125 256 -192 62 -26 82 -29 175 -29 76 0 120 5 158 18 92 33 86 -26
79 750 -4 375 -9 1308 -12 2072 -6 1402 -14 1834 -40 2090 -8 77 -22 237 -31
355 -8 118 -18 218 -20 222 -2 3 -13 113 -24 242 -10 130 -21 240 -25 245 -3
6 -12 88 -20 183 -8 95 -22 214 -30 263 -8 50 -19 149 -25 220 -16 194 -32
250 -88 308 -26 27 -63 55 -82 63 -19 8 -44 23 -55 33 -11 11 -42 30 -70 44
-27 14 -59 34 -69 46 -11 12 -24 21 -31 21 -7 0 -30 13 -52 29 -22 16 -60 39
-84 51 -24 13 -64 37 -91 54 -76 50 -135 86 -186 113 -26 13 -56 33 -67 43
-11 10 -40 27 -65 38 -25 11 -52 27 -60 37 -8 9 -37 27 -66 40 -28 12 -58 32
-66 44 -8 11 -29 26 -47 32 -54 19 -61 4 -61 -125 0 -178 -27 -448 -76 -761
-9 -55 -22 -147 -30 -205 -8 -58 -20 -134 -28 -170 -8 -36 -17 -87 -20 -115
-6 -50 -43 -258 -72 -410 -9 -44 -22 -120 -30 -170 -8 -49 -21 -112 -28 -140
-8 -27 -20 -86 -26 -129 -7 -44 -16 -91 -21 -104 -5 -13 -18 -77 -28 -141 -11
-64 -22 -123 -26 -132 -3 -9 -14 -61 -25 -115 -10 -54 -30 -153 -45 -219 -14
-66 -37 -169 -50 -230 -13 -60 -35 -162 -48 -225 -14 -63 -35 -160 -47 -215
-12 -55 -27 -122 -35 -150 -7 -27 -17 -73 -20 -102 -6 -46 -27 -84 -40 -71 -5
5 -51 184 -100 393 -19 83 -39 164 -44 180 -6 17 -13 48 -17 70 -3 22 -15 74
-26 115 -11 41 -26 107 -33 145 -7 39 -20 97 -29 130 -20 80 -64 271 -71 315
-3 19 -14 71 -25 115 -30 130 -59 266 -70 330 -5 33 -15 76 -21 95 -5 19 -19
80 -29 135 -10 55 -30 161 -45 235 -14 74 -37 198 -50 275 -14 77 -28 147 -31
155 -3 8 -14 74 -24 145 -10 72 -25 173 -34 225 -48 296 -76 569 -76 758 0
114 -12 134 -69 111z m837 -4604 c54 -61 55 -151 4 -214 -36 -44 -66 -50 -99
-19 -37 34 -53 71 -53 122 0 125 82 187 148 111z"/>
<path d="M8089 10073 l-34 -48 0 -327 0 -326 31 -44 c39 -52 58 -58 92 -25 15
14 45 35 68 46 22 12 51 32 64 46 13 13 37 29 55 35 50 17 61 48 47 131 -16
92 -15 128 4 180 29 81 20 98 -132 246 -76 73 -143 133 -149 133 -6 0 -27 -21
-46 -47z"/>
<path d="M8859 10012 c-58 -59 -118 -116 -133 -127 -36 -27 -45 -86 -21 -148
12 -31 15 -61 12 -94 -23 -197 -24 -192 42 -219 20 -8 50 -27 66 -43 17 -15
42 -33 56 -40 14 -7 39 -24 54 -37 40 -34 57 -30 96 24 l34 47 0 321 0 321
-35 52 c-19 28 -42 51 -50 51 -8 0 -63 -48 -121 -108z"/>
<path d="M8515 9727 c-20 -16 -28 -35 -32 -68 -4 -38 -1 -50 22 -77 57 -68
132 -20 123 79 -8 84 -59 113 -113 66z"/>
</g>
</svg>
