<svg preserveAspectRatio="xMidYMid meet" data-bbox="127.2 106.5 180 198.8" viewBox="350 355 70 70" xmlns="http://www.w3.org/2000/svg" data-type="color" role="presentation" aria-hidden="true" aria-label=""><defs><style>#comp-lp1sz31f3 svg [data-color="1"] {fill: #EDE8E3;}
#comp-lp1sz31f3 svg [data-color="2"] {fill: #EDE8E3;}</style></defs>
    <g>
        <path fill="#EDE8E3" d="M235.6 276.6H278l3.7-7.7h-50.2l4.1 7.7z" data-color="1"></path>
        <path d="M206.7 305.3c2.2-12.4 14-22.1 26-24.5-9 8.1-18.1 15.1-26 24.5z" fill="#EDE8E3" data-color="1"></path>
        <path d="M307.2 304.8c-2.2-12.4-14-22.1-26-24.5 9 8.2 18.1 15.2 26 24.5z" fill="#EDE8E3" data-color="1"></path>
        <path d="M294.5 204.9s-19.6 9-27.5 17.8c-5.9 6.7-8.2 10.4-8.9 11.2-.9 1.4-1.2 2.4-1.5 2.6-.3-.2-.6-1.2-1.5-2.6-.7-.7-3-4.5-8.9-11.2-7.9-8.9-27.5-17.8-27.5-17.8s-12.4 25.1-3 46.1c1.9 4.3 12.7 11.9 14.9 14.9h52.2c2.2-3 13-10.6 14.9-14.9 9.2-21-3.2-46.1-3.2-46.1z" fill="#EDE8E3" data-color="1"></path>
        <path d="M283.1 266.9H230l-.3-.4c-.8-1.1-3-3-5.3-5-3.9-3.4-8.4-7.3-9.6-10.1-9.5-21.2 2.5-45.9 3-46.9l.4-.9.9.4c.8.4 19.9 9.1 27.8 18.1 4.2 4.7 6.6 8 7.8 9.7.5.7.9 1.2 1 1.4l.1.2c.3.4.5.8.7 1.2.2-.4.4-.8.7-1.2l.1-.2c.2-.2.6-.7 1-1.4 1.3-1.8 3.7-5 7.8-9.7 8-8.9 27-17.7 27.8-18.1l.9-.4.4.9c.5 1 12.5 25.7 3 46.9-1.2 2.8-5.7 6.7-9.6 10.1-2.3 2-4.5 3.9-5.3 5l-.2.4zm-52.1-2h51.2c1.1-1.2 3-3 5.3-4.9 3.6-3.1 8.1-7 9.1-9.4 8.1-18.1-.5-39.7-2.5-44.4-3.9 1.9-19.6 9.6-26.3 17.2-4.1 4.6-6.5 7.9-7.7 9.6-.5.8-.9 1.2-1.2 1.5-.4.6-.7 1.1-.9 1.6-.3.6-.5 1.1-1 1.3l-.5.3-.5-.3c-.4-.2-.6-.7-1-1.3-.2-.4-.5-1-.9-1.6-.3-.3-.6-.8-1.2-1.5-1.3-1.7-3.6-5-7.7-9.6-6.7-7.6-22.3-15.3-26.3-17.2-2 4.6-10.6 26.2-2.5 44.4 1.1 2.4 5.5 6.3 9.1 9.4 2.4 1.9 4.4 3.6 5.5 4.9zm24.9-29.1z" fill="#FFFFFF" data-color="2"></path>
    </g>
</svg>